<ttFont>
    <TTGlyph name=".notdef" xMin="100" yMin="0" xMax="658" yMax="531">
      <contour>
        <pt x="100" y="0" on="1"/>
        <pt x="100" y="531" on="1"/>
        <pt x="658" y="531" on="1"/>
        <pt x="658" y="0" on="1"/>
      </contour>
      <contour>
        <pt x="114" y="22" on="1"/>
        <pt x="370" y="266" on="1"/>
        <pt x="114" y="507" on="1"/>
      </contour>
      <contour>
        <pt x="124" y="518" on="1"/>
        <pt x="381" y="276" on="1"/>
        <pt x="635" y="518" on="1"/>
      </contour>
      <contour>
        <pt x="127" y="13" on="1"/>
        <pt x="634" y="13" on="1"/>
        <pt x="381" y="256" on="1"/>
      </contour>
      <contour>
        <pt x="392" y="266" on="1"/>
        <pt x="644" y="25" on="1"/>
        <pt x="644" y="506" on="1"/>
      </contour>
    </TTGlyph>
    <TTGlyph name="A" xMin="45" yMin="0" xMax="636" yMax="732">
      <contour>
        <pt x="45" y="0" on="1"/>
        <pt x="432" y="732" on="1"/>
        <pt x="492" y="732" on="1"/>
        <pt x="635" y="0" on="1"/>
        <pt x="577" y="0" on="1"/>
        <pt x="534" y="220" on="1"/>
        <pt x="225" y="220" on="1"/>
        <pt x="109" y="0" on="1"/>
      </contour>
      <contour>
        <pt x="256" y="278" on="1"/>
        <pt x="523" y="278" on="1"/>
        <pt x="452" y="655" on="1"/>
      </contour>
    </TTGlyph>
    <TTGlyph name="AE" xMin="30" yMin="-5" xMax="988" yMax="733">
      <contour>
        <pt x="590" y="723" on="1"/>
        <pt x="616" y="730" on="0"/>
        <pt x="649" y="732" on="0"/>
        <pt x="678" y="732" on="0"/>
        <pt x="688" y="732" on="1"/>
        <pt x="988" y="718" on="1"/>
        <pt x="981" y="674" on="1"/>
        <pt x="678" y="674" on="1"/>
        <pt x="631" y="674" on="0"/>
        <pt x="618" y="655" on="1"/>
        <pt x="607" y="640" on="0"/>
        <pt x="601" y="607" on="0"/>
        <pt x="601" y="606" on="1"/>
        <pt x="601" y="603" on="0"/>
        <pt x="600" y="600" on="1"/>
        <pt x="566" y="390" on="1"/>
        <pt x="895" y="381" on="1"/>
        <pt x="888" y="337" on="1"/>
        <pt x="557" y="329" on="1"/>
        <pt x="524" y="122" on="1"/>
        <pt x="520" y="108" on="0"/>
        <pt x="525" y="87" on="0"/>
        <pt x="528" y="72" on="0"/>
        <pt x="541" y="62" on="0"/>
        <pt x="551" y="57" on="0"/>
        <pt x="560" y="55" on="1"/>
        <pt x="574" y="53" on="0"/>
        <pt x="592" y="53" on="1"/>
        <pt x="883" y="53" on="1"/>
        <pt x="875" y="10" on="1"/>
        <pt x="585" y="-4" on="1"/>
        <pt x="580" y="-5" on="0"/>
        <pt x="555" y="-5" on="0"/>
        <pt x="534" y="1" on="1"/>
        <pt x="464" y="18" on="0"/>
        <pt x="464" y="94" on="1"/>
        <pt x="464" y="107" on="0"/>
        <pt x="466" y="121" on="1"/>
        <pt x="484" y="237" on="1"/>
        <pt x="264" y="237" on="1"/>
        <pt x="97" y="0" on="1"/>
        <pt x="30" y="0" on="1"/>
        <pt x="449" y="599" on="1"/>
        <pt x="522" y="705" on="0"/>
      </contour>
      <contour>
        <pt x="302" y="295" on="1"/>
        <pt x="494" y="295" on="1"/>
        <pt x="551" y="646" on="1"/>
      </contour>
    </TTGlyph>
    <TTGlyph name="Aacute" xMin="45" yMin="0" xMax="652" yMax="930">
      <contour>
        <pt x="447" y="797" on="1"/>
        <pt x="580" y="930" on="1"/>
        <pt x="652" y="930" on="1"/>
        <pt x="498" y="797" on="1"/>
      </contour>
      <contour>
        <pt x="45" y="0" on="1"/>
        <pt x="432" y="732" on="1"/>
        <pt x="492" y="732" on="1"/>
        <pt x="635" y="0" on="1"/>
        <pt x="577" y="0" on="1"/>
        <pt x="534" y="220" on="1"/>
        <pt x="225" y="220" on="1"/>
        <pt x="109" y="0" on="1"/>
      </contour>
      <contour>
        <pt x="256" y="278" on="1"/>
        <pt x="523" y="278" on="1"/>
        <pt x="452" y="655" on="1"/>
      </contour>
    </TTGlyph>
    <TTGlyph name="Abreve" xMin="45" yMin="0" xMax="636" yMax="911">
      <contour>
        <pt x="411" y="897" on="1"/>
        <pt x="411" y="872" on="0"/>
        <pt x="445" y="832" on="0"/>
        <pt x="476" y="832" on="1"/>
        <pt x="476" y="832" on="0"/>
        <pt x="491" y="832" on="0"/>
        <pt x="517" y="838" on="0"/>
        <pt x="539" y="851" on="0"/>
        <pt x="547" y="860" on="1"/>
        <pt x="564" y="879" on="0"/>
        <pt x="569" y="911" on="1"/>
        <pt x="605" y="911" on="1"/>
        <pt x="596" y="854" on="0"/>
        <pt x="527" y="797" on="0"/>
        <pt x="433" y="797" on="0"/>
        <pt x="376" y="854" on="0"/>
        <pt x="376" y="896" on="1"/>
        <pt x="376" y="903" on="0"/>
        <pt x="377" y="911" on="1"/>
        <pt x="412" y="911" on="1"/>
        <pt x="411" y="904" on="0"/>
      </contour>
      <contour>
        <pt x="45" y="0" on="1"/>
        <pt x="432" y="732" on="1"/>
        <pt x="492" y="732" on="1"/>
        <pt x="635" y="0" on="1"/>
        <pt x="577" y="0" on="1"/>
        <pt x="534" y="220" on="1"/>
        <pt x="225" y="220" on="1"/>
        <pt x="109" y="0" on="1"/>
      </contour>
      <contour>
        <pt x="256" y="278" on="1"/>
        <pt x="523" y="278" on="1"/>
        <pt x="452" y="655" on="1"/>
      </contour>
    </TTGlyph>
    <TTGlyph name="Acircumflex" xMin="45" yMin="0" xMax="636" yMax="927">
      <contour>
        <pt x="330" y="797" on="1"/>
        <pt x="473" y="927" on="1"/>
        <pt x="527" y="927" on="1"/>
        <pt x="615" y="797" on="1"/>
        <pt x="566" y="797" on="1"/>
        <pt x="497" y="891" on="1"/>
        <pt x="389" y="797" on="1"/>
      </contour>
      <contour>
        <pt x="45" y="0" on="1"/>
        <pt x="432" y="732" on="1"/>
        <pt x="492" y="732" on="1"/>
        <pt x="635" y="0" on="1"/>
        <pt x="577" y="0" on="1"/>
        <pt x="534" y="220" on="1"/>
        <pt x="225" y="220" on="1"/>
        <pt x="109" y="0" on="1"/>
      </contour>
      <contour>
        <pt x="256" y="278" on="1"/>
        <pt x="523" y="278" on="1"/>
        <pt x="452" y="655" on="1"/>
      </contour>
    </TTGlyph>
    <TTGlyph name="Adieresis" xMin="45" yMin="0" xMax="647" yMax="877">
      <contour>
        <pt x="342" y="876" on="0"/>
        <pt x="375" y="876" on="0"/>
        <pt x="393" y="854" on="0"/>
        <pt x="388" y="820" on="0"/>
        <pt x="362" y="797" on="0"/>
        <pt x="329" y="797" on="0"/>
        <pt x="309" y="821" on="0"/>
        <pt x="314" y="854" on="0"/>
      </contour>
      <contour>
        <pt x="597" y="876" on="0"/>
        <pt x="630" y="876" on="0"/>
        <pt x="647" y="856" on="0"/>
        <pt x="647" y="841" on="0"/>
        <pt x="643" y="820" on="0"/>
        <pt x="617" y="797" on="0"/>
        <pt x="584" y="797" on="0"/>
        <pt x="564" y="821" on="0"/>
        <pt x="569" y="854" on="0"/>
      </contour>
      <contour>
        <pt x="45" y="0" on="1"/>
        <pt x="432" y="732" on="1"/>
        <pt x="492" y="732" on="1"/>
        <pt x="635" y="0" on="1"/>
        <pt x="577" y="0" on="1"/>
        <pt x="534" y="220" on="1"/>
        <pt x="225" y="220" on="1"/>
        <pt x="109" y="0" on="1"/>
      </contour>
      <contour>
        <pt x="256" y="278" on="1"/>
        <pt x="523" y="278" on="1"/>
        <pt x="452" y="655" on="1"/>
      </contour>
    </TTGlyph>
    <TTGlyph name="Agrave" xMin="45" yMin="0" xMax="636" yMax="930">
      <contour>
        <pt x="327" y="930" on="1"/>
        <pt x="394" y="930" on="1"/>
        <pt x="498" y="797" on="1"/>
        <pt x="447" y="797" on="1"/>
      </contour>
      <contour>
        <pt x="45" y="0" on="1"/>
        <pt x="432" y="732" on="1"/>
        <pt x="492" y="732" on="1"/>
        <pt x="635" y="0" on="1"/>
        <pt x="577" y="0" on="1"/>
        <pt x="534" y="220" on="1"/>
        <pt x="225" y="220" on="1"/>
        <pt x="109" y="0" on="1"/>
      </contour>
      <contour>
        <pt x="256" y="278" on="1"/>
        <pt x="523" y="278" on="1"/>
        <pt x="452" y="655" on="1"/>
      </contour>
    </TTGlyph>
    <TTGlyph name="Amacron" xMin="45" yMin="0" xMax="636" yMax="845">
      <contour>
        <pt x="333" y="797" on="1"/>
        <pt x="341" y="844" on="1"/>
        <pt x="619" y="844" on="1"/>
        <pt x="612" y="797" on="1"/>
      </contour>
      <contour>
        <pt x="45" y="0" on="1"/>
        <pt x="432" y="732" on="1"/>
        <pt x="492" y="732" on="1"/>
        <pt x="635" y="0" on="1"/>
        <pt x="577" y="0" on="1"/>
        <pt x="534" y="220" on="1"/>
        <pt x="225" y="220" on="1"/>
        <pt x="109" y="0" on="1"/>
      </contour>
      <contour>
        <pt x="256" y="278" on="1"/>
        <pt x="523" y="278" on="1"/>
        <pt x="452" y="655" on="1"/>
      </contour>
    </TTGlyph>
    <TTGlyph name="Aogonek" xMin="147" yMin="-183" xMax="738" yMax="732">
      <contour>
        <pt x="726" y="0" on="1"/>
        <pt x="646" y="-48" on="0"/>
        <pt x="646" y="-96" on="1"/>
        <pt x="646" y="-136" on="0"/>
        <pt x="710" y="-136" on="1"/>
        <pt x="713" y="-136" on="0"/>
        <pt x="717" y="-136" on="1"/>
        <pt x="709" y="-181" on="1"/>
        <pt x="698" y="-183" on="0"/>
        <pt x="687" y="-183" on="1"/>
        <pt x="645" y="-183" on="0"/>
        <pt x="596" y="-137" on="0"/>
        <pt x="596" y="-110" on="1"/>
        <pt x="596" y="-40" on="0"/>
        <pt x="696" y="0" on="1"/>
      </contour>
      <contour>
        <pt x="147" y="0" on="1"/>
        <pt x="534" y="732" on="1"/>
        <pt x="594" y="732" on="1"/>
        <pt x="737" y="0" on="1"/>
        <pt x="679" y="0" on="1"/>
        <pt x="636" y="220" on="1"/>
        <pt x="327" y="220" on="1"/>
        <pt x="211" y="0" on="1"/>
      </contour>
      <contour>
        <pt x="358" y="278" on="1"/>
        <pt x="625" y="278" on="1"/>
        <pt x="554" y="655" on="1"/>
      </contour>
    </TTGlyph>
    <TTGlyph name="Aring" xMin="45" yMin="0" xMax="636" yMax="936">
      <contour>
        <pt x="533" y="935" on="0"/>
        <pt x="449" y="935" on="0"/>
        <pt x="377" y="870" on="0"/>
        <pt x="377" y="820" on="1"/>
        <pt x="377" y="785" on="0"/>
        <pt x="426" y="730" on="0"/>
        <pt x="511" y="730" on="0"/>
        <pt x="582" y="794" on="0"/>
        <pt x="582" y="845" on="1"/>
        <pt x="582" y="880" on="0"/>
      </contour>
      <contour>
        <pt x="445" y="767" on="0"/>
        <pt x="414" y="802" on="0"/>
        <pt x="414" y="856" on="0"/>
        <pt x="439" y="879" on="1"/>
        <pt x="461" y="898" on="0"/>
        <pt x="505" y="898" on="0"/>
        <pt x="519" y="889" on="1"/>
        <pt x="545" y="873" on="0"/>
        <pt x="545" y="809" on="0"/>
        <pt x="520" y="786" on="1"/>
        <pt x="499" y="767" on="0"/>
      </contour>
      <contour>
        <pt x="45" y="0" on="1"/>
        <pt x="432" y="732" on="1"/>
        <pt x="492" y="732" on="1"/>
        <pt x="635" y="0" on="1"/>
        <pt x="577" y="0" on="1"/>
        <pt x="534" y="220" on="1"/>
        <pt x="225" y="220" on="1"/>
        <pt x="109" y="0" on="1"/>
      </contour>
      <contour>
        <pt x="256" y="278" on="1"/>
        <pt x="523" y="278" on="1"/>
        <pt x="452" y="655" on="1"/>
      </contour>
    </TTGlyph>
    <TTGlyph name="Atilde" xMin="45" yMin="0" xMax="652" yMax="897">
      <contour>
        <pt x="558" y="850" on="0"/>
        <pt x="626" y="880" on="0"/>
        <pt x="640" y="890" on="1"/>
        <pt x="652" y="860" on="1"/>
        <pt x="646" y="855" on="0"/>
        <pt x="611" y="830" on="0"/>
        <pt x="594" y="819" on="0"/>
        <pt x="580" y="811" on="1"/>
        <pt x="531" y="784" on="0"/>
        <pt x="489" y="810" on="1"/>
        <pt x="469" y="822" on="0"/>
        <pt x="438" y="845" on="0"/>
        <pt x="424" y="845" on="0"/>
        <pt x="408" y="844" on="0"/>
        <pt x="379" y="836" on="0"/>
        <pt x="361" y="827" on="0"/>
        <pt x="327" y="808" on="0"/>
        <pt x="320" y="805" on="1"/>
        <pt x="309" y="835" on="1"/>
        <pt x="361" y="874" on="0"/>
        <pt x="414" y="897" on="0"/>
        <pt x="458" y="896" on="0"/>
        <pt x="492" y="873" on="1"/>
        <pt x="526" y="850" on="0"/>
      </contour>
      <contour>
        <pt x="45" y="0" on="1"/>
        <pt x="432" y="732" on="1"/>
        <pt x="492" y="732" on="1"/>
        <pt x="635" y="0" on="1"/>
        <pt x="577" y="0" on="1"/>
        <pt x="534" y="220" on="1"/>
        <pt x="225" y="220" on="1"/>
        <pt x="109" y="0" on="1"/>
      </contour>
      <contour>
        <pt x="256" y="278" on="1"/>
        <pt x="523" y="278" on="1"/>
        <pt x="452" y="655" on="1"/>
      </contour>
    </TTGlyph>
    <TTGlyph name="B" xMin="80" yMin="0" xMax="634" yMax="732">
      <contour>
        <pt x="469" y="732" on="1"/>
        <pt x="568" y="732" on="0"/>
        <pt x="609" y="673" on="1"/>
        <pt x="633" y="639" on="0"/>
        <pt x="633" y="578" on="1"/>
        <pt x="633" y="562" on="0"/>
        <pt x="630" y="545" on="1"/>
        <pt x="621" y="476" on="0"/>
        <pt x="548" y="392" on="0"/>
        <pt x="499" y="381" on="1"/>
        <pt x="532" y="375" on="0"/>
        <pt x="582" y="289" on="0"/>
        <pt x="582" y="238" on="1"/>
        <pt x="582" y="220" on="0"/>
        <pt x="579" y="200" on="1"/>
        <pt x="553" y="0" on="0"/>
        <pt x="353" y="0" on="1"/>
        <pt x="80" y="0" on="1"/>
        <pt x="196" y="732" on="1"/>
      </contour>
      <contour>
        <pt x="524" y="236" on="1"/>
        <pt x="524" y="279" on="0"/>
        <pt x="502" y="312" on="1"/>
        <pt x="472" y="355" on="0"/>
        <pt x="411" y="355" on="1"/>
        <pt x="410" y="355" on="0"/>
        <pt x="409" y="355" on="1"/>
        <pt x="194" y="355" on="1"/>
        <pt x="148" y="58" on="1"/>
        <pt x="362" y="58" on="1"/>
        <pt x="498" y="58" on="0"/>
        <pt x="522" y="205" on="1"/>
        <pt x="524" y="221" on="0"/>
      </contour>
      <contour>
        <pt x="419" y="412" on="1"/>
        <pt x="480" y="412" on="0"/>
        <pt x="561" y="482" on="0"/>
        <pt x="572" y="546" on="1"/>
        <pt x="576" y="569" on="0"/>
        <pt x="576" y="587" on="1"/>
        <pt x="576" y="628" on="0"/>
        <pt x="556" y="647" on="1"/>
        <pt x="527" y="674" on="0"/>
        <pt x="461" y="674" on="1"/>
        <pt x="245" y="674" on="1"/>
        <pt x="204" y="412" on="1"/>
      </contour>
    </TTGlyph>
    <TTGlyph name="C" xMin="105" yMin="-6" xMax="648" yMax="741">
      <contour>
        <pt x="327" y="729" on="1"/>
        <pt x="367" y="740" on="0"/>
        <pt x="501" y="740" on="0"/>
        <pt x="647" y="712" on="1"/>
        <pt x="640" y="668" on="1"/>
        <pt x="529" y="683" on="0"/>
        <pt x="429" y="683" on="1"/>
        <pt x="368" y="683" on="0"/>
        <pt x="312" y="664" on="0"/>
        <pt x="278" y="638" on="0"/>
        <pt x="240" y="591" on="0"/>
        <pt x="225" y="558" on="1"/>
        <pt x="192" y="484" on="0"/>
        <pt x="173" y="366" on="1"/>
        <pt x="163" y="304" on="0"/>
        <pt x="163" y="187" on="0"/>
        <pt x="181" y="139" on="1"/>
        <pt x="213" y="56" on="0"/>
        <pt x="306" y="52" on="1"/>
        <pt x="318" y="51" on="0"/>
        <pt x="408" y="51" on="0"/>
        <pt x="546" y="61" on="1"/>
        <pt x="540" y="17" on="1"/>
        <pt x="447" y="-6" on="0"/>
        <pt x="302" y="-6" on="1"/>
        <pt x="247" y="-6" on="0"/>
        <pt x="208" y="16" on="1"/>
        <pt x="105" y="72" on="0"/>
        <pt x="105" y="251" on="1"/>
        <pt x="105" y="349" on="0"/>
        <pt x="137" y="479" on="1"/>
        <pt x="164" y="588" on="0"/>
        <pt x="205" y="643" on="1"/>
        <pt x="255" y="709" on="0"/>
      </contour>
    </TTGlyph>
    <TTGlyph name="Cacute" xMin="105" yMin="-6" xMax="648" yMax="933">
      <contour>
        <pt x="413" y="800" on="1"/>
        <pt x="545" y="933" on="1"/>
        <pt x="618" y="933" on="1"/>
        <pt x="464" y="800" on="1"/>
      </contour>
      <contour>
        <pt x="303" y="723" on="0"/>
        <pt x="374" y="740" on="0"/>
        <pt x="501" y="740" on="0"/>
        <pt x="647" y="712" on="1"/>
        <pt x="640" y="668" on="1"/>
        <pt x="529" y="683" on="0"/>
        <pt x="429" y="683" on="1"/>
        <pt x="368" y="683" on="0"/>
        <pt x="312" y="664" on="0"/>
        <pt x="278" y="638" on="0"/>
        <pt x="240" y="591" on="0"/>
        <pt x="225" y="558" on="1"/>
        <pt x="192" y="484" on="0"/>
        <pt x="173" y="366" on="1"/>
        <pt x="163" y="304" on="0"/>
        <pt x="163" y="187" on="0"/>
        <pt x="181" y="139" on="1"/>
        <pt x="213" y="56" on="0"/>
        <pt x="306" y="52" on="1"/>
        <pt x="318" y="51" on="0"/>
        <pt x="408" y="51" on="0"/>
        <pt x="546" y="61" on="1"/>
        <pt x="540" y="17" on="1"/>
        <pt x="447" y="-6" on="0"/>
        <pt x="302" y="-6" on="1"/>
        <pt x="247" y="-6" on="0"/>
        <pt x="208" y="16" on="1"/>
        <pt x="105" y="72" on="0"/>
        <pt x="105" y="251" on="1"/>
        <pt x="105" y="340" on="0"/>
        <pt x="134" y="465" on="1"/>
        <pt x="155" y="559" on="0"/>
        <pt x="203" y="643" on="0"/>
        <pt x="248" y="692" on="0"/>
      </contour>
    </TTGlyph>
    <TTGlyph name="Ccaron" xMin="105" yMin="-6" xMax="648" yMax="930">
      <contour>
        <pt x="322" y="930" on="1"/>
        <pt x="371" y="930" on="1"/>
        <pt x="440" y="836" on="1"/>
        <pt x="548" y="930" on="1"/>
        <pt x="607" y="930" on="1"/>
        <pt x="464" y="800" on="1"/>
        <pt x="410" y="800" on="1"/>
      </contour>
      <contour>
        <pt x="303" y="723" on="0"/>
        <pt x="374" y="740" on="0"/>
        <pt x="501" y="740" on="0"/>
        <pt x="647" y="712" on="1"/>
        <pt x="640" y="668" on="1"/>
        <pt x="529" y="683" on="0"/>
        <pt x="429" y="683" on="1"/>
        <pt x="368" y="683" on="0"/>
        <pt x="312" y="664" on="0"/>
        <pt x="278" y="638" on="0"/>
        <pt x="240" y="591" on="0"/>
        <pt x="225" y="558" on="1"/>
        <pt x="192" y="484" on="0"/>
        <pt x="173" y="366" on="1"/>
        <pt x="163" y="304" on="0"/>
        <pt x="163" y="187" on="0"/>
        <pt x="181" y="139" on="1"/>
        <pt x="213" y="56" on="0"/>
        <pt x="306" y="52" on="1"/>
        <pt x="318" y="51" on="0"/>
        <pt x="408" y="51" on="0"/>
        <pt x="546" y="61" on="1"/>
        <pt x="540" y="17" on="1"/>
        <pt x="447" y="-6" on="0"/>
        <pt x="302" y="-6" on="1"/>
        <pt x="247" y="-6" on="0"/>
        <pt x="208" y="16" on="1"/>
        <pt x="105" y="72" on="0"/>
        <pt x="105" y="251" on="1"/>
        <pt x="105" y="340" on="0"/>
        <pt x="134" y="465" on="1"/>
        <pt x="155" y="559" on="0"/>
        <pt x="203" y="643" on="0"/>
        <pt x="248" y="692" on="0"/>
      </contour>
    </TTGlyph>
    <TTGlyph name="Ccedilla" xMin="105" yMin="-173" xMax="648" yMax="741">
      <contour>
        <pt x="429" y="740" on="1"/>
        <pt x="501" y="740" on="0"/>
        <pt x="647" y="712" on="1"/>
        <pt x="640" y="668" on="1"/>
        <pt x="529" y="683" on="0"/>
        <pt x="429" y="683" on="1"/>
        <pt x="368" y="683" on="0"/>
        <pt x="312" y="664" on="0"/>
        <pt x="279" y="638" on="0"/>
        <pt x="241" y="591" on="0"/>
        <pt x="226" y="558" on="1"/>
        <pt x="193" y="484" on="0"/>
        <pt x="165" y="301" on="0"/>
        <pt x="165" y="225" on="0"/>
        <pt x="166" y="204" on="1"/>
        <pt x="173" y="135" on="0"/>
        <pt x="243" y="54" on="0"/>
        <pt x="306" y="52" on="1"/>
        <pt x="318" y="51" on="0"/>
        <pt x="408" y="51" on="0"/>
        <pt x="546" y="61" on="1"/>
        <pt x="540" y="17" on="1"/>
        <pt x="447" y="-6" on="0"/>
        <pt x="302" y="-6" on="1"/>
        <pt x="247" y="-6" on="0"/>
        <pt x="208" y="16" on="1"/>
        <pt x="105" y="72" on="0"/>
        <pt x="105" y="251" on="1"/>
        <pt x="105" y="361" on="0"/>
        <pt x="142" y="499" on="1"/>
        <pt x="176" y="622" on="0"/>
        <pt x="235" y="678" on="1"/>
        <pt x="302" y="740" on="0"/>
      </contour>
      <contour>
        <pt x="235" y="-173" on="1"/>
        <pt x="191" y="-173" on="1"/>
        <pt x="195" y="-146" on="1"/>
        <pt x="243" y="-134" on="1"/>
        <pt x="271" y="-128" on="0"/>
        <pt x="300" y="-83" on="0"/>
        <pt x="307" y="-37" on="1"/>
        <pt x="358" y="-37" on="1"/>
        <pt x="345" y="-114" on="0"/>
        <pt x="295" y="-173" on="0"/>
      </contour>
    </TTGlyph>
    <TTGlyph name="Ccircumflex" xMin="105" yMin="-6" xMax="648" yMax="930">
      <contour>
        <pt x="297" y="800" on="1"/>
        <pt x="440" y="930" on="1"/>
        <pt x="494" y="930" on="1"/>
        <pt x="582" y="800" on="1"/>
        <pt x="533" y="800" on="1"/>
        <pt x="464" y="894" on="1"/>
        <pt x="356" y="800" on="1"/>
      </contour>
      <contour>
        <pt x="303" y="723" on="0"/>
        <pt x="374" y="740" on="0"/>
        <pt x="501" y="740" on="0"/>
        <pt x="647" y="712" on="1"/>
        <pt x="640" y="668" on="1"/>
        <pt x="529" y="683" on="0"/>
        <pt x="429" y="683" on="1"/>
        <pt x="368" y="683" on="0"/>
        <pt x="312" y="664" on="0"/>
        <pt x="278" y="638" on="0"/>
        <pt x="240" y="591" on="0"/>
        <pt x="225" y="558" on="1"/>
        <pt x="192" y="484" on="0"/>
        <pt x="173" y="366" on="1"/>
        <pt x="163" y="304" on="0"/>
        <pt x="163" y="187" on="0"/>
        <pt x="181" y="139" on="1"/>
        <pt x="213" y="56" on="0"/>
        <pt x="306" y="52" on="1"/>
        <pt x="318" y="51" on="0"/>
        <pt x="408" y="51" on="0"/>
        <pt x="546" y="61" on="1"/>
        <pt x="540" y="17" on="1"/>
        <pt x="447" y="-6" on="0"/>
        <pt x="302" y="-6" on="1"/>
        <pt x="247" y="-6" on="0"/>
        <pt x="208" y="16" on="1"/>
        <pt x="105" y="72" on="0"/>
        <pt x="105" y="251" on="1"/>
        <pt x="105" y="340" on="0"/>
        <pt x="134" y="465" on="1"/>
        <pt x="155" y="559" on="0"/>
        <pt x="203" y="643" on="0"/>
        <pt x="248" y="692" on="0"/>
      </contour>
    </TTGlyph>
    <TTGlyph name="Cdotaccent" xMin="105" yMin="-6" xMax="648" yMax="897">
      <contour>
        <pt x="420" y="897" on="1"/>
        <pt x="457" y="897" on="1"/>
        <pt x="476" y="897" on="0"/>
        <pt x="473" y="876" on="1"/>
        <pt x="464" y="819" on="1"/>
        <pt x="461" y="800" on="0"/>
        <pt x="442" y="800" on="1"/>
        <pt x="405" y="800" on="1"/>
        <pt x="396" y="800" on="0"/>
        <pt x="386" y="811" on="0"/>
        <pt x="387" y="819" on="1"/>
        <pt x="397" y="876" on="1"/>
        <pt x="399" y="897" on="0"/>
      </contour>
      <contour>
        <pt x="303" y="723" on="0"/>
        <pt x="374" y="740" on="0"/>
        <pt x="501" y="740" on="0"/>
        <pt x="647" y="712" on="1"/>
        <pt x="640" y="668" on="1"/>
        <pt x="529" y="683" on="0"/>
        <pt x="429" y="683" on="1"/>
        <pt x="368" y="683" on="0"/>
        <pt x="312" y="664" on="0"/>
        <pt x="278" y="638" on="0"/>
        <pt x="240" y="591" on="0"/>
        <pt x="225" y="558" on="1"/>
        <pt x="192" y="484" on="0"/>
        <pt x="173" y="366" on="1"/>
        <pt x="163" y="304" on="0"/>
        <pt x="163" y="187" on="0"/>
        <pt x="181" y="139" on="1"/>
        <pt x="213" y="56" on="0"/>
        <pt x="306" y="52" on="1"/>
        <pt x="318" y="51" on="0"/>
        <pt x="408" y="51" on="0"/>
        <pt x="546" y="61" on="1"/>
        <pt x="540" y="17" on="1"/>
        <pt x="447" y="-6" on="0"/>
        <pt x="302" y="-6" on="1"/>
        <pt x="247" y="-6" on="0"/>
        <pt x="208" y="16" on="1"/>
        <pt x="105" y="72" on="0"/>
        <pt x="105" y="251" on="1"/>
        <pt x="105" y="340" on="0"/>
        <pt x="134" y="465" on="1"/>
        <pt x="155" y="559" on="0"/>
        <pt x="203" y="643" on="0"/>
        <pt x="248" y="692" on="0"/>
      </contour>
    </TTGlyph>
    <TTGlyph name="D" xMin="80" yMin="0" xMax="674" yMax="733">
      <contour>
        <pt x="462" y="732" on="1"/>
        <pt x="516" y="732" on="0"/>
        <pt x="597" y="696" on="0"/>
        <pt x="620" y="664" on="1"/>
        <pt x="668" y="598" on="0"/>
        <pt x="672" y="515" on="1"/>
        <pt x="674" y="491" on="0"/>
        <pt x="674" y="471" on="1"/>
        <pt x="674" y="415" on="0"/>
        <pt x="664" y="360" on="1"/>
        <pt x="600" y="0" on="0"/>
        <pt x="348" y="0" on="1"/>
        <pt x="80" y="0" on="1"/>
        <pt x="196" y="731" on="1"/>
        <pt x="196" y="732" on="0"/>
      </contour>
      <contour>
        <pt x="617" y="477" on="1"/>
        <pt x="617" y="675" on="0"/>
        <pt x="452" y="675" on="1"/>
        <pt x="244" y="675" on="1"/>
        <pt x="147" y="60" on="1"/>
        <pt x="356" y="60" on="1"/>
        <pt x="478" y="60" on="0"/>
        <pt x="550" y="193" on="1"/>
        <pt x="591" y="267" on="0"/>
        <pt x="617" y="427" on="0"/>
      </contour>
    </TTGlyph>
    <TTGlyph name="Dcaron" xMin="90" yMin="0" xMax="685" yMax="924">
      <contour>
        <pt x="336" y="924" on="1"/>
        <pt x="385" y="924" on="1"/>
        <pt x="454" y="830" on="1"/>
        <pt x="562" y="924" on="1"/>
        <pt x="621" y="924" on="1"/>
        <pt x="478" y="794" on="1"/>
        <pt x="424" y="794" on="1"/>
      </contour>
      <contour>
        <pt x="473" y="732" on="1"/>
        <pt x="527" y="732" on="0"/>
        <pt x="608" y="696" on="0"/>
        <pt x="631" y="664" on="1"/>
        <pt x="678" y="598" on="0"/>
        <pt x="683" y="515" on="1"/>
        <pt x="684" y="491" on="0"/>
        <pt x="684" y="471" on="1"/>
        <pt x="684" y="415" on="0"/>
        <pt x="674" y="360" on="1"/>
        <pt x="610" y="0" on="0"/>
        <pt x="359" y="0" on="1"/>
        <pt x="91" y="0" on="1"/>
        <pt x="207" y="731" on="1"/>
        <pt x="207" y="732" on="0"/>
      </contour>
      <contour>
        <pt x="627" y="477" on="1"/>
        <pt x="627" y="674" on="0"/>
        <pt x="463" y="674" on="1"/>
        <pt x="255" y="674" on="1"/>
        <pt x="158" y="60" on="1"/>
        <pt x="367" y="60" on="1"/>
        <pt x="420" y="60" on="0"/>
        <pt x="509" y="112" on="0"/>
        <pt x="539" y="156" on="1"/>
        <pt x="598" y="244" on="0"/>
        <pt x="617" y="364" on="1"/>
        <pt x="627" y="427" on="0"/>
      </contour>
    </TTGlyph>
    <TTGlyph name="Dcroat" xMin="86" yMin="0" xMax="690" yMax="732">
      <contour>
        <pt x="477" y="732" on="1"/>
        <pt x="532" y="732" on="0"/>
        <pt x="613" y="696" on="0"/>
        <pt x="636" y="664" on="1"/>
        <pt x="683" y="598" on="0"/>
        <pt x="689" y="515" on="1"/>
        <pt x="690" y="491" on="0"/>
        <pt x="690" y="471" on="1"/>
        <pt x="690" y="342" on="0"/>
        <pt x="641" y="217" on="1"/>
        <pt x="557" y="0" on="0"/>
        <pt x="364" y="0" on="1"/>
        <pt x="95" y="0" on="1"/>
        <pt x="151" y="353" on="1"/>
        <pt x="86" y="353" on="1"/>
        <pt x="93" y="393" on="1"/>
        <pt x="158" y="393" on="1"/>
        <pt x="211" y="731" on="1"/>
        <pt x="211" y="732" on="0"/>
      </contour>
      <contour>
        <pt x="632" y="477" on="1"/>
        <pt x="632" y="674" on="0"/>
        <pt x="468" y="674" on="1"/>
        <pt x="260" y="674" on="1"/>
        <pt x="216" y="393" on="1"/>
        <pt x="361" y="393" on="1"/>
        <pt x="354" y="353" on="1"/>
        <pt x="209" y="353" on="1"/>
        <pt x="162" y="60" on="1"/>
        <pt x="372" y="60" on="1"/>
        <pt x="425" y="60" on="0"/>
        <pt x="513" y="112" on="0"/>
        <pt x="543" y="156" on="1"/>
        <pt x="602" y="244" on="0"/>
        <pt x="622" y="364" on="1"/>
        <pt x="632" y="427" on="0"/>
      </contour>
    </TTGlyph>
    <TTGlyph name="E" xMin="95" yMin="-4" xMax="629" yMax="733">
      <contour>
        <pt x="311" y="732" on="1"/>
        <pt x="316" y="732" on="0"/>
        <pt x="321" y="732" on="1"/>
        <pt x="629" y="718" on="1"/>
        <pt x="622" y="675" on="1"/>
        <pt x="312" y="675" on="1"/>
        <pt x="243" y="675" on="0"/>
        <pt x="232" y="602" on="1"/>
        <pt x="198" y="393" on="1"/>
        <pt x="536" y="385" on="1"/>
        <pt x="529" y="341" on="1"/>
        <pt x="189" y="332" on="1"/>
        <pt x="156" y="123" on="1"/>
        <pt x="154" y="112" on="0"/>
        <pt x="154" y="93" on="0"/>
        <pt x="160" y="70" on="0"/>
        <pt x="173" y="64" on="1"/>
        <pt x="191" y="55" on="0"/>
        <pt x="224" y="55" on="1"/>
        <pt x="524" y="55" on="1"/>
        <pt x="517" y="12" on="1"/>
        <pt x="214" y="-3" on="1"/>
        <pt x="209" y="-3" on="0"/>
        <pt x="204" y="-3" on="1"/>
        <pt x="154" y="-3" on="0"/>
        <pt x="95" y="48" on="0"/>
        <pt x="95" y="94" on="1"/>
        <pt x="95" y="108" on="0"/>
        <pt x="98" y="125" on="1"/>
        <pt x="174" y="604" on="1"/>
        <pt x="195" y="732" on="0"/>
      </contour>
    </TTGlyph>
    <TTGlyph name="Eacute" xMin="95" yMin="-4" xMax="629" yMax="925">
      <contour>
        <pt x="401" y="792" on="1"/>
        <pt x="534" y="925" on="1"/>
        <pt x="606" y="925" on="1"/>
        <pt x="452" y="792" on="1"/>
      </contour>
      <contour>
        <pt x="311" y="732" on="1"/>
        <pt x="316" y="732" on="0"/>
        <pt x="321" y="732" on="1"/>
        <pt x="629" y="718" on="1"/>
        <pt x="622" y="674" on="1"/>
        <pt x="312" y="674" on="1"/>
        <pt x="243" y="674" on="0"/>
        <pt x="232" y="602" on="1"/>
        <pt x="198" y="393" on="1"/>
        <pt x="536" y="385" on="1"/>
        <pt x="529" y="341" on="1"/>
        <pt x="189" y="332" on="1"/>
        <pt x="156" y="123" on="1"/>
        <pt x="154" y="112" on="0"/>
        <pt x="154" y="93" on="0"/>
        <pt x="160" y="70" on="0"/>
        <pt x="173" y="64" on="1"/>
        <pt x="191" y="54" on="0"/>
        <pt x="224" y="54" on="1"/>
        <pt x="524" y="54" on="1"/>
        <pt x="517" y="12" on="1"/>
        <pt x="214" y="-3" on="1"/>
        <pt x="209" y="-3" on="0"/>
        <pt x="204" y="-3" on="1"/>
        <pt x="154" y="-3" on="0"/>
        <pt x="95" y="48" on="0"/>
        <pt x="95" y="94" on="1"/>
        <pt x="95" y="108" on="0"/>
        <pt x="98" y="125" on="1"/>
        <pt x="174" y="604" on="1"/>
        <pt x="195" y="732" on="0"/>
      </contour>
    </TTGlyph>
    <TTGlyph name="Ecaron" xMin="95" yMin="-4" xMax="629" yMax="927">
      <contour>
        <pt x="323" y="927" on="1"/>
        <pt x="372" y="927" on="1"/>
        <pt x="441" y="833" on="1"/>
        <pt x="549" y="927" on="1"/>
        <pt x="608" y="927" on="1"/>
        <pt x="465" y="797" on="1"/>
        <pt x="411" y="797" on="1"/>
      </contour>
      <contour>
        <pt x="311" y="732" on="1"/>
        <pt x="316" y="732" on="0"/>
        <pt x="321" y="732" on="1"/>
        <pt x="629" y="718" on="1"/>
        <pt x="622" y="674" on="1"/>
        <pt x="312" y="674" on="1"/>
        <pt x="243" y="674" on="0"/>
        <pt x="232" y="602" on="1"/>
        <pt x="198" y="393" on="1"/>
        <pt x="536" y="385" on="1"/>
        <pt x="529" y="341" on="1"/>
        <pt x="189" y="332" on="1"/>
        <pt x="156" y="123" on="1"/>
        <pt x="154" y="112" on="0"/>
        <pt x="154" y="93" on="0"/>
        <pt x="160" y="70" on="0"/>
        <pt x="173" y="64" on="1"/>
        <pt x="191" y="54" on="0"/>
        <pt x="224" y="54" on="1"/>
        <pt x="524" y="54" on="1"/>
        <pt x="517" y="12" on="1"/>
        <pt x="214" y="-3" on="1"/>
        <pt x="209" y="-3" on="0"/>
        <pt x="204" y="-3" on="1"/>
        <pt x="154" y="-3" on="0"/>
        <pt x="95" y="48" on="0"/>
        <pt x="95" y="94" on="1"/>
        <pt x="95" y="108" on="0"/>
        <pt x="98" y="125" on="1"/>
        <pt x="174" y="604" on="1"/>
        <pt x="195" y="732" on="0"/>
      </contour>
    </TTGlyph>
    <TTGlyph name="Ecircumflex" xMin="95" yMin="-4" xMax="629" yMax="923">
      <contour>
        <pt x="288" y="792" on="1"/>
        <pt x="431" y="923" on="1"/>
        <pt x="485" y="923" on="1"/>
        <pt x="573" y="792" on="1"/>
        <pt x="522" y="792" on="1"/>
        <pt x="456" y="884" on="1"/>
        <pt x="350" y="792" on="1"/>
      </contour>
      <contour>
        <pt x="311" y="732" on="1"/>
        <pt x="316" y="732" on="0"/>
        <pt x="321" y="732" on="1"/>
        <pt x="629" y="718" on="1"/>
        <pt x="622" y="674" on="1"/>
        <pt x="312" y="674" on="1"/>
        <pt x="243" y="674" on="0"/>
        <pt x="232" y="602" on="1"/>
        <pt x="198" y="393" on="1"/>
        <pt x="536" y="385" on="1"/>
        <pt x="529" y="341" on="1"/>
        <pt x="189" y="332" on="1"/>
        <pt x="156" y="123" on="1"/>
        <pt x="154" y="112" on="0"/>
        <pt x="154" y="93" on="0"/>
        <pt x="160" y="70" on="0"/>
        <pt x="173" y="64" on="1"/>
        <pt x="191" y="54" on="0"/>
        <pt x="224" y="54" on="1"/>
        <pt x="524" y="54" on="1"/>
        <pt x="517" y="12" on="1"/>
        <pt x="214" y="-3" on="1"/>
        <pt x="209" y="-3" on="0"/>
        <pt x="204" y="-3" on="1"/>
        <pt x="154" y="-3" on="0"/>
        <pt x="95" y="48" on="0"/>
        <pt x="95" y="94" on="1"/>
        <pt x="95" y="108" on="0"/>
        <pt x="98" y="125" on="1"/>
        <pt x="174" y="604" on="1"/>
        <pt x="195" y="732" on="0"/>
      </contour>
    </TTGlyph>
    <TTGlyph name="Edieresis" xMin="95" yMin="-4" xMax="629" yMax="883">
      <contour>
        <pt x="286" y="876" on="0"/>
        <pt x="302" y="882" on="0"/>
        <pt x="321" y="882" on="0"/>
        <pt x="329" y="877" on="1"/>
        <pt x="346" y="866" on="0"/>
        <pt x="340" y="826" on="0"/>
        <pt x="314" y="803" on="0"/>
        <pt x="281" y="803" on="0"/>
        <pt x="261" y="826" on="0"/>
        <pt x="265" y="851" on="0"/>
        <pt x="274" y="866" on="0"/>
      </contour>
      <contour>
        <pt x="554" y="882" on="0"/>
        <pt x="576" y="882" on="0"/>
        <pt x="584" y="877" on="1"/>
        <pt x="601" y="866" on="0"/>
        <pt x="595" y="826" on="0"/>
        <pt x="569" y="803" on="0"/>
        <pt x="536" y="803" on="0"/>
        <pt x="516" y="826" on="0"/>
        <pt x="520" y="854" on="0"/>
        <pt x="534" y="872" on="0"/>
      </contour>
      <contour>
        <pt x="311" y="732" on="1"/>
        <pt x="316" y="732" on="0"/>
        <pt x="321" y="732" on="1"/>
        <pt x="629" y="718" on="1"/>
        <pt x="622" y="674" on="1"/>
        <pt x="312" y="674" on="1"/>
        <pt x="243" y="674" on="0"/>
        <pt x="232" y="602" on="1"/>
        <pt x="198" y="393" on="1"/>
        <pt x="536" y="385" on="1"/>
        <pt x="529" y="341" on="1"/>
        <pt x="189" y="332" on="1"/>
        <pt x="156" y="123" on="1"/>
        <pt x="154" y="112" on="0"/>
        <pt x="154" y="93" on="0"/>
        <pt x="160" y="70" on="0"/>
        <pt x="173" y="64" on="1"/>
        <pt x="191" y="54" on="0"/>
        <pt x="224" y="54" on="1"/>
        <pt x="524" y="54" on="1"/>
        <pt x="517" y="12" on="1"/>
        <pt x="214" y="-3" on="1"/>
        <pt x="209" y="-3" on="0"/>
        <pt x="204" y="-3" on="1"/>
        <pt x="154" y="-3" on="0"/>
        <pt x="95" y="48" on="0"/>
        <pt x="95" y="94" on="1"/>
        <pt x="95" y="108" on="0"/>
        <pt x="98" y="125" on="1"/>
        <pt x="174" y="604" on="1"/>
        <pt x="195" y="732" on="0"/>
      </contour>
    </TTGlyph>
    <TTGlyph name="Edotaccent" xMin="95" yMin="-4" xMax="629" yMax="894">
      <contour>
        <pt x="430" y="894" on="1"/>
        <pt x="467" y="894" on="1"/>
        <pt x="486" y="894" on="0"/>
        <pt x="483" y="873" on="1"/>
        <pt x="474" y="816" on="1"/>
        <pt x="471" y="797" on="0"/>
        <pt x="452" y="797" on="1"/>
        <pt x="415" y="797" on="1"/>
        <pt x="406" y="797" on="0"/>
        <pt x="396" y="808" on="0"/>
        <pt x="397" y="816" on="1"/>
        <pt x="407" y="873" on="1"/>
        <pt x="410" y="894" on="0"/>
      </contour>
      <contour>
        <pt x="311" y="732" on="1"/>
        <pt x="316" y="732" on="0"/>
        <pt x="321" y="732" on="1"/>
        <pt x="629" y="718" on="1"/>
        <pt x="622" y="674" on="1"/>
        <pt x="312" y="674" on="1"/>
        <pt x="243" y="674" on="0"/>
        <pt x="232" y="602" on="1"/>
        <pt x="198" y="393" on="1"/>
        <pt x="536" y="385" on="1"/>
        <pt x="529" y="341" on="1"/>
        <pt x="189" y="332" on="1"/>
        <pt x="156" y="123" on="1"/>
        <pt x="154" y="112" on="0"/>
        <pt x="154" y="93" on="0"/>
        <pt x="160" y="70" on="0"/>
        <pt x="173" y="64" on="1"/>
        <pt x="191" y="54" on="0"/>
        <pt x="224" y="54" on="1"/>
        <pt x="524" y="54" on="1"/>
        <pt x="517" y="12" on="1"/>
        <pt x="214" y="-3" on="1"/>
        <pt x="209" y="-3" on="0"/>
        <pt x="204" y="-3" on="1"/>
        <pt x="154" y="-3" on="0"/>
        <pt x="95" y="48" on="0"/>
        <pt x="95" y="94" on="1"/>
        <pt x="95" y="108" on="0"/>
        <pt x="98" y="125" on="1"/>
        <pt x="174" y="604" on="1"/>
        <pt x="195" y="732" on="0"/>
      </contour>
    </TTGlyph>
    <TTGlyph name="Egrave" xMin="95" yMin="-4" xMax="629" yMax="925">
      <contour>
        <pt x="289" y="925" on="1"/>
        <pt x="356" y="925" on="1"/>
        <pt x="460" y="792" on="1"/>
        <pt x="409" y="792" on="1"/>
      </contour>
      <contour>
        <pt x="311" y="732" on="1"/>
        <pt x="316" y="732" on="0"/>
        <pt x="321" y="732" on="1"/>
        <pt x="629" y="718" on="1"/>
        <pt x="622" y="674" on="1"/>
        <pt x="312" y="674" on="1"/>
        <pt x="243" y="674" on="0"/>
        <pt x="232" y="602" on="1"/>
        <pt x="198" y="393" on="1"/>
        <pt x="536" y="385" on="1"/>
        <pt x="529" y="341" on="1"/>
        <pt x="189" y="332" on="1"/>
        <pt x="156" y="123" on="1"/>
        <pt x="154" y="112" on="0"/>
        <pt x="154" y="93" on="0"/>
        <pt x="160" y="70" on="0"/>
        <pt x="173" y="64" on="1"/>
        <pt x="191" y="54" on="0"/>
        <pt x="224" y="54" on="1"/>
        <pt x="524" y="54" on="1"/>
        <pt x="517" y="12" on="1"/>
        <pt x="214" y="-3" on="1"/>
        <pt x="209" y="-3" on="0"/>
        <pt x="204" y="-3" on="1"/>
        <pt x="154" y="-3" on="0"/>
        <pt x="95" y="48" on="0"/>
        <pt x="95" y="94" on="1"/>
        <pt x="95" y="108" on="0"/>
        <pt x="98" y="125" on="1"/>
        <pt x="174" y="604" on="1"/>
        <pt x="195" y="732" on="0"/>
      </contour>
    </TTGlyph>
    <TTGlyph name="Emacron" xMin="95" yMin="-4" xMax="629" yMax="841">
      <contour>
        <pt x="286" y="794" on="1"/>
        <pt x="293" y="841" on="1"/>
        <pt x="572" y="841" on="1"/>
        <pt x="565" y="794" on="1"/>
      </contour>
      <contour>
        <pt x="311" y="732" on="1"/>
        <pt x="316" y="732" on="0"/>
        <pt x="321" y="732" on="1"/>
        <pt x="629" y="718" on="1"/>
        <pt x="622" y="674" on="1"/>
        <pt x="312" y="674" on="1"/>
        <pt x="243" y="674" on="0"/>
        <pt x="232" y="602" on="1"/>
        <pt x="198" y="393" on="1"/>
        <pt x="536" y="385" on="1"/>
        <pt x="529" y="341" on="1"/>
        <pt x="189" y="332" on="1"/>
        <pt x="156" y="123" on="1"/>
        <pt x="154" y="112" on="0"/>
        <pt x="154" y="93" on="0"/>
        <pt x="160" y="70" on="0"/>
        <pt x="173" y="64" on="1"/>
        <pt x="191" y="54" on="0"/>
        <pt x="224" y="54" on="1"/>
        <pt x="524" y="54" on="1"/>
        <pt x="517" y="12" on="1"/>
        <pt x="214" y="-3" on="1"/>
        <pt x="209" y="-3" on="0"/>
        <pt x="204" y="-3" on="1"/>
        <pt x="154" y="-3" on="0"/>
        <pt x="95" y="48" on="0"/>
        <pt x="95" y="94" on="1"/>
        <pt x="95" y="108" on="0"/>
        <pt x="98" y="125" on="1"/>
        <pt x="174" y="604" on="1"/>
        <pt x="195" y="732" on="0"/>
      </contour>
    </TTGlyph>
    <TTGlyph name="Eng" xMin="80" yMin="-257" xMax="699" yMax="733">
      <contour>
        <pt x="80" y="0" on="1"/>
        <pt x="196" y="732" on="1"/>
        <pt x="252" y="732" on="1"/>
        <pt x="542" y="108" on="1"/>
        <pt x="641" y="732" on="1"/>
        <pt x="698" y="732" on="1"/>
        <pt x="570" y="-84" on="1"/>
        <pt x="550" y="-209" on="0"/>
        <pt x="467" y="-240" on="1"/>
        <pt x="421" y="-257" on="0"/>
        <pt x="344" y="-257" on="1"/>
        <pt x="351" y="-213" on="1"/>
        <pt x="360" y="-211" on="0"/>
        <pt x="394" y="-205" on="0"/>
        <pt x="412" y="-202" on="0"/>
        <pt x="442" y="-193" on="0"/>
        <pt x="460" y="-182" on="0"/>
        <pt x="482" y="-162" on="0"/>
        <pt x="489" y="-149" on="1"/>
        <pt x="506" y="-118" on="0"/>
        <pt x="513" y="-75" on="1"/>
        <pt x="526" y="4" on="1"/>
        <pt x="237" y="624" on="1"/>
        <pt x="138" y="0" on="1"/>
      </contour>
    </TTGlyph>
    <TTGlyph name="Eogonek" xMin="98" yMin="-171" xMax="633" yMax="733">
      <contour>
        <pt x="520" y="12" on="1"/>
        <pt x="440" y="-36" on="0"/>
        <pt x="440" y="-85" on="1"/>
        <pt x="440" y="-125" on="0"/>
        <pt x="505" y="-125" on="1"/>
        <pt x="508" y="-125" on="0"/>
        <pt x="511" y="-125" on="1"/>
        <pt x="504" y="-169" on="1"/>
        <pt x="492" y="-171" on="0"/>
        <pt x="482" y="-171" on="1"/>
        <pt x="439" y="-171" on="0"/>
        <pt x="390" y="-125" on="0"/>
        <pt x="390" y="-98" on="1"/>
        <pt x="390" y="-29" on="0"/>
        <pt x="490" y="12" on="1"/>
      </contour>
      <contour>
        <pt x="314" y="732" on="1"/>
        <pt x="319" y="732" on="0"/>
        <pt x="324" y="732" on="1"/>
        <pt x="632" y="718" on="1"/>
        <pt x="625" y="674" on="1"/>
        <pt x="315" y="674" on="1"/>
        <pt x="246" y="674" on="0"/>
        <pt x="235" y="602" on="1"/>
        <pt x="202" y="393" on="1"/>
        <pt x="539" y="385" on="1"/>
        <pt x="532" y="341" on="1"/>
        <pt x="192" y="332" on="1"/>
        <pt x="159" y="123" on="1"/>
        <pt x="155" y="109" on="0"/>
        <pt x="160" y="88" on="0"/>
        <pt x="163" y="73" on="0"/>
        <pt x="177" y="64" on="0"/>
        <pt x="186" y="58" on="0"/>
        <pt x="196" y="57" on="1"/>
        <pt x="209" y="54" on="0"/>
        <pt x="227" y="54" on="1"/>
        <pt x="528" y="54" on="1"/>
        <pt x="520" y="12" on="1"/>
        <pt x="217" y="-3" on="1"/>
        <pt x="212" y="-3" on="0"/>
        <pt x="208" y="-3" on="1"/>
        <pt x="158" y="-3" on="0"/>
        <pt x="99" y="48" on="0"/>
        <pt x="99" y="94" on="1"/>
        <pt x="99" y="108" on="0"/>
        <pt x="101" y="125" on="1"/>
        <pt x="177" y="604" on="1"/>
        <pt x="198" y="732" on="0"/>
      </contour>
    </TTGlyph>
    <TTGlyph name="Eth" xMin="69" yMin="0" xMax="674" yMax="733">
      <contour>
        <pt x="461" y="732" on="1"/>
        <pt x="515" y="732" on="0"/>
        <pt x="597" y="696" on="0"/>
        <pt x="619" y="664" on="1"/>
        <pt x="667" y="598" on="0"/>
        <pt x="672" y="515" on="1"/>
        <pt x="674" y="491" on="0"/>
        <pt x="674" y="471" on="1"/>
        <pt x="674" y="342" on="0"/>
        <pt x="625" y="217" on="1"/>
        <pt x="541" y="0" on="0"/>
        <pt x="347" y="0" on="1"/>
        <pt x="79" y="0" on="1"/>
        <pt x="135" y="353" on="1"/>
        <pt x="70" y="353" on="1"/>
        <pt x="77" y="393" on="1"/>
        <pt x="142" y="393" on="1"/>
        <pt x="195" y="731" on="1"/>
        <pt x="195" y="732" on="0"/>
      </contour>
      <contour>
        <pt x="616" y="477" on="1"/>
        <pt x="616" y="675" on="0"/>
        <pt x="451" y="675" on="1"/>
        <pt x="243" y="675" on="1"/>
        <pt x="199" y="393" on="1"/>
        <pt x="345" y="393" on="1"/>
        <pt x="338" y="353" on="1"/>
        <pt x="192" y="353" on="1"/>
        <pt x="146" y="60" on="1"/>
        <pt x="355" y="60" on="1"/>
        <pt x="477" y="60" on="0"/>
        <pt x="549" y="193" on="1"/>
        <pt x="590" y="267" on="0"/>
        <pt x="616" y="427" on="0"/>
      </contour>
    </TTGlyph>
    <TTGlyph name="Euro" xMin="70" yMin="-6" xMax="699" yMax="741">
      <contour>
        <pt x="692" y="669" on="1"/>
        <pt x="545" y="683" on="0"/>
        <pt x="461" y="683" on="0"/>
        <pt x="460" y="682" on="1"/>
        <pt x="330" y="682" on="0"/>
        <pt x="284" y="588" on="1"/>
        <pt x="261" y="541" on="0"/>
        <pt x="248" y="463" on="1"/>
        <pt x="497" y="458" on="1"/>
        <pt x="492" y="422" on="1"/>
        <pt x="240" y="417" on="1"/>
        <pt x="223" y="302" on="1"/>
        <pt x="471" y="296" on="1"/>
        <pt x="466" y="260" on="1"/>
        <pt x="318" y="258" on="0"/>
        <pt x="250" y="256" on="1"/>
        <pt x="214" y="255" on="1"/>
        <pt x="209" y="222" on="0"/>
        <pt x="209" y="194" on="1"/>
        <pt x="209" y="53" on="0"/>
        <pt x="359" y="52" on="1"/>
        <pt x="363" y="51" on="0"/>
        <pt x="387" y="51" on="1"/>
        <pt x="456" y="51" on="0"/>
        <pt x="562" y="63" on="1"/>
        <pt x="600" y="67" on="1"/>
        <pt x="593" y="24" on="1"/>
        <pt x="475" y="-6" on="0"/>
        <pt x="352" y="-6" on="1"/>
        <pt x="289" y="-6" on="0"/>
        <pt x="247" y="16" on="1"/>
        <pt x="201" y="39" on="0"/>
        <pt x="183" y="71" on="1"/>
        <pt x="152" y="123" on="0"/>
        <pt x="152" y="210" on="0"/>
        <pt x="157" y="255" on="1"/>
        <pt x="70" y="261" on="1"/>
        <pt x="75" y="297" on="1"/>
        <pt x="165" y="302" on="1"/>
        <pt x="183" y="417" on="1"/>
        <pt x="96" y="423" on="1"/>
        <pt x="101" y="456" on="1"/>
        <pt x="190" y="463" on="1"/>
        <pt x="190" y="466" on="0"/>
        <pt x="195" y="495" on="0"/>
        <pt x="200" y="526" on="0"/>
        <pt x="219" y="588" on="0"/>
        <pt x="242" y="631" on="0"/>
        <pt x="285" y="684" on="0"/>
        <pt x="312" y="701" on="1"/>
        <pt x="376" y="740" on="0"/>
        <pt x="468" y="740" on="1"/>
        <pt x="506" y="740" on="0"/>
        <pt x="646" y="723" on="0"/>
        <pt x="699" y="713" on="1"/>
      </contour>
    </TTGlyph>
    <TTGlyph name="Euro.smcp" xMin="47" yMin="-5" xMax="558" yMax="577">
      <contour>
        <pt x="261" y="558" on="0"/>
        <pt x="327" y="577" on="0"/>
        <pt x="436" y="577" on="0"/>
        <pt x="558" y="554" on="1"/>
        <pt x="551" y="508" on="1"/>
        <pt x="422" y="520" on="0"/>
        <pt x="332" y="520" on="0"/>
        <pt x="289" y="508" on="0"/>
        <pt x="259" y="490" on="0"/>
        <pt x="234" y="462" on="0"/>
        <pt x="219" y="436" on="0"/>
        <pt x="213" y="419" on="1"/>
        <pt x="204" y="393" on="0"/>
        <pt x="199" y="361" on="1"/>
        <pt x="383" y="355" on="1"/>
        <pt x="377" y="321" on="1"/>
        <pt x="192" y="316" on="1"/>
        <pt x="181" y="245" on="1"/>
        <pt x="365" y="240" on="1"/>
        <pt x="359" y="205" on="1"/>
        <pt x="171" y="201" on="0"/>
        <pt x="173" y="199" on="1"/>
        <pt x="169" y="175" on="0"/>
        <pt x="169" y="156" on="1"/>
        <pt x="169" y="53" on="0"/>
        <pt x="280" y="53" on="1"/>
        <pt x="353" y="53" on="0"/>
        <pt x="451" y="64" on="1"/>
        <pt x="484" y="68" on="1"/>
        <pt x="476" y="23" on="1"/>
        <pt x="374" y="-5" on="0"/>
        <pt x="275" y="-5" on="1"/>
        <pt x="231" y="-5" on="0"/>
        <pt x="170" y="19" on="0"/>
        <pt x="155" y="34" on="1"/>
        <pt x="111" y="76" on="0"/>
        <pt x="111" y="145" on="1"/>
        <pt x="111" y="169" on="0"/>
        <pt x="115" y="199" on="1"/>
        <pt x="47" y="205" on="1"/>
        <pt x="52" y="239" on="1"/>
        <pt x="122" y="245" on="1"/>
        <pt x="133" y="316" on="1"/>
        <pt x="66" y="322" on="1"/>
        <pt x="70" y="354" on="1"/>
        <pt x="140" y="361" on="1"/>
        <pt x="151" y="432" on="0"/>
        <pt x="182" y="487" on="0"/>
        <pt x="217" y="531" on="0"/>
      </contour>
    </TTGlyph>
    <TTGlyph name="F" xMin="80" yMin="0" xMax="630" yMax="733">
      <contour>
        <pt x="312" y="732" on="1"/>
        <pt x="317" y="732" on="0"/>
        <pt x="322" y="732" on="1"/>
        <pt x="630" y="718" on="1"/>
        <pt x="623" y="674" on="1"/>
        <pt x="312" y="674" on="1"/>
        <pt x="274" y="674" on="0"/>
        <pt x="238" y="637" on="0"/>
        <pt x="233" y="602" on="1"/>
        <pt x="200" y="393" on="1"/>
        <pt x="537" y="385" on="1"/>
        <pt x="530" y="341" on="1"/>
        <pt x="190" y="332" on="1"/>
        <pt x="138" y="0" on="1"/>
        <pt x="80" y="0" on="1"/>
        <pt x="175" y="601" on="1"/>
        <pt x="196" y="732" on="0"/>
      </contour>
    </TTGlyph>
    <TTGlyph name="G" xMin="107" yMin="-7" xMax="650" yMax="740">
      <contour>
        <pt x="168" y="236" on="1"/>
        <pt x="168" y="51" on="0"/>
        <pt x="305" y="51" on="1"/>
        <pt x="306" y="51" on="0"/>
        <pt x="341" y="51" on="0"/>
        <pt x="446" y="78" on="0"/>
        <pt x="482" y="91" on="1"/>
        <pt x="517" y="105" on="1"/>
        <pt x="555" y="330" on="1"/>
        <pt x="371" y="330" on="1"/>
        <pt x="378" y="369" on="1"/>
        <pt x="456" y="389" on="0"/>
        <pt x="554" y="389" on="1"/>
        <pt x="585" y="389" on="0"/>
        <pt x="621" y="386" on="1"/>
        <pt x="560" y="0" on="1"/>
        <pt x="518" y="0" on="1"/>
        <pt x="511" y="56" on="1"/>
        <pt x="483" y="35" on="0"/>
        <pt x="356" y="-6" on="0"/>
        <pt x="244" y="-6" on="0"/>
        <pt x="165" y="38" on="0"/>
        <pt x="144" y="73" on="1"/>
        <pt x="108" y="136" on="0"/>
        <pt x="108" y="242" on="1"/>
        <pt x="108" y="352" on="0"/>
        <pt x="145" y="495" on="1"/>
        <pt x="177" y="618" on="0"/>
        <pt x="235" y="674" on="1"/>
        <pt x="301" y="739" on="0"/>
        <pt x="413" y="739" on="1"/>
        <pt x="415" y="739" on="0"/>
        <pt x="452" y="739" on="0"/>
        <pt x="593" y="722" on="0"/>
        <pt x="649" y="711" on="1"/>
        <pt x="643" y="665" on="1"/>
        <pt x="610" y="670" on="0"/>
        <pt x="530" y="676" on="1"/>
        <pt x="444" y="682" on="0"/>
        <pt x="374" y="682" on="0"/>
        <pt x="325" y="670" on="0"/>
        <pt x="270" y="630" on="0"/>
        <pt x="249" y="597" on="1"/>
        <pt x="202" y="520" on="0"/>
        <pt x="179" y="366" on="1"/>
        <pt x="168" y="293" on="0"/>
      </contour>
    </TTGlyph>
    <TTGlyph name="Gbreve" xMin="108" yMin="-7" xMax="650" yMax="914">
      <contour>
        <pt x="363" y="899" on="1"/>
        <pt x="363" y="874" on="0"/>
        <pt x="397" y="835" on="0"/>
        <pt x="428" y="835" on="1"/>
        <pt x="428" y="835" on="0"/>
        <pt x="429" y="835" on="0"/>
        <pt x="430" y="835" on="1"/>
        <pt x="466" y="835" on="0"/>
        <pt x="515" y="874" on="0"/>
        <pt x="521" y="913" on="1"/>
        <pt x="557" y="913" on="1"/>
        <pt x="548" y="856" on="0"/>
        <pt x="479" y="799" on="0"/>
        <pt x="428" y="799" on="1"/>
        <pt x="367" y="799" on="0"/>
        <pt x="339" y="852" on="1"/>
        <pt x="328" y="873" on="0"/>
        <pt x="328" y="906" on="0"/>
        <pt x="329" y="913" on="1"/>
        <pt x="364" y="913" on="1"/>
        <pt x="363" y="906" on="0"/>
      </contour>
      <contour>
        <pt x="168" y="236" on="1"/>
        <pt x="168" y="51" on="0"/>
        <pt x="305" y="51" on="1"/>
        <pt x="306" y="51" on="0"/>
        <pt x="341" y="51" on="0"/>
        <pt x="446" y="78" on="0"/>
        <pt x="482" y="91" on="1"/>
        <pt x="517" y="105" on="1"/>
        <pt x="555" y="330" on="1"/>
        <pt x="371" y="330" on="1"/>
        <pt x="378" y="369" on="1"/>
        <pt x="456" y="389" on="0"/>
        <pt x="554" y="389" on="1"/>
        <pt x="585" y="389" on="0"/>
        <pt x="621" y="386" on="1"/>
        <pt x="560" y="0" on="1"/>
        <pt x="518" y="0" on="1"/>
        <pt x="511" y="56" on="1"/>
        <pt x="483" y="35" on="0"/>
        <pt x="356" y="-6" on="0"/>
        <pt x="253" y="-6" on="0"/>
        <pt x="182" y="24" on="0"/>
        <pt x="161" y="51" on="1"/>
        <pt x="116" y="108" on="0"/>
        <pt x="110" y="192" on="1"/>
        <pt x="108" y="217" on="0"/>
        <pt x="108" y="239" on="1"/>
        <pt x="108" y="343" on="0"/>
        <pt x="140" y="475" on="1"/>
        <pt x="167" y="585" on="0"/>
        <pt x="206" y="639" on="1"/>
        <pt x="255" y="707" on="0"/>
        <pt x="325" y="728" on="1"/>
        <pt x="364" y="739" on="0"/>
        <pt x="413" y="739" on="1"/>
        <pt x="415" y="739" on="0"/>
        <pt x="452" y="739" on="0"/>
        <pt x="593" y="722" on="0"/>
        <pt x="649" y="711" on="1"/>
        <pt x="643" y="665" on="1"/>
        <pt x="610" y="670" on="0"/>
        <pt x="530" y="676" on="1"/>
        <pt x="444" y="682" on="0"/>
        <pt x="374" y="682" on="0"/>
        <pt x="325" y="670" on="0"/>
        <pt x="270" y="630" on="0"/>
        <pt x="249" y="597" on="1"/>
        <pt x="202" y="520" on="0"/>
        <pt x="179" y="366" on="1"/>
        <pt x="168" y="293" on="0"/>
      </contour>
    </TTGlyph>
    <TTGlyph name="Gcircumflex" xMin="108" yMin="-7" xMax="650" yMax="930">
      <contour>
        <pt x="282" y="799" on="1"/>
        <pt x="425" y="929" on="1"/>
        <pt x="479" y="929" on="1"/>
        <pt x="567" y="799" on="1"/>
        <pt x="518" y="799" on="1"/>
        <pt x="449" y="893" on="1"/>
        <pt x="341" y="799" on="1"/>
      </contour>
      <contour>
        <pt x="168" y="236" on="1"/>
        <pt x="168" y="51" on="0"/>
        <pt x="305" y="51" on="1"/>
        <pt x="306" y="51" on="0"/>
        <pt x="341" y="51" on="0"/>
        <pt x="446" y="78" on="0"/>
        <pt x="482" y="91" on="1"/>
        <pt x="517" y="105" on="1"/>
        <pt x="555" y="330" on="1"/>
        <pt x="371" y="330" on="1"/>
        <pt x="378" y="369" on="1"/>
        <pt x="456" y="389" on="0"/>
        <pt x="554" y="389" on="1"/>
        <pt x="585" y="389" on="0"/>
        <pt x="621" y="386" on="1"/>
        <pt x="560" y="0" on="1"/>
        <pt x="518" y="0" on="1"/>
        <pt x="511" y="56" on="1"/>
        <pt x="483" y="35" on="0"/>
        <pt x="356" y="-6" on="0"/>
        <pt x="253" y="-6" on="0"/>
        <pt x="182" y="24" on="0"/>
        <pt x="161" y="51" on="1"/>
        <pt x="116" y="108" on="0"/>
        <pt x="110" y="192" on="1"/>
        <pt x="108" y="217" on="0"/>
        <pt x="108" y="239" on="1"/>
        <pt x="108" y="343" on="0"/>
        <pt x="140" y="475" on="1"/>
        <pt x="167" y="585" on="0"/>
        <pt x="206" y="639" on="1"/>
        <pt x="255" y="707" on="0"/>
        <pt x="325" y="728" on="1"/>
        <pt x="364" y="739" on="0"/>
        <pt x="413" y="739" on="1"/>
        <pt x="415" y="739" on="0"/>
        <pt x="452" y="739" on="0"/>
        <pt x="593" y="722" on="0"/>
        <pt x="649" y="711" on="1"/>
        <pt x="643" y="665" on="1"/>
        <pt x="610" y="670" on="0"/>
        <pt x="530" y="676" on="1"/>
        <pt x="444" y="682" on="0"/>
        <pt x="374" y="682" on="0"/>
        <pt x="325" y="670" on="0"/>
        <pt x="270" y="630" on="0"/>
        <pt x="249" y="597" on="1"/>
        <pt x="202" y="520" on="0"/>
        <pt x="179" y="366" on="1"/>
        <pt x="168" y="293" on="0"/>
      </contour>
    </TTGlyph>
    <TTGlyph name="Gcommaaccent" xMin="108" yMin="-235" xMax="650" yMax="740">
      <contour>
        <pt x="282" y="-212" on="1"/>
        <pt x="304" y="-212" on="0"/>
        <pt x="308" y="-189" on="1"/>
        <pt x="313" y="-160" on="1"/>
        <pt x="304" y="-160" on="1"/>
        <pt x="285" y="-160" on="0"/>
        <pt x="289" y="-141" on="1"/>
        <pt x="296" y="-90" on="1"/>
        <pt x="300" y="-70" on="0"/>
        <pt x="319" y="-70" on="1"/>
        <pt x="352" y="-70" on="1"/>
        <pt x="370" y="-70" on="0"/>
        <pt x="367" y="-90" on="1"/>
        <pt x="353" y="-178" on="1"/>
        <pt x="347" y="-216" on="0"/>
        <pt x="322" y="-227" on="1"/>
        <pt x="304" y="-235" on="0"/>
        <pt x="287" y="-235" on="0"/>
        <pt x="278" y="-233" on="1"/>
        <pt x="281" y="-212" on="1"/>
        <pt x="281" y="-212" on="0"/>
      </contour>
      <contour>
        <pt x="168" y="236" on="1"/>
        <pt x="168" y="51" on="0"/>
        <pt x="305" y="51" on="1"/>
        <pt x="306" y="51" on="0"/>
        <pt x="341" y="51" on="0"/>
        <pt x="446" y="78" on="0"/>
        <pt x="482" y="91" on="1"/>
        <pt x="517" y="105" on="1"/>
        <pt x="555" y="330" on="1"/>
        <pt x="371" y="330" on="1"/>
        <pt x="378" y="369" on="1"/>
        <pt x="456" y="389" on="0"/>
        <pt x="554" y="389" on="1"/>
        <pt x="585" y="389" on="0"/>
        <pt x="621" y="386" on="1"/>
        <pt x="560" y="0" on="1"/>
        <pt x="518" y="0" on="1"/>
        <pt x="511" y="56" on="1"/>
        <pt x="483" y="35" on="0"/>
        <pt x="356" y="-6" on="0"/>
        <pt x="253" y="-6" on="0"/>
        <pt x="182" y="24" on="0"/>
        <pt x="161" y="51" on="1"/>
        <pt x="116" y="108" on="0"/>
        <pt x="110" y="192" on="1"/>
        <pt x="108" y="217" on="0"/>
        <pt x="108" y="239" on="1"/>
        <pt x="108" y="343" on="0"/>
        <pt x="140" y="475" on="1"/>
        <pt x="167" y="585" on="0"/>
        <pt x="206" y="639" on="1"/>
        <pt x="255" y="707" on="0"/>
        <pt x="325" y="728" on="1"/>
        <pt x="364" y="739" on="0"/>
        <pt x="413" y="739" on="1"/>
        <pt x="415" y="739" on="0"/>
        <pt x="452" y="739" on="0"/>
        <pt x="593" y="722" on="0"/>
        <pt x="649" y="711" on="1"/>
        <pt x="643" y="665" on="1"/>
        <pt x="610" y="670" on="0"/>
        <pt x="530" y="676" on="1"/>
        <pt x="444" y="682" on="0"/>
        <pt x="374" y="682" on="0"/>
        <pt x="325" y="670" on="0"/>
        <pt x="270" y="630" on="0"/>
        <pt x="249" y="597" on="1"/>
        <pt x="202" y="520" on="0"/>
        <pt x="179" y="366" on="1"/>
        <pt x="168" y="293" on="0"/>
      </contour>
    </TTGlyph>
    <TTGlyph name="Gdotaccent" xMin="108" yMin="-7" xMax="650" yMax="897">
      <contour>
        <pt x="432" y="897" on="1"/>
        <pt x="469" y="897" on="1"/>
        <pt x="488" y="897" on="0"/>
        <pt x="485" y="876" on="1"/>
        <pt x="475" y="819" on="1"/>
        <pt x="473" y="800" on="0"/>
        <pt x="453" y="800" on="1"/>
        <pt x="416" y="800" on="1"/>
        <pt x="407" y="800" on="0"/>
        <pt x="398" y="811" on="0"/>
        <pt x="399" y="819" on="1"/>
        <pt x="408" y="876" on="1"/>
        <pt x="411" y="897" on="0"/>
      </contour>
      <contour>
        <pt x="168" y="236" on="1"/>
        <pt x="168" y="51" on="0"/>
        <pt x="305" y="51" on="1"/>
        <pt x="306" y="51" on="0"/>
        <pt x="341" y="51" on="0"/>
        <pt x="446" y="78" on="0"/>
        <pt x="482" y="91" on="1"/>
        <pt x="517" y="105" on="1"/>
        <pt x="555" y="330" on="1"/>
        <pt x="371" y="330" on="1"/>
        <pt x="378" y="369" on="1"/>
        <pt x="456" y="389" on="0"/>
        <pt x="554" y="389" on="1"/>
        <pt x="585" y="389" on="0"/>
        <pt x="621" y="386" on="1"/>
        <pt x="560" y="0" on="1"/>
        <pt x="518" y="0" on="1"/>
        <pt x="511" y="56" on="1"/>
        <pt x="483" y="35" on="0"/>
        <pt x="356" y="-6" on="0"/>
        <pt x="253" y="-6" on="0"/>
        <pt x="182" y="24" on="0"/>
        <pt x="161" y="51" on="1"/>
        <pt x="116" y="108" on="0"/>
        <pt x="110" y="192" on="1"/>
        <pt x="108" y="217" on="0"/>
        <pt x="108" y="239" on="1"/>
        <pt x="108" y="343" on="0"/>
        <pt x="140" y="475" on="1"/>
        <pt x="167" y="585" on="0"/>
        <pt x="206" y="639" on="1"/>
        <pt x="255" y="707" on="0"/>
        <pt x="325" y="728" on="1"/>
        <pt x="364" y="739" on="0"/>
        <pt x="413" y="739" on="1"/>
        <pt x="415" y="739" on="0"/>
        <pt x="452" y="739" on="0"/>
        <pt x="593" y="722" on="0"/>
        <pt x="649" y="711" on="1"/>
        <pt x="643" y="665" on="1"/>
        <pt x="610" y="670" on="0"/>
        <pt x="530" y="676" on="1"/>
        <pt x="444" y="682" on="0"/>
        <pt x="374" y="682" on="0"/>
        <pt x="325" y="670" on="0"/>
        <pt x="270" y="630" on="0"/>
        <pt x="249" y="597" on="1"/>
        <pt x="202" y="520" on="0"/>
        <pt x="179" y="366" on="1"/>
        <pt x="168" y="293" on="0"/>
      </contour>
    </TTGlyph>
    <TTGlyph name="H" xMin="85" yMin="0" xMax="696" yMax="732">
      <contour>
        <pt x="85" y="0" on="1"/>
        <pt x="201" y="732" on="1"/>
        <pt x="258" y="732" on="1"/>
        <pt x="203" y="383" on="1"/>
        <pt x="582" y="383" on="1"/>
        <pt x="638" y="732" on="1"/>
        <pt x="696" y="732" on="1"/>
        <pt x="580" y="0" on="1"/>
        <pt x="522" y="0" on="1"/>
        <pt x="574" y="325" on="1"/>
        <pt x="194" y="325" on="1"/>
        <pt x="142" y="0" on="1"/>
      </contour>
    </TTGlyph>
    <TTGlyph name="Hbar" xMin="85" yMin="0" xMax="724" yMax="732">
      <contour>
        <pt x="85" y="0" on="1"/>
        <pt x="168" y="524" on="1"/>
        <pt x="106" y="524" on="1"/>
        <pt x="112" y="565" on="1"/>
        <pt x="174" y="565" on="1"/>
        <pt x="201" y="732" on="1"/>
        <pt x="258" y="732" on="1"/>
        <pt x="232" y="565" on="1"/>
        <pt x="605" y="565" on="1"/>
        <pt x="632" y="732" on="1"/>
        <pt x="689" y="732" on="1"/>
        <pt x="662" y="565" on="1"/>
        <pt x="723" y="565" on="1"/>
        <pt x="717" y="524" on="1"/>
        <pt x="656" y="524" on="1"/>
        <pt x="573" y="0" on="1"/>
        <pt x="516" y="0" on="1"/>
        <pt x="568" y="326" on="1"/>
        <pt x="195" y="326" on="1"/>
        <pt x="142" y="0" on="1"/>
      </contour>
      <contour>
        <pt x="203" y="384" on="1"/>
        <pt x="576" y="384" on="1"/>
        <pt x="599" y="524" on="1"/>
        <pt x="225" y="524" on="1"/>
      </contour>
    </TTGlyph>
    <TTGlyph name="Hcircumflex" xMin="85" yMin="0" xMax="696" yMax="927">
      <contour>
        <pt x="316" y="797" on="1"/>
        <pt x="459" y="927" on="1"/>
        <pt x="514" y="927" on="1"/>
        <pt x="602" y="797" on="1"/>
        <pt x="552" y="797" on="1"/>
        <pt x="483" y="891" on="1"/>
        <pt x="376" y="797" on="1"/>
      </contour>
      <contour>
        <pt x="85" y="0" on="1"/>
        <pt x="201" y="732" on="1"/>
        <pt x="258" y="732" on="1"/>
        <pt x="203" y="383" on="1"/>
        <pt x="582" y="383" on="1"/>
        <pt x="638" y="732" on="1"/>
        <pt x="696" y="732" on="1"/>
        <pt x="580" y="0" on="1"/>
        <pt x="522" y="0" on="1"/>
        <pt x="574" y="325" on="1"/>
        <pt x="194" y="325" on="1"/>
        <pt x="142" y="0" on="1"/>
      </contour>
    </TTGlyph>
    <TTGlyph name="I" xMin="90" yMin="0" xMax="264" yMax="732">
      <contour>
        <pt x="90" y="0" on="1"/>
        <pt x="206" y="732" on="1"/>
        <pt x="264" y="732" on="1"/>
        <pt x="148" y="0" on="1"/>
      </contour>
    </TTGlyph>
    <TTGlyph name="Iacute" xMin="90" yMin="0" xMax="425" yMax="930">
      <contour>
        <pt x="220" y="797" on="1"/>
        <pt x="352" y="930" on="1"/>
        <pt x="425" y="930" on="1"/>
        <pt x="271" y="797" on="1"/>
      </contour>
      <contour>
        <pt x="90" y="0" on="1"/>
        <pt x="206" y="732" on="1"/>
        <pt x="264" y="732" on="1"/>
        <pt x="148" y="0" on="1"/>
      </contour>
    </TTGlyph>
    <TTGlyph name="Icircumflex" xMin="90" yMin="0" xMax="388" yMax="927">
      <contour>
        <pt x="103" y="797" on="1"/>
        <pt x="245" y="927" on="1"/>
        <pt x="300" y="927" on="1"/>
        <pt x="388" y="797" on="1"/>
        <pt x="339" y="797" on="1"/>
        <pt x="270" y="891" on="1"/>
        <pt x="162" y="797" on="1"/>
      </contour>
      <contour>
        <pt x="90" y="0" on="1"/>
        <pt x="206" y="732" on="1"/>
        <pt x="264" y="732" on="1"/>
        <pt x="148" y="0" on="1"/>
      </contour>
    </TTGlyph>
    <TTGlyph name="Idieresis" xMin="83" yMin="0" xMax="420" yMax="877">
      <contour>
        <pt x="87" y="854" on="0"/>
        <pt x="114" y="876" on="0"/>
        <pt x="142" y="876" on="0"/>
        <pt x="150" y="871" on="1"/>
        <pt x="167" y="860" on="0"/>
        <pt x="161" y="820" on="0"/>
        <pt x="135" y="797" on="0"/>
        <pt x="102" y="797" on="0"/>
        <pt x="84" y="818" on="0"/>
        <pt x="84" y="834" on="0"/>
      </contour>
      <contour>
        <pt x="342" y="854" on="0"/>
        <pt x="369" y="876" on="0"/>
        <pt x="383" y="876" on="1"/>
        <pt x="409" y="876" on="0"/>
        <pt x="417" y="857" on="1"/>
        <pt x="419" y="851" on="0"/>
        <pt x="419" y="840" on="0"/>
        <pt x="416" y="820" on="0"/>
        <pt x="390" y="797" on="0"/>
        <pt x="357" y="797" on="0"/>
        <pt x="337" y="821" on="0"/>
      </contour>
      <contour>
        <pt x="90" y="0" on="1"/>
        <pt x="206" y="732" on="1"/>
        <pt x="264" y="732" on="1"/>
        <pt x="148" y="0" on="1"/>
      </contour>
    </TTGlyph>
    <TTGlyph name="Idotaccent" xMin="90" yMin="0" xMax="297" yMax="894">
      <contour>
        <pt x="242" y="894" on="1"/>
        <pt x="280" y="894" on="1"/>
        <pt x="296" y="894" on="0"/>
        <pt x="296" y="878" on="1"/>
        <pt x="296" y="876" on="0"/>
        <pt x="296" y="873" on="1"/>
        <pt x="286" y="816" on="1"/>
        <pt x="284" y="797" on="0"/>
        <pt x="264" y="797" on="1"/>
        <pt x="227" y="797" on="1"/>
        <pt x="218" y="797" on="0"/>
        <pt x="209" y="808" on="0"/>
        <pt x="210" y="816" on="1"/>
        <pt x="219" y="873" on="1"/>
        <pt x="222" y="894" on="0"/>
      </contour>
      <contour>
        <pt x="90" y="0" on="1"/>
        <pt x="206" y="732" on="1"/>
        <pt x="264" y="732" on="1"/>
        <pt x="148" y="0" on="1"/>
      </contour>
    </TTGlyph>
    <TTGlyph name="Idotaccent.smcp" xMin="60" yMin="0" xMax="240" yMax="727">
      <contour>
        <pt x="60" y="0" on="1"/>
        <pt x="150" y="570" on="1"/>
        <pt x="208" y="570" on="1"/>
        <pt x="118" y="0" on="1"/>
      </contour>
      <contour>
        <pt x="186" y="726" on="1"/>
        <pt x="223" y="726" on="1"/>
        <pt x="239" y="726" on="0"/>
        <pt x="239" y="711" on="1"/>
        <pt x="239" y="708" on="0"/>
        <pt x="239" y="705" on="1"/>
        <pt x="230" y="649" on="1"/>
        <pt x="227" y="629" on="0"/>
        <pt x="208" y="629" on="1"/>
        <pt x="171" y="629" on="1"/>
        <pt x="162" y="629" on="0"/>
        <pt x="152" y="640" on="0"/>
        <pt x="153" y="649" on="1"/>
        <pt x="163" y="705" on="1"/>
        <pt x="165" y="726" on="0"/>
      </contour>
    </TTGlyph>
    <TTGlyph name="Igrave" xMin="90" yMin="0" xMax="271" yMax="930">
      <contour>
        <pt x="100" y="930" on="1"/>
        <pt x="167" y="930" on="1"/>
        <pt x="271" y="797" on="1"/>
        <pt x="220" y="797" on="1"/>
      </contour>
      <contour>
        <pt x="90" y="0" on="1"/>
        <pt x="206" y="732" on="1"/>
        <pt x="264" y="732" on="1"/>
        <pt x="148" y="0" on="1"/>
      </contour>
    </TTGlyph>
    <TTGlyph name="Imacron" xMin="57" yMin="0" xMax="353" yMax="841">
      <contour>
        <pt x="66" y="794" on="1"/>
        <pt x="73" y="841" on="1"/>
        <pt x="352" y="841" on="1"/>
        <pt x="345" y="794" on="1"/>
      </contour>
      <contour>
        <pt x="58" y="0" on="1"/>
        <pt x="174" y="732" on="1"/>
        <pt x="231" y="732" on="1"/>
        <pt x="115" y="0" on="1"/>
      </contour>
    </TTGlyph>
    <TTGlyph name="Iogonek" xMin="5" yMin="-183" xMax="264" yMax="732">
      <contour>
        <pt x="136" y="0" on="1"/>
        <pt x="56" y="-48" on="0"/>
        <pt x="56" y="-96" on="1"/>
        <pt x="56" y="-136" on="0"/>
        <pt x="120" y="-136" on="1"/>
        <pt x="123" y="-136" on="0"/>
        <pt x="127" y="-136" on="1"/>
        <pt x="119" y="-181" on="1"/>
        <pt x="108" y="-182" on="0"/>
        <pt x="97" y="-182" on="1"/>
        <pt x="55" y="-182" on="0"/>
        <pt x="6" y="-136" on="0"/>
        <pt x="6" y="-109" on="1"/>
        <pt x="6" y="-40" on="0"/>
        <pt x="106" y="0" on="1"/>
      </contour>
      <contour>
        <pt x="90" y="0" on="1"/>
        <pt x="206" y="732" on="1"/>
        <pt x="264" y="732" on="1"/>
        <pt x="148" y="0" on="1"/>
      </contour>
    </TTGlyph>
    <TTGlyph name="Itilde" xMin="90" yMin="0" xMax="434" yMax="899">
      <contour>
        <pt x="339" y="851" on="0"/>
        <pt x="407" y="882" on="0"/>
        <pt x="421" y="892" on="1"/>
        <pt x="433" y="861" on="1"/>
        <pt x="427" y="857" on="0"/>
        <pt x="392" y="832" on="0"/>
        <pt x="375" y="821" on="0"/>
        <pt x="361" y="813" on="1"/>
        <pt x="312" y="785" on="0"/>
        <pt x="270" y="811" on="1"/>
        <pt x="251" y="823" on="0"/>
        <pt x="219" y="846" on="0"/>
        <pt x="205" y="846" on="0"/>
        <pt x="190" y="846" on="0"/>
        <pt x="160" y="837" on="0"/>
        <pt x="142" y="829" on="0"/>
        <pt x="108" y="810" on="0"/>
        <pt x="102" y="806" on="1"/>
        <pt x="90" y="836" on="1"/>
        <pt x="142" y="875" on="0"/>
        <pt x="195" y="898" on="0"/>
        <pt x="229" y="898" on="0"/>
        <pt x="262" y="883" on="0"/>
        <pt x="273" y="874" on="1"/>
        <pt x="303" y="851" on="0"/>
      </contour>
      <contour>
        <pt x="96" y="0" on="1"/>
        <pt x="212" y="732" on="1"/>
        <pt x="270" y="732" on="1"/>
        <pt x="154" y="0" on="1"/>
      </contour>
    </TTGlyph>
    <TTGlyph name="J" xMin="38" yMin="-6" xMax="406" yMax="732">
      <contour>
        <pt x="49" y="62" on="1"/>
        <pt x="104" y="46" on="0"/>
        <pt x="159" y="46" on="0"/>
        <pt x="191" y="57" on="0"/>
        <pt x="209" y="69" on="1"/>
        <pt x="246" y="93" on="0"/>
        <pt x="258" y="165" on="1"/>
        <pt x="348" y="732" on="1"/>
        <pt x="405" y="732" on="1"/>
        <pt x="315" y="165" on="1"/>
        <pt x="298" y="53" on="0"/>
        <pt x="240" y="18" on="1"/>
        <pt x="201" y="-6" on="0"/>
        <pt x="141" y="-6" on="1"/>
        <pt x="75" y="-6" on="0"/>
        <pt x="38" y="21" on="1"/>
      </contour>
    </TTGlyph>
    <TTGlyph name="Jcircumflex" xMin="38" yMin="-6" xMax="530" yMax="927">
      <contour>
        <pt x="244" y="797" on="1"/>
        <pt x="387" y="927" on="1"/>
        <pt x="442" y="927" on="1"/>
        <pt x="530" y="797" on="1"/>
        <pt x="480" y="797" on="1"/>
        <pt x="411" y="891" on="1"/>
        <pt x="304" y="797" on="1"/>
      </contour>
      <contour>
        <pt x="49" y="62" on="1"/>
        <pt x="104" y="46" on="0"/>
        <pt x="159" y="46" on="0"/>
        <pt x="191" y="57" on="0"/>
        <pt x="209" y="69" on="1"/>
        <pt x="246" y="93" on="0"/>
        <pt x="258" y="165" on="1"/>
        <pt x="348" y="732" on="1"/>
        <pt x="405" y="732" on="1"/>
        <pt x="315" y="165" on="1"/>
        <pt x="298" y="53" on="0"/>
        <pt x="240" y="18" on="1"/>
        <pt x="201" y="-6" on="0"/>
        <pt x="141" y="-6" on="1"/>
        <pt x="75" y="-6" on="0"/>
        <pt x="38" y="21" on="1"/>
      </contour>
    </TTGlyph>
    <TTGlyph name="K" xMin="80" yMin="0" xMax="662" yMax="732">
      <contour>
        <pt x="80" y="0" on="1"/>
        <pt x="196" y="732" on="1"/>
        <pt x="254" y="732" on="1"/>
        <pt x="200" y="396" on="1"/>
        <pt x="309" y="396" on="1"/>
        <pt x="590" y="732" on="1"/>
        <pt x="662" y="732" on="1"/>
        <pt x="358" y="364" on="1"/>
        <pt x="546" y="0" on="1"/>
        <pt x="477" y="0" on="1"/>
        <pt x="304" y="338" on="1"/>
        <pt x="192" y="338" on="1"/>
        <pt x="138" y="0" on="1"/>
      </contour>
    </TTGlyph>
    <TTGlyph name="Kcommaaccent" xMin="80" yMin="-230" xMax="662" yMax="732">
      <contour>
        <pt x="245" y="-207" on="1"/>
        <pt x="267" y="-207" on="0"/>
        <pt x="271" y="-184" on="1"/>
        <pt x="275" y="-155" on="1"/>
        <pt x="267" y="-155" on="1"/>
        <pt x="248" y="-155" on="0"/>
        <pt x="251" y="-136" on="1"/>
        <pt x="259" y="-85" on="1"/>
        <pt x="262" y="-65" on="0"/>
        <pt x="281" y="-65" on="1"/>
        <pt x="315" y="-65" on="1"/>
        <pt x="332" y="-65" on="0"/>
        <pt x="329" y="-85" on="1"/>
        <pt x="316" y="-173" on="1"/>
        <pt x="310" y="-211" on="0"/>
        <pt x="284" y="-222" on="1"/>
        <pt x="267" y="-230" on="0"/>
        <pt x="249" y="-230" on="0"/>
        <pt x="240" y="-228" on="1"/>
        <pt x="244" y="-207" on="1"/>
        <pt x="244" y="-207" on="0"/>
      </contour>
      <contour>
        <pt x="80" y="0" on="1"/>
        <pt x="196" y="732" on="1"/>
        <pt x="254" y="732" on="1"/>
        <pt x="200" y="396" on="1"/>
        <pt x="309" y="396" on="1"/>
        <pt x="590" y="732" on="1"/>
        <pt x="662" y="732" on="1"/>
        <pt x="358" y="364" on="1"/>
        <pt x="546" y="0" on="1"/>
        <pt x="477" y="0" on="1"/>
        <pt x="304" y="338" on="1"/>
        <pt x="192" y="338" on="1"/>
        <pt x="138" y="0" on="1"/>
      </contour>
    </TTGlyph>
    <TTGlyph name="L" xMin="96" yMin="0" xMax="522" yMax="732">
      <contour>
        <pt x="156" y="126" on="1"/>
        <pt x="155" y="115" on="0"/>
        <pt x="155" y="96" on="0"/>
        <pt x="161" y="73" on="0"/>
        <pt x="174" y="67" on="1"/>
        <pt x="193" y="58" on="0"/>
        <pt x="225" y="58" on="1"/>
        <pt x="521" y="58" on="1"/>
        <pt x="512" y="0" on="1"/>
        <pt x="217" y="0" on="1"/>
        <pt x="162" y="0" on="0"/>
        <pt x="127" y="25" on="1"/>
        <pt x="97" y="47" on="0"/>
        <pt x="97" y="97" on="1"/>
        <pt x="97" y="111" on="0"/>
        <pt x="99" y="126" on="1"/>
        <pt x="196" y="732" on="1"/>
        <pt x="253" y="732" on="1"/>
      </contour>
    </TTGlyph>
    <TTGlyph name="Lacute" xMin="55" yMin="0" xMax="480" yMax="927">
      <contour>
        <pt x="170" y="794" on="1"/>
        <pt x="302" y="927" on="1"/>
        <pt x="375" y="927" on="1"/>
        <pt x="221" y="794" on="1"/>
      </contour>
      <contour>
        <pt x="115" y="126" on="1"/>
        <pt x="113" y="115" on="0"/>
        <pt x="113" y="96" on="0"/>
        <pt x="120" y="73" on="0"/>
        <pt x="132" y="67" on="1"/>
        <pt x="151" y="58" on="0"/>
        <pt x="183" y="58" on="1"/>
        <pt x="480" y="58" on="1"/>
        <pt x="471" y="0" on="1"/>
        <pt x="175" y="0" on="1"/>
        <pt x="120" y="0" on="0"/>
        <pt x="86" y="25" on="1"/>
        <pt x="55" y="47" on="0"/>
        <pt x="55" y="97" on="1"/>
        <pt x="55" y="111" on="0"/>
        <pt x="57" y="126" on="1"/>
        <pt x="155" y="732" on="1"/>
        <pt x="212" y="732" on="1"/>
      </contour>
    </TTGlyph>
    <TTGlyph name="Lcaron" xMin="96" yMin="0" xMax="522" yMax="772">
      <contour>
        <pt x="157" y="126" on="1"/>
        <pt x="155" y="115" on="0"/>
        <pt x="155" y="96" on="0"/>
        <pt x="161" y="73" on="0"/>
        <pt x="174" y="67" on="1"/>
        <pt x="193" y="57" on="0"/>
        <pt x="225" y="58" on="1"/>
        <pt x="521" y="58" on="1"/>
        <pt x="512" y="0" on="1"/>
        <pt x="215" y="0" on="1"/>
        <pt x="156" y="0" on="0"/>
        <pt x="96" y="50" on="0"/>
        <pt x="96" y="95" on="1"/>
        <pt x="96" y="109" on="0"/>
        <pt x="99" y="126" on="1"/>
        <pt x="196" y="732" on="1"/>
        <pt x="253" y="732" on="1"/>
      </contour>
      <contour>
        <pt x="313" y="571" on="1"/>
        <pt x="325" y="705" on="1"/>
        <pt x="335" y="772" on="1"/>
        <pt x="393" y="772" on="1"/>
        <pt x="383" y="705" on="1"/>
        <pt x="353" y="571" on="1"/>
      </contour>
    </TTGlyph>
    <TTGlyph name="Lcommaaccent" xMin="96" yMin="-230" xMax="522" yMax="732">
      <contour>
        <pt x="250" y="-207" on="1"/>
        <pt x="272" y="-207" on="0"/>
        <pt x="276" y="-184" on="1"/>
        <pt x="281" y="-155" on="1"/>
        <pt x="272" y="-155" on="1"/>
        <pt x="253" y="-155" on="0"/>
        <pt x="257" y="-136" on="1"/>
        <pt x="264" y="-85" on="1"/>
        <pt x="268" y="-65" on="0"/>
        <pt x="287" y="-65" on="1"/>
        <pt x="320" y="-65" on="1"/>
        <pt x="338" y="-65" on="0"/>
        <pt x="335" y="-85" on="1"/>
        <pt x="321" y="-173" on="1"/>
        <pt x="315" y="-211" on="0"/>
        <pt x="290" y="-222" on="1"/>
        <pt x="273" y="-230" on="0"/>
        <pt x="255" y="-230" on="0"/>
        <pt x="246" y="-228" on="1"/>
        <pt x="249" y="-207" on="1"/>
        <pt x="249" y="-207" on="0"/>
      </contour>
      <contour>
        <pt x="156" y="126" on="1"/>
        <pt x="155" y="115" on="0"/>
        <pt x="155" y="96" on="0"/>
        <pt x="161" y="73" on="0"/>
        <pt x="174" y="67" on="1"/>
        <pt x="193" y="58" on="0"/>
        <pt x="225" y="58" on="1"/>
        <pt x="521" y="58" on="1"/>
        <pt x="512" y="0" on="1"/>
        <pt x="217" y="0" on="1"/>
        <pt x="162" y="0" on="0"/>
        <pt x="127" y="25" on="1"/>
        <pt x="97" y="47" on="0"/>
        <pt x="97" y="97" on="1"/>
        <pt x="97" y="111" on="0"/>
        <pt x="99" y="126" on="1"/>
        <pt x="196" y="732" on="1"/>
        <pt x="253" y="732" on="1"/>
      </contour>
    </TTGlyph>
    <TTGlyph name="Lslash" xMin="47" yMin="0" xMax="521" yMax="732">
      <contour>
        <pt x="155" y="126" on="1"/>
        <pt x="154" y="115" on="0"/>
        <pt x="154" y="96" on="0"/>
        <pt x="160" y="73" on="0"/>
        <pt x="172" y="67" on="1"/>
        <pt x="191" y="58" on="0"/>
        <pt x="223" y="58" on="1"/>
        <pt x="520" y="58" on="1"/>
        <pt x="511" y="0" on="1"/>
        <pt x="215" y="0" on="1"/>
        <pt x="160" y="0" on="0"/>
        <pt x="126" y="25" on="1"/>
        <pt x="96" y="47" on="0"/>
        <pt x="96" y="97" on="1"/>
        <pt x="96" y="111" on="0"/>
        <pt x="98" y="126" on="1"/>
        <pt x="137" y="370" on="1"/>
        <pt x="47" y="333" on="1"/>
        <pt x="55" y="381" on="1"/>
        <pt x="145" y="417" on="1"/>
        <pt x="195" y="732" on="1"/>
        <pt x="251" y="732" on="1"/>
        <pt x="206" y="442" on="1"/>
        <pt x="348" y="499" on="1"/>
        <pt x="339" y="452" on="1"/>
        <pt x="198" y="395" on="1"/>
      </contour>
    </TTGlyph>
    <TTGlyph name="M" xMin="71" yMin="0" xMax="803" yMax="732">
      <contour>
        <pt x="71" y="0" on="1"/>
        <pt x="246" y="732" on="1"/>
        <pt x="321" y="732" on="1"/>
        <pt x="424" y="96" on="1"/>
        <pt x="722" y="732" on="1"/>
        <pt x="803" y="732" on="1"/>
        <pt x="752" y="0" on="1"/>
        <pt x="694" y="0" on="1"/>
        <pt x="740" y="633" on="1"/>
        <pt x="442" y="0" on="1"/>
        <pt x="382" y="0" on="1"/>
        <pt x="281" y="630" on="1"/>
        <pt x="129" y="0" on="1"/>
      </contour>
    </TTGlyph>
    <TTGlyph name="M.salt" xMin="55" yMin="0" xMax="795" yMax="739">
      <contour>
        <pt x="203" y="681" on="0"/>
        <pt x="237" y="724" on="0"/>
        <pt x="275" y="736" on="0"/>
        <pt x="286" y="736" on="1"/>
        <pt x="322" y="736" on="0"/>
        <pt x="360" y="696" on="0"/>
        <pt x="364" y="667" on="1"/>
        <pt x="422" y="270" on="1"/>
        <pt x="425" y="250" on="0"/>
        <pt x="453" y="252" on="0"/>
        <pt x="460" y="270" on="1"/>
        <pt x="632" y="681" on="1"/>
        <pt x="647" y="713" on="0"/>
        <pt x="698" y="739" on="0"/>
        <pt x="712" y="739" on="1"/>
        <pt x="755" y="739" on="0"/>
        <pt x="795" y="689" on="0"/>
        <pt x="795" y="659" on="1"/>
        <pt x="795" y="654" on="0"/>
        <pt x="794" y="649" on="1"/>
        <pt x="741" y="0" on="1"/>
        <pt x="683" y="0" on="1"/>
        <pt x="736" y="651" on="1"/>
        <pt x="738" y="667" on="0"/>
        <pt x="719" y="683" on="0"/>
        <pt x="693" y="674" on="0"/>
        <pt x="686" y="660" on="1"/>
        <pt x="514" y="250" on="1"/>
        <pt x="504" y="227" on="0"/>
        <pt x="487" y="212" on="1"/>
        <pt x="464" y="192" on="0"/>
        <pt x="434" y="192" on="1"/>
        <pt x="401" y="192" on="0"/>
        <pt x="368" y="235" on="0"/>
        <pt x="364" y="262" on="1"/>
        <pt x="307" y="655" on="1"/>
        <pt x="305" y="671" on="0"/>
        <pt x="283" y="682" on="0"/>
        <pt x="260" y="668" on="0"/>
        <pt x="256" y="651" on="1"/>
        <pt x="112" y="0" on="1"/>
        <pt x="55" y="0" on="1"/>
        <pt x="198" y="652" on="1"/>
      </contour>
    </TTGlyph>
    <TTGlyph name="N" xMin="80" yMin="0" xMax="706" yMax="732">
      <contour>
        <pt x="80" y="0" on="1"/>
        <pt x="196" y="732" on="1"/>
        <pt x="252" y="732" on="1"/>
        <pt x="548" y="107" on="1"/>
        <pt x="648" y="732" on="1"/>
        <pt x="705" y="732" on="1"/>
        <pt x="589" y="0" on="1"/>
        <pt x="534" y="0" on="1"/>
        <pt x="237" y="626" on="1"/>
        <pt x="138" y="0" on="1"/>
      </contour>
    </TTGlyph>
    <TTGlyph name="N.salt" xMin="80" yMin="-8" xMax="724" yMax="737">
      <contour>
        <pt x="263" y="736" on="1"/>
        <pt x="268" y="737" on="0"/>
        <pt x="296" y="737" on="0"/>
        <pt x="343" y="709" on="0"/>
        <pt x="351" y="679" on="1"/>
        <pt x="508" y="77" on="1"/>
        <pt x="512" y="60" on="0"/>
        <pt x="536" y="50" on="0"/>
        <pt x="560" y="67" on="0"/>
        <pt x="564" y="85" on="1"/>
        <pt x="666" y="732" on="1"/>
        <pt x="724" y="732" on="1"/>
        <pt x="623" y="78" on="1"/>
        <pt x="617" y="41" on="0"/>
        <pt x="593" y="18" on="1"/>
        <pt x="566" y="-8" on="0"/>
        <pt x="509" y="-8" on="0"/>
        <pt x="460" y="27" on="0"/>
        <pt x="450" y="64" on="1"/>
        <pt x="295" y="659" on="1"/>
        <pt x="292" y="673" on="0"/>
        <pt x="267" y="681" on="0"/>
        <pt x="243" y="664" on="0"/>
        <pt x="240" y="647" on="1"/>
        <pt x="138" y="0" on="1"/>
        <pt x="80" y="0" on="1"/>
        <pt x="181" y="653" on="1"/>
        <pt x="186" y="690" on="0"/>
        <pt x="235" y="734" on="0"/>
      </contour>
    </TTGlyph>
    <TTGlyph name="Nacute" xMin="80" yMin="0" xMax="706" yMax="930">
      <contour>
        <pt x="436" y="797" on="1"/>
        <pt x="568" y="930" on="1"/>
        <pt x="640" y="930" on="1"/>
        <pt x="486" y="797" on="1"/>
      </contour>
      <contour>
        <pt x="80" y="0" on="1"/>
        <pt x="196" y="732" on="1"/>
        <pt x="252" y="732" on="1"/>
        <pt x="548" y="107" on="1"/>
        <pt x="648" y="732" on="1"/>
        <pt x="705" y="732" on="1"/>
        <pt x="589" y="0" on="1"/>
        <pt x="534" y="0" on="1"/>
        <pt x="237" y="626" on="1"/>
        <pt x="138" y="0" on="1"/>
      </contour>
    </TTGlyph>
    <TTGlyph name="Nacute.salt" xMin="80" yMin="-8" xMax="724" yMax="930">
      <contour>
        <pt x="447" y="797" on="1"/>
        <pt x="580" y="930" on="1"/>
        <pt x="652" y="930" on="1"/>
        <pt x="498" y="797" on="1"/>
      </contour>
      <contour>
        <pt x="263" y="736" on="1"/>
        <pt x="268" y="737" on="0"/>
        <pt x="296" y="737" on="0"/>
        <pt x="343" y="709" on="0"/>
        <pt x="351" y="679" on="1"/>
        <pt x="508" y="77" on="1"/>
        <pt x="512" y="60" on="0"/>
        <pt x="536" y="50" on="0"/>
        <pt x="560" y="67" on="0"/>
        <pt x="564" y="85" on="1"/>
        <pt x="666" y="732" on="1"/>
        <pt x="724" y="732" on="1"/>
        <pt x="623" y="78" on="1"/>
        <pt x="617" y="41" on="0"/>
        <pt x="593" y="18" on="1"/>
        <pt x="566" y="-8" on="0"/>
        <pt x="509" y="-8" on="0"/>
        <pt x="460" y="27" on="0"/>
        <pt x="450" y="64" on="1"/>
        <pt x="295" y="659" on="1"/>
        <pt x="292" y="673" on="0"/>
        <pt x="267" y="681" on="0"/>
        <pt x="243" y="664" on="0"/>
        <pt x="240" y="647" on="1"/>
        <pt x="138" y="0" on="1"/>
        <pt x="80" y="0" on="1"/>
        <pt x="181" y="653" on="1"/>
        <pt x="186" y="690" on="0"/>
        <pt x="235" y="734" on="0"/>
      </contour>
    </TTGlyph>
    <TTGlyph name="Ncaron" xMin="80" yMin="0" xMax="706" yMax="927">
      <contour>
        <pt x="339" y="927" on="1"/>
        <pt x="388" y="927" on="1"/>
        <pt x="457" y="833" on="1"/>
        <pt x="565" y="927" on="1"/>
        <pt x="624" y="927" on="1"/>
        <pt x="481" y="797" on="1"/>
        <pt x="427" y="797" on="1"/>
      </contour>
      <contour>
        <pt x="80" y="0" on="1"/>
        <pt x="196" y="732" on="1"/>
        <pt x="252" y="732" on="1"/>
        <pt x="548" y="107" on="1"/>
        <pt x="648" y="732" on="1"/>
        <pt x="705" y="732" on="1"/>
        <pt x="589" y="0" on="1"/>
        <pt x="534" y="0" on="1"/>
        <pt x="237" y="626" on="1"/>
        <pt x="138" y="0" on="1"/>
      </contour>
    </TTGlyph>
    <TTGlyph name="Ncaron.salt" xMin="80" yMin="-8" xMax="724" yMax="927">
      <contour>
        <pt x="370" y="927" on="1"/>
        <pt x="419" y="927" on="1"/>
        <pt x="488" y="833" on="1"/>
        <pt x="596" y="927" on="1"/>
        <pt x="655" y="927" on="1"/>
        <pt x="512" y="797" on="1"/>
        <pt x="458" y="797" on="1"/>
      </contour>
      <contour>
        <pt x="263" y="736" on="1"/>
        <pt x="268" y="737" on="0"/>
        <pt x="296" y="737" on="0"/>
        <pt x="343" y="709" on="0"/>
        <pt x="351" y="679" on="1"/>
        <pt x="508" y="77" on="1"/>
        <pt x="512" y="60" on="0"/>
        <pt x="536" y="50" on="0"/>
        <pt x="560" y="67" on="0"/>
        <pt x="564" y="85" on="1"/>
        <pt x="666" y="732" on="1"/>
        <pt x="724" y="732" on="1"/>
        <pt x="623" y="78" on="1"/>
        <pt x="617" y="41" on="0"/>
        <pt x="593" y="18" on="1"/>
        <pt x="566" y="-8" on="0"/>
        <pt x="509" y="-8" on="0"/>
        <pt x="460" y="27" on="0"/>
        <pt x="450" y="64" on="1"/>
        <pt x="295" y="659" on="1"/>
        <pt x="292" y="673" on="0"/>
        <pt x="267" y="681" on="0"/>
        <pt x="243" y="664" on="0"/>
        <pt x="240" y="647" on="1"/>
        <pt x="138" y="0" on="1"/>
        <pt x="80" y="0" on="1"/>
        <pt x="181" y="653" on="1"/>
        <pt x="186" y="690" on="0"/>
        <pt x="235" y="734" on="0"/>
      </contour>
    </TTGlyph>
    <TTGlyph name="Ncommaaccent" xMin="80" yMin="-230" xMax="706" yMax="732">
      <contour>
        <pt x="289" y="-207" on="1"/>
        <pt x="311" y="-207" on="0"/>
        <pt x="315" y="-184" on="1"/>
        <pt x="320" y="-155" on="1"/>
        <pt x="312" y="-155" on="1"/>
        <pt x="293" y="-155" on="0"/>
        <pt x="296" y="-136" on="1"/>
        <pt x="304" y="-85" on="1"/>
        <pt x="307" y="-65" on="0"/>
        <pt x="326" y="-65" on="1"/>
        <pt x="360" y="-65" on="1"/>
        <pt x="377" y="-65" on="0"/>
        <pt x="374" y="-85" on="1"/>
        <pt x="360" y="-173" on="1"/>
        <pt x="354" y="-211" on="0"/>
        <pt x="329" y="-222" on="1"/>
        <pt x="312" y="-230" on="0"/>
        <pt x="294" y="-230" on="0"/>
        <pt x="285" y="-228" on="1"/>
        <pt x="288" y="-207" on="1"/>
        <pt x="289" y="-207" on="0"/>
      </contour>
      <contour>
        <pt x="80" y="0" on="1"/>
        <pt x="196" y="732" on="1"/>
        <pt x="252" y="732" on="1"/>
        <pt x="548" y="107" on="1"/>
        <pt x="648" y="732" on="1"/>
        <pt x="705" y="732" on="1"/>
        <pt x="589" y="0" on="1"/>
        <pt x="534" y="0" on="1"/>
        <pt x="237" y="626" on="1"/>
        <pt x="138" y="0" on="1"/>
      </contour>
    </TTGlyph>
    <TTGlyph name="Ncommaaccent.salt" xMin="80" yMin="-247" xMax="724" yMax="737">
      <contour>
        <pt x="278" y="-224" on="1"/>
        <pt x="299" y="-224" on="0"/>
        <pt x="304" y="-201" on="1"/>
        <pt x="308" y="-172" on="1"/>
        <pt x="300" y="-172" on="1"/>
        <pt x="281" y="-172" on="0"/>
        <pt x="284" y="-153" on="1"/>
        <pt x="292" y="-102" on="1"/>
        <pt x="295" y="-82" on="0"/>
        <pt x="314" y="-82" on="1"/>
        <pt x="348" y="-82" on="1"/>
        <pt x="365" y="-82" on="0"/>
        <pt x="362" y="-102" on="1"/>
        <pt x="349" y="-189" on="1"/>
        <pt x="342" y="-228" on="0"/>
        <pt x="317" y="-239" on="1"/>
        <pt x="300" y="-246" on="0"/>
        <pt x="282" y="-246" on="0"/>
        <pt x="273" y="-245" on="1"/>
        <pt x="276" y="-224" on="1"/>
        <pt x="277" y="-224" on="0"/>
      </contour>
      <contour>
        <pt x="263" y="736" on="1"/>
        <pt x="268" y="737" on="0"/>
        <pt x="296" y="737" on="0"/>
        <pt x="343" y="709" on="0"/>
        <pt x="351" y="679" on="1"/>
        <pt x="508" y="77" on="1"/>
        <pt x="512" y="60" on="0"/>
        <pt x="536" y="50" on="0"/>
        <pt x="560" y="67" on="0"/>
        <pt x="564" y="85" on="1"/>
        <pt x="666" y="732" on="1"/>
        <pt x="724" y="732" on="1"/>
        <pt x="623" y="78" on="1"/>
        <pt x="617" y="41" on="0"/>
        <pt x="593" y="18" on="1"/>
        <pt x="566" y="-8" on="0"/>
        <pt x="509" y="-8" on="0"/>
        <pt x="460" y="27" on="0"/>
        <pt x="450" y="64" on="1"/>
        <pt x="295" y="659" on="1"/>
        <pt x="292" y="673" on="0"/>
        <pt x="267" y="681" on="0"/>
        <pt x="243" y="664" on="0"/>
        <pt x="240" y="647" on="1"/>
        <pt x="138" y="0" on="1"/>
        <pt x="80" y="0" on="1"/>
        <pt x="181" y="653" on="1"/>
        <pt x="186" y="690" on="0"/>
        <pt x="235" y="734" on="0"/>
      </contour>
    </TTGlyph>
    <TTGlyph name="Ntilde" xMin="80" yMin="0" xMax="706" yMax="893">
      <contour>
        <pt x="541" y="846" on="0"/>
        <pt x="609" y="877" on="0"/>
        <pt x="624" y="887" on="1"/>
        <pt x="635" y="856" on="1"/>
        <pt x="629" y="852" on="0"/>
        <pt x="594" y="827" on="0"/>
        <pt x="578" y="816" on="0"/>
        <pt x="564" y="808" on="1"/>
        <pt x="514" y="780" on="0"/>
        <pt x="472" y="806" on="1"/>
        <pt x="453" y="818" on="0"/>
        <pt x="421" y="841" on="0"/>
        <pt x="407" y="841" on="0"/>
        <pt x="392" y="841" on="0"/>
        <pt x="362" y="832" on="0"/>
        <pt x="345" y="824" on="0"/>
        <pt x="311" y="805" on="0"/>
        <pt x="304" y="801" on="1"/>
        <pt x="292" y="831" on="1"/>
        <pt x="345" y="870" on="0"/>
        <pt x="397" y="893" on="0"/>
        <pt x="441" y="892" on="0"/>
        <pt x="475" y="870" on="1"/>
        <pt x="509" y="846" on="0"/>
      </contour>
      <contour>
        <pt x="80" y="0" on="1"/>
        <pt x="196" y="732" on="1"/>
        <pt x="252" y="732" on="1"/>
        <pt x="548" y="107" on="1"/>
        <pt x="648" y="732" on="1"/>
        <pt x="705" y="732" on="1"/>
        <pt x="589" y="0" on="1"/>
        <pt x="534" y="0" on="1"/>
        <pt x="237" y="626" on="1"/>
        <pt x="138" y="0" on="1"/>
      </contour>
    </TTGlyph>
    <TTGlyph name="Ntilde.salt" xMin="80" yMin="-8" xMax="724" yMax="900">
      <contour>
        <pt x="532" y="853" on="0"/>
        <pt x="600" y="883" on="0"/>
        <pt x="614" y="893" on="1"/>
        <pt x="626" y="863" on="1"/>
        <pt x="619" y="858" on="0"/>
        <pt x="593" y="839" on="0"/>
        <pt x="578" y="828" on="0"/>
        <pt x="554" y="814" on="0"/>
        <pt x="545" y="810" on="1"/>
        <pt x="499" y="791" on="0"/>
        <pt x="463" y="813" on="1"/>
        <pt x="443" y="825" on="0"/>
        <pt x="412" y="848" on="0"/>
        <pt x="398" y="848" on="0"/>
        <pt x="383" y="848" on="0"/>
        <pt x="353" y="839" on="0"/>
        <pt x="335" y="831" on="0"/>
        <pt x="301" y="811" on="0"/>
        <pt x="294" y="808" on="1"/>
        <pt x="283" y="838" on="1"/>
        <pt x="348" y="887" on="0"/>
        <pt x="392" y="900" on="0"/>
        <pt x="432" y="899" on="0"/>
        <pt x="466" y="876" on="1"/>
        <pt x="500" y="853" on="0"/>
      </contour>
      <contour>
        <pt x="263" y="736" on="1"/>
        <pt x="268" y="737" on="0"/>
        <pt x="296" y="737" on="0"/>
        <pt x="343" y="709" on="0"/>
        <pt x="351" y="679" on="1"/>
        <pt x="508" y="77" on="1"/>
        <pt x="512" y="60" on="0"/>
        <pt x="536" y="50" on="0"/>
        <pt x="560" y="67" on="0"/>
        <pt x="564" y="85" on="1"/>
        <pt x="666" y="732" on="1"/>
        <pt x="724" y="732" on="1"/>
        <pt x="623" y="78" on="1"/>
        <pt x="617" y="41" on="0"/>
        <pt x="593" y="18" on="1"/>
        <pt x="566" y="-8" on="0"/>
        <pt x="509" y="-8" on="0"/>
        <pt x="460" y="27" on="0"/>
        <pt x="450" y="64" on="1"/>
        <pt x="295" y="659" on="1"/>
        <pt x="292" y="673" on="0"/>
        <pt x="267" y="681" on="0"/>
        <pt x="243" y="664" on="0"/>
        <pt x="240" y="647" on="1"/>
        <pt x="138" y="0" on="1"/>
        <pt x="80" y="0" on="1"/>
        <pt x="181" y="653" on="1"/>
        <pt x="186" y="690" on="0"/>
        <pt x="235" y="734" on="0"/>
      </contour>
    </TTGlyph>
    <TTGlyph name="O" xMin="103" yMin="-5" xMax="686" yMax="737">
      <contour>
        <pt x="359" y="733" on="0"/>
        <pt x="411" y="737" on="0"/>
        <pt x="488" y="737" on="0"/>
        <pt x="547" y="730" on="0"/>
        <pt x="606" y="711" on="0"/>
        <pt x="625" y="694" on="1"/>
        <pt x="670" y="653" on="0"/>
        <pt x="681" y="580" on="1"/>
        <pt x="685" y="550" on="0"/>
        <pt x="685" y="524" on="1"/>
        <pt x="685" y="377" on="0"/>
        <pt x="647" y="237" on="1"/>
        <pt x="618" y="129" on="0"/>
        <pt x="576" y="80" on="1"/>
        <pt x="532" y="28" on="0"/>
        <pt x="475" y="11" on="1"/>
        <pt x="422" y="-4" on="0"/>
        <pt x="302" y="-4" on="0"/>
        <pt x="245" y="2" on="0"/>
        <pt x="185" y="20" on="0"/>
        <pt x="166" y="36" on="1"/>
        <pt x="119" y="75" on="0"/>
        <pt x="108" y="145" on="1"/>
        <pt x="103" y="176" on="0"/>
        <pt x="103" y="227" on="0"/>
        <pt x="105" y="293" on="0"/>
        <pt x="126" y="427" on="0"/>
        <pt x="151" y="529" on="0"/>
        <pt x="182" y="604" on="0"/>
        <pt x="215" y="660" on="0"/>
        <pt x="259" y="698" on="0"/>
        <pt x="301" y="721" on="0"/>
      </contour>
      <contour>
        <pt x="215" y="548" on="0"/>
        <pt x="186" y="438" on="0"/>
        <pt x="160" y="274" on="0"/>
        <pt x="160" y="196" on="0"/>
        <pt x="163" y="149" on="0"/>
        <pt x="183" y="104" on="0"/>
        <pt x="211" y="75" on="0"/>
        <pt x="234" y="67" on="1"/>
        <pt x="275" y="54" on="0"/>
        <pt x="394" y="54" on="0"/>
        <pt x="462" y="67" on="0"/>
        <pt x="525" y="104" on="0"/>
        <pt x="546" y="139" on="1"/>
        <pt x="591" y="211" on="0"/>
        <pt x="615" y="361" on="1"/>
        <pt x="629" y="450" on="0"/>
        <pt x="629" y="520" on="1"/>
        <pt x="629" y="574" on="0"/>
        <pt x="609" y="620" on="1"/>
        <pt x="597" y="647" on="0"/>
        <pt x="560" y="665" on="1"/>
        <pt x="538" y="676" on="0"/>
        <pt x="471" y="680" on="0"/>
        <pt x="402" y="680" on="0"/>
        <pt x="356" y="675" on="0"/>
        <pt x="293" y="657" on="0"/>
        <pt x="257" y="617" on="0"/>
      </contour>
    </TTGlyph>
    <TTGlyph name="OE" xMin="95" yMin="-4" xMax="1091" yMax="738">
      <contour>
        <pt x="361" y="734" on="0"/>
        <pt x="408" y="737" on="0"/>
        <pt x="483" y="737" on="0"/>
        <pt x="544" y="729" on="0"/>
        <pt x="573" y="718" on="1"/>
        <pt x="631" y="697" on="0"/>
        <pt x="655" y="633" on="1"/>
        <pt x="680" y="732" on="0"/>
        <pt x="783" y="732" on="1"/>
        <pt x="788" y="732" on="0"/>
        <pt x="793" y="732" on="1"/>
        <pt x="1091" y="718" on="1"/>
        <pt x="1084" y="675" on="1"/>
        <pt x="784" y="675" on="1"/>
        <pt x="715" y="675" on="0"/>
        <pt x="703" y="602" on="1"/>
        <pt x="671" y="393" on="1"/>
        <pt x="998" y="385" on="1"/>
        <pt x="991" y="341" on="1"/>
        <pt x="661" y="332" on="1"/>
        <pt x="627" y="123" on="1"/>
        <pt x="624" y="109" on="0"/>
        <pt x="629" y="88" on="0"/>
        <pt x="632" y="73" on="0"/>
        <pt x="645" y="64" on="0"/>
        <pt x="655" y="58" on="0"/>
        <pt x="664" y="57" on="1"/>
        <pt x="678" y="55" on="0"/>
        <pt x="696" y="55" on="1"/>
        <pt x="986" y="55" on="1"/>
        <pt x="979" y="12" on="1"/>
        <pt x="687" y="-3" on="1"/>
        <pt x="681" y="-3" on="0"/>
        <pt x="652" y="-3" on="0"/>
        <pt x="607" y="11" on="0"/>
        <pt x="573" y="55" on="0"/>
        <pt x="572" y="89" on="1"/>
        <pt x="532" y="34" on="0"/>
        <pt x="421" y="-4" on="0"/>
        <pt x="294" y="-4" on="0"/>
        <pt x="237" y="2" on="0"/>
        <pt x="177" y="20" on="0"/>
        <pt x="158" y="36" on="1"/>
        <pt x="111" y="75" on="0"/>
        <pt x="100" y="145" on="1"/>
        <pt x="95" y="176" on="0"/>
        <pt x="95" y="227" on="0"/>
        <pt x="97" y="293" on="0"/>
        <pt x="117" y="420" on="0"/>
        <pt x="139" y="513" on="0"/>
        <pt x="164" y="585" on="0"/>
        <pt x="196" y="640" on="0"/>
        <pt x="227" y="680" on="0"/>
        <pt x="269" y="708" on="0"/>
        <pt x="308" y="725" on="0"/>
      </contour>
      <contour>
        <pt x="207" y="548" on="0"/>
        <pt x="178" y="438" on="0"/>
        <pt x="152" y="274" on="0"/>
        <pt x="152" y="196" on="0"/>
        <pt x="155" y="149" on="0"/>
        <pt x="176" y="104" on="0"/>
        <pt x="203" y="75" on="0"/>
        <pt x="227" y="67" on="1"/>
        <pt x="267" y="54" on="0"/>
        <pt x="387" y="54" on="0"/>
        <pt x="454" y="67" on="0"/>
        <pt x="517" y="104" on="0"/>
        <pt x="538" y="139" on="1"/>
        <pt x="583" y="211" on="0"/>
        <pt x="607" y="361" on="1"/>
        <pt x="622" y="455" on="0"/>
        <pt x="622" y="553" on="0"/>
        <pt x="604" y="615" on="0"/>
        <pt x="579" y="656" on="0"/>
        <pt x="524" y="675" on="0"/>
        <pt x="478" y="680" on="0"/>
        <pt x="395" y="680" on="0"/>
        <pt x="349" y="675" on="0"/>
        <pt x="286" y="657" on="0"/>
        <pt x="249" y="617" on="0"/>
      </contour>
    </TTGlyph>
    <TTGlyph name="Oacute" xMin="103" yMin="-2" xMax="686" yMax="930">
      <contour>
        <pt x="432" y="797" on="1"/>
        <pt x="565" y="930" on="1"/>
        <pt x="637" y="930" on="1"/>
        <pt x="483" y="797" on="1"/>
      </contour>
      <contour>
        <pt x="359" y="733" on="0"/>
        <pt x="411" y="737" on="0"/>
        <pt x="488" y="737" on="0"/>
        <pt x="547" y="730" on="0"/>
        <pt x="606" y="711" on="0"/>
        <pt x="625" y="694" on="1"/>
        <pt x="670" y="653" on="0"/>
        <pt x="681" y="580" on="1"/>
        <pt x="685" y="550" on="0"/>
        <pt x="685" y="524" on="1"/>
        <pt x="685" y="389" on="0"/>
        <pt x="651" y="250" on="1"/>
        <pt x="617" y="110" on="0"/>
        <pt x="554" y="56" on="1"/>
        <pt x="510" y="18" on="0"/>
        <pt x="471" y="10" on="1"/>
        <pt x="378" y="-11" on="0"/>
        <pt x="274" y="-1" on="1"/>
        <pt x="201" y="6" on="0"/>
        <pt x="166" y="36" on="1"/>
        <pt x="119" y="75" on="0"/>
        <pt x="108" y="145" on="1"/>
        <pt x="103" y="176" on="0"/>
        <pt x="103" y="227" on="0"/>
        <pt x="105" y="293" on="0"/>
        <pt x="126" y="427" on="0"/>
        <pt x="151" y="529" on="0"/>
        <pt x="182" y="604" on="0"/>
        <pt x="215" y="660" on="0"/>
        <pt x="259" y="698" on="0"/>
        <pt x="301" y="721" on="0"/>
      </contour>
      <contour>
        <pt x="215" y="548" on="0"/>
        <pt x="186" y="438" on="0"/>
        <pt x="159" y="270" on="0"/>
        <pt x="159" y="185" on="0"/>
        <pt x="171" y="127" on="0"/>
        <pt x="196" y="85" on="0"/>
        <pt x="221" y="73" on="1"/>
        <pt x="262" y="54" on="0"/>
        <pt x="394" y="54" on="0"/>
        <pt x="462" y="67" on="0"/>
        <pt x="525" y="104" on="0"/>
        <pt x="546" y="139" on="1"/>
        <pt x="591" y="211" on="0"/>
        <pt x="615" y="361" on="1"/>
        <pt x="629" y="450" on="0"/>
        <pt x="629" y="520" on="1"/>
        <pt x="629" y="574" on="0"/>
        <pt x="609" y="620" on="1"/>
        <pt x="597" y="647" on="0"/>
        <pt x="560" y="665" on="1"/>
        <pt x="538" y="676" on="0"/>
        <pt x="471" y="680" on="0"/>
        <pt x="402" y="680" on="0"/>
        <pt x="356" y="675" on="0"/>
        <pt x="293" y="657" on="0"/>
        <pt x="257" y="617" on="0"/>
      </contour>
    </TTGlyph>
    <TTGlyph name="Ocircumflex" xMin="103" yMin="-2" xMax="686" yMax="927">
      <contour>
        <pt x="315" y="797" on="1"/>
        <pt x="458" y="927" on="1"/>
        <pt x="512" y="927" on="1"/>
        <pt x="600" y="797" on="1"/>
        <pt x="551" y="797" on="1"/>
        <pt x="482" y="891" on="1"/>
        <pt x="374" y="797" on="1"/>
      </contour>
      <contour>
        <pt x="359" y="733" on="0"/>
        <pt x="411" y="737" on="0"/>
        <pt x="488" y="737" on="0"/>
        <pt x="547" y="730" on="0"/>
        <pt x="606" y="711" on="0"/>
        <pt x="625" y="694" on="1"/>
        <pt x="670" y="653" on="0"/>
        <pt x="681" y="580" on="1"/>
        <pt x="685" y="550" on="0"/>
        <pt x="685" y="524" on="1"/>
        <pt x="685" y="389" on="0"/>
        <pt x="651" y="250" on="1"/>
        <pt x="617" y="110" on="0"/>
        <pt x="554" y="56" on="1"/>
        <pt x="510" y="18" on="0"/>
        <pt x="471" y="10" on="1"/>
        <pt x="378" y="-11" on="0"/>
        <pt x="274" y="-1" on="1"/>
        <pt x="201" y="6" on="0"/>
        <pt x="166" y="36" on="1"/>
        <pt x="119" y="75" on="0"/>
        <pt x="108" y="145" on="1"/>
        <pt x="103" y="176" on="0"/>
        <pt x="103" y="227" on="0"/>
        <pt x="105" y="293" on="0"/>
        <pt x="126" y="427" on="0"/>
        <pt x="151" y="529" on="0"/>
        <pt x="182" y="604" on="0"/>
        <pt x="215" y="660" on="0"/>
        <pt x="259" y="698" on="0"/>
        <pt x="301" y="721" on="0"/>
      </contour>
      <contour>
        <pt x="215" y="548" on="0"/>
        <pt x="186" y="438" on="0"/>
        <pt x="159" y="270" on="0"/>
        <pt x="159" y="185" on="0"/>
        <pt x="171" y="127" on="0"/>
        <pt x="196" y="85" on="0"/>
        <pt x="221" y="73" on="1"/>
        <pt x="262" y="54" on="0"/>
        <pt x="394" y="54" on="0"/>
        <pt x="462" y="67" on="0"/>
        <pt x="525" y="104" on="0"/>
        <pt x="546" y="139" on="1"/>
        <pt x="591" y="211" on="0"/>
        <pt x="615" y="361" on="1"/>
        <pt x="629" y="450" on="0"/>
        <pt x="629" y="520" on="1"/>
        <pt x="629" y="574" on="0"/>
        <pt x="609" y="620" on="1"/>
        <pt x="597" y="647" on="0"/>
        <pt x="560" y="665" on="1"/>
        <pt x="538" y="676" on="0"/>
        <pt x="471" y="680" on="0"/>
        <pt x="402" y="680" on="0"/>
        <pt x="356" y="675" on="0"/>
        <pt x="293" y="657" on="0"/>
        <pt x="257" y="617" on="0"/>
      </contour>
    </TTGlyph>
    <TTGlyph name="Odieresis" xMin="103" yMin="-2" xMax="686" yMax="877">
      <contour>
        <pt x="326" y="876" on="0"/>
        <pt x="360" y="876" on="0"/>
        <pt x="378" y="854" on="0"/>
        <pt x="373" y="820" on="0"/>
        <pt x="347" y="797" on="0"/>
        <pt x="314" y="797" on="0"/>
        <pt x="294" y="821" on="0"/>
        <pt x="299" y="854" on="0"/>
      </contour>
      <contour>
        <pt x="581" y="876" on="0"/>
        <pt x="615" y="876" on="0"/>
        <pt x="633" y="854" on="0"/>
        <pt x="628" y="820" on="0"/>
        <pt x="602" y="797" on="0"/>
        <pt x="569" y="797" on="0"/>
        <pt x="549" y="821" on="0"/>
        <pt x="554" y="854" on="0"/>
      </contour>
      <contour>
        <pt x="359" y="733" on="0"/>
        <pt x="411" y="737" on="0"/>
        <pt x="488" y="737" on="0"/>
        <pt x="547" y="730" on="0"/>
        <pt x="606" y="711" on="0"/>
        <pt x="625" y="694" on="1"/>
        <pt x="670" y="653" on="0"/>
        <pt x="681" y="580" on="1"/>
        <pt x="685" y="550" on="0"/>
        <pt x="685" y="524" on="1"/>
        <pt x="685" y="389" on="0"/>
        <pt x="651" y="250" on="1"/>
        <pt x="617" y="110" on="0"/>
        <pt x="554" y="56" on="1"/>
        <pt x="510" y="18" on="0"/>
        <pt x="471" y="10" on="1"/>
        <pt x="378" y="-11" on="0"/>
        <pt x="274" y="-1" on="1"/>
        <pt x="201" y="6" on="0"/>
        <pt x="166" y="36" on="1"/>
        <pt x="119" y="75" on="0"/>
        <pt x="108" y="145" on="1"/>
        <pt x="103" y="176" on="0"/>
        <pt x="103" y="227" on="0"/>
        <pt x="105" y="293" on="0"/>
        <pt x="126" y="427" on="0"/>
        <pt x="151" y="529" on="0"/>
        <pt x="182" y="604" on="0"/>
        <pt x="215" y="660" on="0"/>
        <pt x="259" y="698" on="0"/>
        <pt x="301" y="721" on="0"/>
      </contour>
      <contour>
        <pt x="215" y="548" on="0"/>
        <pt x="186" y="438" on="0"/>
        <pt x="159" y="270" on="0"/>
        <pt x="159" y="185" on="0"/>
        <pt x="171" y="127" on="0"/>
        <pt x="196" y="85" on="0"/>
        <pt x="221" y="73" on="1"/>
        <pt x="262" y="54" on="0"/>
        <pt x="394" y="54" on="0"/>
        <pt x="462" y="67" on="0"/>
        <pt x="525" y="104" on="0"/>
        <pt x="546" y="139" on="1"/>
        <pt x="591" y="211" on="0"/>
        <pt x="615" y="361" on="1"/>
        <pt x="629" y="450" on="0"/>
        <pt x="629" y="520" on="1"/>
        <pt x="629" y="574" on="0"/>
        <pt x="609" y="620" on="1"/>
        <pt x="597" y="647" on="0"/>
        <pt x="560" y="665" on="1"/>
        <pt x="538" y="676" on="0"/>
        <pt x="471" y="680" on="0"/>
        <pt x="402" y="680" on="0"/>
        <pt x="356" y="675" on="0"/>
        <pt x="293" y="657" on="0"/>
        <pt x="257" y="617" on="0"/>
      </contour>
    </TTGlyph>
    <TTGlyph name="Ograve" xMin="103" yMin="-2" xMax="686" yMax="930">
      <contour>
        <pt x="312" y="930" on="1"/>
        <pt x="379" y="930" on="1"/>
        <pt x="483" y="797" on="1"/>
        <pt x="432" y="797" on="1"/>
      </contour>
      <contour>
        <pt x="359" y="733" on="0"/>
        <pt x="411" y="737" on="0"/>
        <pt x="488" y="737" on="0"/>
        <pt x="547" y="730" on="0"/>
        <pt x="606" y="711" on="0"/>
        <pt x="625" y="694" on="1"/>
        <pt x="670" y="653" on="0"/>
        <pt x="681" y="580" on="1"/>
        <pt x="685" y="550" on="0"/>
        <pt x="685" y="524" on="1"/>
        <pt x="685" y="389" on="0"/>
        <pt x="651" y="250" on="1"/>
        <pt x="617" y="110" on="0"/>
        <pt x="554" y="56" on="1"/>
        <pt x="510" y="18" on="0"/>
        <pt x="471" y="10" on="1"/>
        <pt x="378" y="-11" on="0"/>
        <pt x="274" y="-1" on="1"/>
        <pt x="201" y="6" on="0"/>
        <pt x="166" y="36" on="1"/>
        <pt x="119" y="75" on="0"/>
        <pt x="108" y="145" on="1"/>
        <pt x="103" y="176" on="0"/>
        <pt x="103" y="227" on="0"/>
        <pt x="105" y="293" on="0"/>
        <pt x="126" y="427" on="0"/>
        <pt x="151" y="529" on="0"/>
        <pt x="182" y="604" on="0"/>
        <pt x="215" y="660" on="0"/>
        <pt x="259" y="698" on="0"/>
        <pt x="301" y="721" on="0"/>
      </contour>
      <contour>
        <pt x="215" y="548" on="0"/>
        <pt x="186" y="438" on="0"/>
        <pt x="159" y="270" on="0"/>
        <pt x="159" y="185" on="0"/>
        <pt x="171" y="127" on="0"/>
        <pt x="196" y="85" on="0"/>
        <pt x="221" y="73" on="1"/>
        <pt x="262" y="54" on="0"/>
        <pt x="394" y="54" on="0"/>
        <pt x="462" y="67" on="0"/>
        <pt x="525" y="104" on="0"/>
        <pt x="546" y="139" on="1"/>
        <pt x="591" y="211" on="0"/>
        <pt x="615" y="361" on="1"/>
        <pt x="629" y="450" on="0"/>
        <pt x="629" y="520" on="1"/>
        <pt x="629" y="574" on="0"/>
        <pt x="609" y="620" on="1"/>
        <pt x="597" y="647" on="0"/>
        <pt x="560" y="665" on="1"/>
        <pt x="538" y="676" on="0"/>
        <pt x="471" y="680" on="0"/>
        <pt x="402" y="680" on="0"/>
        <pt x="356" y="675" on="0"/>
        <pt x="293" y="657" on="0"/>
        <pt x="257" y="617" on="0"/>
      </contour>
    </TTGlyph>
    <TTGlyph name="Ohungarumlaut" xMin="103" yMin="-2" xMax="705" yMax="930">
      <contour>
        <pt x="364" y="797" on="1"/>
        <pt x="496" y="930" on="1"/>
        <pt x="569" y="930" on="1"/>
        <pt x="415" y="797" on="1"/>
      </contour>
      <contour>
        <pt x="500" y="797" on="1"/>
        <pt x="633" y="930" on="1"/>
        <pt x="705" y="930" on="1"/>
        <pt x="551" y="797" on="1"/>
      </contour>
      <contour>
        <pt x="359" y="733" on="0"/>
        <pt x="411" y="737" on="0"/>
        <pt x="488" y="737" on="0"/>
        <pt x="547" y="730" on="0"/>
        <pt x="606" y="711" on="0"/>
        <pt x="625" y="694" on="1"/>
        <pt x="670" y="653" on="0"/>
        <pt x="681" y="580" on="1"/>
        <pt x="685" y="550" on="0"/>
        <pt x="685" y="524" on="1"/>
        <pt x="685" y="389" on="0"/>
        <pt x="651" y="250" on="1"/>
        <pt x="617" y="110" on="0"/>
        <pt x="554" y="56" on="1"/>
        <pt x="510" y="18" on="0"/>
        <pt x="471" y="10" on="1"/>
        <pt x="378" y="-11" on="0"/>
        <pt x="274" y="-1" on="1"/>
        <pt x="201" y="6" on="0"/>
        <pt x="166" y="36" on="1"/>
        <pt x="119" y="75" on="0"/>
        <pt x="108" y="145" on="1"/>
        <pt x="103" y="176" on="0"/>
        <pt x="103" y="227" on="0"/>
        <pt x="105" y="293" on="0"/>
        <pt x="126" y="427" on="0"/>
        <pt x="151" y="529" on="0"/>
        <pt x="182" y="604" on="0"/>
        <pt x="215" y="660" on="0"/>
        <pt x="259" y="698" on="0"/>
        <pt x="301" y="721" on="0"/>
      </contour>
      <contour>
        <pt x="215" y="548" on="0"/>
        <pt x="186" y="438" on="0"/>
        <pt x="159" y="270" on="0"/>
        <pt x="159" y="185" on="0"/>
        <pt x="171" y="127" on="0"/>
        <pt x="196" y="85" on="0"/>
        <pt x="221" y="73" on="1"/>
        <pt x="262" y="54" on="0"/>
        <pt x="394" y="54" on="0"/>
        <pt x="462" y="67" on="0"/>
        <pt x="525" y="104" on="0"/>
        <pt x="546" y="139" on="1"/>
        <pt x="591" y="211" on="0"/>
        <pt x="615" y="361" on="1"/>
        <pt x="629" y="450" on="0"/>
        <pt x="629" y="520" on="1"/>
        <pt x="629" y="574" on="0"/>
        <pt x="609" y="620" on="1"/>
        <pt x="597" y="647" on="0"/>
        <pt x="560" y="665" on="1"/>
        <pt x="538" y="676" on="0"/>
        <pt x="471" y="680" on="0"/>
        <pt x="402" y="680" on="0"/>
        <pt x="356" y="675" on="0"/>
        <pt x="293" y="657" on="0"/>
        <pt x="257" y="617" on="0"/>
      </contour>
    </TTGlyph>
    <TTGlyph name="Omacron" xMin="103" yMin="-2" xMax="686" yMax="841">
      <contour>
        <pt x="323" y="794" on="1"/>
        <pt x="330" y="841" on="1"/>
        <pt x="609" y="841" on="1"/>
        <pt x="602" y="794" on="1"/>
      </contour>
      <contour>
        <pt x="359" y="733" on="0"/>
        <pt x="411" y="737" on="0"/>
        <pt x="488" y="737" on="0"/>
        <pt x="547" y="730" on="0"/>
        <pt x="606" y="711" on="0"/>
        <pt x="625" y="694" on="1"/>
        <pt x="670" y="653" on="0"/>
        <pt x="681" y="580" on="1"/>
        <pt x="685" y="550" on="0"/>
        <pt x="685" y="524" on="1"/>
        <pt x="685" y="389" on="0"/>
        <pt x="651" y="250" on="1"/>
        <pt x="617" y="110" on="0"/>
        <pt x="554" y="56" on="1"/>
        <pt x="510" y="18" on="0"/>
        <pt x="471" y="10" on="1"/>
        <pt x="378" y="-11" on="0"/>
        <pt x="274" y="-1" on="1"/>
        <pt x="201" y="6" on="0"/>
        <pt x="166" y="36" on="1"/>
        <pt x="119" y="75" on="0"/>
        <pt x="108" y="145" on="1"/>
        <pt x="103" y="176" on="0"/>
        <pt x="103" y="227" on="0"/>
        <pt x="105" y="293" on="0"/>
        <pt x="126" y="427" on="0"/>
        <pt x="151" y="529" on="0"/>
        <pt x="182" y="604" on="0"/>
        <pt x="215" y="660" on="0"/>
        <pt x="259" y="698" on="0"/>
        <pt x="301" y="721" on="0"/>
      </contour>
      <contour>
        <pt x="215" y="548" on="0"/>
        <pt x="186" y="438" on="0"/>
        <pt x="159" y="270" on="0"/>
        <pt x="159" y="185" on="0"/>
        <pt x="171" y="127" on="0"/>
        <pt x="196" y="85" on="0"/>
        <pt x="221" y="73" on="1"/>
        <pt x="262" y="54" on="0"/>
        <pt x="394" y="54" on="0"/>
        <pt x="462" y="67" on="0"/>
        <pt x="525" y="104" on="0"/>
        <pt x="546" y="139" on="1"/>
        <pt x="591" y="211" on="0"/>
        <pt x="615" y="361" on="1"/>
        <pt x="629" y="450" on="0"/>
        <pt x="629" y="520" on="1"/>
        <pt x="629" y="574" on="0"/>
        <pt x="609" y="620" on="1"/>
        <pt x="597" y="647" on="0"/>
        <pt x="560" y="665" on="1"/>
        <pt x="538" y="676" on="0"/>
        <pt x="471" y="680" on="0"/>
        <pt x="402" y="680" on="0"/>
        <pt x="356" y="675" on="0"/>
        <pt x="293" y="657" on="0"/>
        <pt x="257" y="617" on="0"/>
      </contour>
    </TTGlyph>
    <TTGlyph name="Omega" xMin="71" yMin="0" xMax="767" yMax="739">
      <contour>
        <pt x="767" y="484" on="1"/>
        <pt x="767" y="187" on="0"/>
        <pt x="565" y="59" on="1"/>
        <pt x="712" y="49" on="1"/>
        <pt x="704" y="0" on="1"/>
        <pt x="476" y="0" on="1"/>
        <pt x="486" y="60" on="1"/>
        <pt x="600" y="128" on="0"/>
        <pt x="646" y="209" on="1"/>
        <pt x="686" y="280" on="0"/>
        <pt x="703" y="385" on="1"/>
        <pt x="710" y="447" on="0"/>
        <pt x="710" y="523" on="0"/>
        <pt x="687" y="594" on="0"/>
        <pt x="664" y="622" on="1"/>
        <pt x="614" y="682" on="0"/>
        <pt x="493" y="682" on="1"/>
        <pt x="347" y="682" on="0"/>
        <pt x="271" y="590" on="1"/>
        <pt x="202" y="508" on="0"/>
        <pt x="183" y="381" on="1"/>
        <pt x="174" y="331" on="0"/>
        <pt x="174" y="276" on="0"/>
        <pt x="175" y="262" on="1"/>
        <pt x="179" y="211" on="0"/>
        <pt x="237" y="118" on="0"/>
        <pt x="301" y="60" on="1"/>
        <pt x="291" y="0" on="1"/>
        <pt x="71" y="0" on="1"/>
        <pt x="79" y="50" on="1"/>
        <pt x="233" y="60" on="1"/>
        <pt x="193" y="92" on="0"/>
        <pt x="168" y="129" on="1"/>
        <pt x="123" y="196" on="0"/>
        <pt x="118" y="270" on="1"/>
        <pt x="117" y="289" on="0"/>
        <pt x="117" y="305" on="1"/>
        <pt x="117" y="338" on="0"/>
        <pt x="136" y="443" on="0"/>
        <pt x="166" y="532" on="0"/>
        <pt x="225" y="628" on="0"/>
        <pt x="303" y="695" on="0"/>
        <pt x="426" y="739" on="0"/>
        <pt x="569" y="739" on="0"/>
        <pt x="672" y="700" on="0"/>
        <pt x="701" y="666" on="1"/>
        <pt x="767" y="590" on="0"/>
      </contour>
    </TTGlyph>
    <TTGlyph name="Oslash" xMin="74" yMin="-4" xMax="708" yMax="737">
      <contour>
        <pt x="131" y="72" on="1"/>
        <pt x="101" y="121" on="0"/>
        <pt x="101" y="279" on="0"/>
        <pt x="125" y="435" on="0"/>
        <pt x="156" y="547" on="0"/>
        <pt x="189" y="626" on="0"/>
        <pt x="235" y="681" on="0"/>
        <pt x="280" y="714" on="0"/>
        <pt x="312" y="723" on="1"/>
        <pt x="364" y="737" on="0"/>
        <pt x="509" y="737" on="0"/>
        <pt x="598" y="717" on="0"/>
        <pt x="627" y="690" on="1"/>
        <pt x="661" y="732" on="1"/>
        <pt x="707" y="732" on="1"/>
        <pt x="651" y="662" on="1"/>
        <pt x="683" y="610" on="0"/>
        <pt x="683" y="509" on="1"/>
        <pt x="683" y="444" on="0"/>
        <pt x="658" y="279" on="0"/>
        <pt x="624" y="161" on="0"/>
        <pt x="578" y="81" on="0"/>
        <pt x="528" y="31" on="0"/>
        <pt x="492" y="18" on="1"/>
        <pt x="432" y="-4" on="0"/>
        <pt x="274" y="-4" on="0"/>
        <pt x="185" y="15" on="0"/>
        <pt x="156" y="43" on="1"/>
        <pt x="121" y="0" on="1"/>
        <pt x="74" y="0" on="1"/>
      </contour>
      <contour>
        <pt x="213" y="548" on="0"/>
        <pt x="184" y="438" on="0"/>
        <pt x="158" y="277" on="0"/>
        <pt x="158" y="157" on="0"/>
        <pt x="173" y="123" on="1"/>
        <pt x="590" y="644" on="1"/>
        <pt x="568" y="667" on="0"/>
        <pt x="500" y="680" on="0"/>
        <pt x="400" y="680" on="0"/>
        <pt x="354" y="675" on="0"/>
        <pt x="291" y="657" on="0"/>
        <pt x="255" y="617" on="0"/>
      </contour>
      <contour>
        <pt x="280" y="56" on="1"/>
        <pt x="307" y="54" on="0"/>
        <pt x="393" y="54" on="0"/>
        <pt x="461" y="67" on="0"/>
        <pt x="523" y="104" on="0"/>
        <pt x="544" y="139" on="1"/>
        <pt x="589" y="211" on="0"/>
        <pt x="613" y="361" on="1"/>
        <pt x="626" y="449" on="0"/>
        <pt x="626" y="576" on="0"/>
        <pt x="611" y="611" on="1"/>
        <pt x="194" y="91" on="1"/>
        <pt x="221" y="63" on="0"/>
      </contour>
    </TTGlyph>
    <TTGlyph name="Otilde" xMin="103" yMin="-2" xMax="686" yMax="897">
      <contour>
        <pt x="543" y="850" on="0"/>
        <pt x="611" y="880" on="0"/>
        <pt x="625" y="890" on="1"/>
        <pt x="637" y="860" on="1"/>
        <pt x="630" y="855" on="0"/>
        <pt x="603" y="836" on="0"/>
        <pt x="588" y="825" on="0"/>
        <pt x="565" y="811" on="0"/>
        <pt x="556" y="807" on="1"/>
        <pt x="506" y="785" on="0"/>
        <pt x="465" y="815" on="1"/>
        <pt x="455" y="822" on="0"/>
        <pt x="446" y="828" on="1"/>
        <pt x="425" y="845" on="0"/>
        <pt x="396" y="844" on="0"/>
        <pt x="374" y="840" on="0"/>
        <pt x="353" y="831" on="0"/>
        <pt x="337" y="822" on="0"/>
        <pt x="313" y="808" on="0"/>
        <pt x="305" y="805" on="1"/>
        <pt x="294" y="835" on="1"/>
        <pt x="346" y="874" on="0"/>
        <pt x="399" y="897" on="0"/>
        <pt x="443" y="896" on="0"/>
        <pt x="476" y="873" on="1"/>
        <pt x="511" y="850" on="0"/>
      </contour>
      <contour>
        <pt x="359" y="733" on="0"/>
        <pt x="411" y="737" on="0"/>
        <pt x="488" y="737" on="0"/>
        <pt x="547" y="730" on="0"/>
        <pt x="606" y="711" on="0"/>
        <pt x="625" y="694" on="1"/>
        <pt x="670" y="653" on="0"/>
        <pt x="681" y="580" on="1"/>
        <pt x="685" y="550" on="0"/>
        <pt x="685" y="524" on="1"/>
        <pt x="685" y="389" on="0"/>
        <pt x="651" y="250" on="1"/>
        <pt x="617" y="110" on="0"/>
        <pt x="554" y="56" on="1"/>
        <pt x="510" y="18" on="0"/>
        <pt x="471" y="10" on="1"/>
        <pt x="378" y="-11" on="0"/>
        <pt x="274" y="-1" on="1"/>
        <pt x="201" y="6" on="0"/>
        <pt x="166" y="36" on="1"/>
        <pt x="119" y="75" on="0"/>
        <pt x="108" y="145" on="1"/>
        <pt x="103" y="176" on="0"/>
        <pt x="103" y="227" on="0"/>
        <pt x="105" y="293" on="0"/>
        <pt x="126" y="427" on="0"/>
        <pt x="151" y="529" on="0"/>
        <pt x="182" y="604" on="0"/>
        <pt x="215" y="660" on="0"/>
        <pt x="259" y="698" on="0"/>
        <pt x="301" y="721" on="0"/>
      </contour>
      <contour>
        <pt x="215" y="548" on="0"/>
        <pt x="186" y="438" on="0"/>
        <pt x="159" y="270" on="0"/>
        <pt x="159" y="185" on="0"/>
        <pt x="171" y="127" on="0"/>
        <pt x="196" y="85" on="0"/>
        <pt x="221" y="73" on="1"/>
        <pt x="262" y="54" on="0"/>
        <pt x="394" y="54" on="0"/>
        <pt x="462" y="67" on="0"/>
        <pt x="525" y="104" on="0"/>
        <pt x="546" y="139" on="1"/>
        <pt x="591" y="211" on="0"/>
        <pt x="615" y="361" on="1"/>
        <pt x="629" y="450" on="0"/>
        <pt x="629" y="520" on="1"/>
        <pt x="629" y="574" on="0"/>
        <pt x="609" y="620" on="1"/>
        <pt x="597" y="647" on="0"/>
        <pt x="560" y="665" on="1"/>
        <pt x="538" y="676" on="0"/>
        <pt x="471" y="680" on="0"/>
        <pt x="402" y="680" on="0"/>
        <pt x="356" y="675" on="0"/>
        <pt x="293" y="657" on="0"/>
        <pt x="257" y="617" on="0"/>
      </contour>
    </TTGlyph>
    <TTGlyph name="P" xMin="75" yMin="0" xMax="634" yMax="732">
      <contour>
        <pt x="487" y="732" on="1"/>
        <pt x="553" y="732" on="0"/>
        <pt x="597" y="692" on="1"/>
        <pt x="634" y="657" on="0"/>
        <pt x="634" y="578" on="1"/>
        <pt x="634" y="511" on="0"/>
        <pt x="600" y="408" on="0"/>
        <pt x="576" y="363" on="0"/>
        <pt x="538" y="331" on="0"/>
        <pt x="510" y="315" on="0"/>
        <pt x="488" y="311" on="1"/>
        <pt x="460" y="306" on="0"/>
        <pt x="390" y="306" on="0"/>
        <pt x="188" y="319" on="0"/>
        <pt x="184" y="321" on="1"/>
        <pt x="132" y="0" on="1"/>
        <pt x="75" y="0" on="1"/>
        <pt x="191" y="732" on="1"/>
      </contour>
      <contour>
        <pt x="428" y="364" on="1"/>
        <pt x="516" y="364" on="0"/>
        <pt x="549" y="440" on="1"/>
        <pt x="563" y="473" on="0"/>
        <pt x="576" y="546" on="0"/>
        <pt x="576" y="571" on="0"/>
        <pt x="573" y="599" on="0"/>
        <pt x="568" y="630" on="0"/>
        <pt x="550" y="652" on="0"/>
        <pt x="535" y="665" on="0"/>
        <pt x="522" y="668" on="1"/>
        <pt x="502" y="674" on="0"/>
        <pt x="478" y="674" on="1"/>
        <pt x="239" y="674" on="1"/>
        <pt x="190" y="364" on="1"/>
      </contour>
    </TTGlyph>
    <TTGlyph name="Q" xMin="107" yMin="-140" xMax="690" yMax="737">
      <contour>
        <pt x="363" y="733" on="0"/>
        <pt x="415" y="737" on="0"/>
        <pt x="492" y="737" on="0"/>
        <pt x="551" y="730" on="0"/>
        <pt x="610" y="711" on="0"/>
        <pt x="629" y="694" on="1"/>
        <pt x="674" y="653" on="0"/>
        <pt x="685" y="580" on="1"/>
        <pt x="689" y="550" on="0"/>
        <pt x="689" y="524" on="1"/>
        <pt x="689" y="368" on="0"/>
        <pt x="647" y="220" on="1"/>
        <pt x="617" y="115" on="0"/>
        <pt x="559" y="56" on="1"/>
        <pt x="514" y="12" on="0"/>
        <pt x="428" y="1" on="1"/>
        <pt x="394" y="-4" on="0"/>
        <pt x="306" y="-4" on="0"/>
        <pt x="249" y="2" on="0"/>
        <pt x="189" y="20" on="0"/>
        <pt x="170" y="36" on="1"/>
        <pt x="123" y="75" on="0"/>
        <pt x="112" y="145" on="1"/>
        <pt x="107" y="176" on="0"/>
        <pt x="107" y="227" on="0"/>
        <pt x="109" y="293" on="0"/>
        <pt x="130" y="427" on="0"/>
        <pt x="155" y="529" on="0"/>
        <pt x="186" y="604" on="0"/>
        <pt x="219" y="660" on="0"/>
        <pt x="263" y="698" on="0"/>
        <pt x="305" y="721" on="0"/>
      </contour>
      <contour>
        <pt x="219" y="548" on="0"/>
        <pt x="190" y="438" on="0"/>
        <pt x="164" y="274" on="0"/>
        <pt x="164" y="196" on="0"/>
        <pt x="167" y="149" on="0"/>
        <pt x="187" y="104" on="0"/>
        <pt x="215" y="75" on="0"/>
        <pt x="238" y="67" on="1"/>
        <pt x="279" y="53" on="0"/>
        <pt x="398" y="54" on="0"/>
        <pt x="466" y="67" on="0"/>
        <pt x="529" y="104" on="0"/>
        <pt x="550" y="139" on="1"/>
        <pt x="595" y="211" on="0"/>
        <pt x="619" y="361" on="1"/>
        <pt x="633" y="450" on="0"/>
        <pt x="633" y="520" on="1"/>
        <pt x="633" y="574" on="0"/>
        <pt x="613" y="620" on="1"/>
        <pt x="601" y="647" on="0"/>
        <pt x="564" y="665" on="1"/>
        <pt x="542" y="676" on="0"/>
        <pt x="475" y="680" on="0"/>
        <pt x="406" y="680" on="0"/>
        <pt x="360" y="675" on="0"/>
        <pt x="297" y="657" on="0"/>
        <pt x="261" y="617" on="0"/>
      </contour>
      <contour>
        <pt x="447" y="-80" on="1"/>
        <pt x="479" y="-80" on="0"/>
        <pt x="517" y="-67" on="1"/>
        <pt x="507" y="-129" on="1"/>
        <pt x="482" y="-139" on="0"/>
        <pt x="449" y="-139" on="0"/>
        <pt x="411" y="-137" on="0"/>
        <pt x="353" y="-118" on="0"/>
        <pt x="313" y="-68" on="0"/>
        <pt x="312" y="-33" on="1"/>
        <pt x="352" y="-33" on="1"/>
        <pt x="387" y="-80" on="0"/>
      </contour>
    </TTGlyph>
    <TTGlyph name="R" xMin="75" yMin="-1" xMax="632" yMax="732">
      <contour>
        <pt x="491" y="732" on="1"/>
        <pt x="559" y="732" on="0"/>
        <pt x="598" y="689" on="1"/>
        <pt x="632" y="653" on="0"/>
        <pt x="632" y="572" on="1"/>
        <pt x="632" y="488" on="0"/>
        <pt x="590" y="383" on="0"/>
        <pt x="555" y="342" on="0"/>
        <pt x="506" y="316" on="0"/>
        <pt x="477" y="310" on="0"/>
        <pt x="459" y="309" on="1"/>
        <pt x="566" y="0" on="1"/>
        <pt x="503" y="0" on="1"/>
        <pt x="401" y="304" on="1"/>
        <pt x="387" y="304" on="0"/>
        <pt x="184" y="316" on="0"/>
        <pt x="183" y="316" on="1"/>
        <pt x="132" y="0" on="1"/>
        <pt x="75" y="0" on="1"/>
        <pt x="191" y="732" on="1"/>
      </contour>
      <contour>
        <pt x="429" y="364" on="1"/>
        <pt x="552" y="364" on="0"/>
        <pt x="570" y="519" on="1"/>
        <pt x="573" y="569" on="0"/>
        <pt x="573" y="605" on="0"/>
        <pt x="561" y="638" on="0"/>
        <pt x="547" y="659" on="0"/>
        <pt x="535" y="664" on="1"/>
        <pt x="514" y="673" on="0"/>
        <pt x="482" y="673" on="1"/>
        <pt x="240" y="673" on="1"/>
        <pt x="191" y="364" on="1"/>
      </contour>
    </TTGlyph>
    <TTGlyph name="Racute" xMin="75" yMin="0" xMax="632" yMax="930">
      <contour>
        <pt x="389" y="797" on="1"/>
        <pt x="522" y="930" on="1"/>
        <pt x="594" y="930" on="1"/>
        <pt x="440" y="797" on="1"/>
      </contour>
      <contour>
        <pt x="491" y="732" on="1"/>
        <pt x="559" y="732" on="0"/>
        <pt x="598" y="689" on="1"/>
        <pt x="632" y="653" on="0"/>
        <pt x="632" y="572" on="1"/>
        <pt x="632" y="488" on="0"/>
        <pt x="590" y="383" on="0"/>
        <pt x="555" y="342" on="0"/>
        <pt x="506" y="316" on="0"/>
        <pt x="477" y="310" on="0"/>
        <pt x="459" y="309" on="1"/>
        <pt x="566" y="0" on="1"/>
        <pt x="503" y="0" on="1"/>
        <pt x="401" y="304" on="1"/>
        <pt x="387" y="304" on="0"/>
        <pt x="184" y="316" on="0"/>
        <pt x="183" y="316" on="1"/>
        <pt x="132" y="0" on="1"/>
        <pt x="75" y="0" on="1"/>
        <pt x="191" y="732" on="1"/>
      </contour>
      <contour>
        <pt x="429" y="364" on="1"/>
        <pt x="552" y="364" on="0"/>
        <pt x="570" y="519" on="1"/>
        <pt x="573" y="569" on="0"/>
        <pt x="573" y="605" on="0"/>
        <pt x="561" y="638" on="0"/>
        <pt x="547" y="659" on="0"/>
        <pt x="535" y="664" on="1"/>
        <pt x="514" y="674" on="0"/>
        <pt x="482" y="674" on="1"/>
        <pt x="240" y="674" on="1"/>
        <pt x="191" y="364" on="1"/>
      </contour>
    </TTGlyph>
    <TTGlyph name="Rcaron" xMin="75" yMin="0" xMax="632" yMax="927">
      <contour>
        <pt x="296" y="927" on="1"/>
        <pt x="345" y="927" on="1"/>
        <pt x="414" y="833" on="1"/>
        <pt x="522" y="927" on="1"/>
        <pt x="581" y="927" on="1"/>
        <pt x="439" y="797" on="1"/>
        <pt x="384" y="797" on="1"/>
      </contour>
      <contour>
        <pt x="491" y="732" on="1"/>
        <pt x="559" y="732" on="0"/>
        <pt x="598" y="689" on="1"/>
        <pt x="632" y="653" on="0"/>
        <pt x="632" y="572" on="1"/>
        <pt x="632" y="488" on="0"/>
        <pt x="590" y="383" on="0"/>
        <pt x="555" y="342" on="0"/>
        <pt x="506" y="316" on="0"/>
        <pt x="477" y="310" on="0"/>
        <pt x="459" y="309" on="1"/>
        <pt x="566" y="0" on="1"/>
        <pt x="503" y="0" on="1"/>
        <pt x="401" y="304" on="1"/>
        <pt x="387" y="304" on="0"/>
        <pt x="184" y="316" on="0"/>
        <pt x="183" y="316" on="1"/>
        <pt x="132" y="0" on="1"/>
        <pt x="75" y="0" on="1"/>
        <pt x="191" y="732" on="1"/>
      </contour>
      <contour>
        <pt x="429" y="364" on="1"/>
        <pt x="552" y="364" on="0"/>
        <pt x="570" y="519" on="1"/>
        <pt x="573" y="569" on="0"/>
        <pt x="573" y="605" on="0"/>
        <pt x="561" y="638" on="0"/>
        <pt x="547" y="659" on="0"/>
        <pt x="535" y="664" on="1"/>
        <pt x="514" y="674" on="0"/>
        <pt x="482" y="674" on="1"/>
        <pt x="240" y="674" on="1"/>
        <pt x="191" y="364" on="1"/>
      </contour>
    </TTGlyph>
    <TTGlyph name="Rcommaaccent" xMin="75" yMin="-230" xMax="632" yMax="732">
      <contour>
        <pt x="264" y="-207" on="1"/>
        <pt x="286" y="-207" on="0"/>
        <pt x="290" y="-184" on="1"/>
        <pt x="294" y="-155" on="1"/>
        <pt x="286" y="-155" on="1"/>
        <pt x="267" y="-155" on="0"/>
        <pt x="270" y="-136" on="1"/>
        <pt x="278" y="-85" on="1"/>
        <pt x="281" y="-65" on="0"/>
        <pt x="300" y="-65" on="1"/>
        <pt x="334" y="-65" on="1"/>
        <pt x="351" y="-65" on="0"/>
        <pt x="348" y="-85" on="1"/>
        <pt x="335" y="-173" on="1"/>
        <pt x="329" y="-211" on="0"/>
        <pt x="303" y="-222" on="1"/>
        <pt x="286" y="-230" on="0"/>
        <pt x="268" y="-230" on="0"/>
        <pt x="259" y="-228" on="1"/>
        <pt x="263" y="-207" on="1"/>
        <pt x="263" y="-207" on="0"/>
      </contour>
      <contour>
        <pt x="491" y="732" on="1"/>
        <pt x="559" y="732" on="0"/>
        <pt x="598" y="689" on="1"/>
        <pt x="632" y="653" on="0"/>
        <pt x="632" y="572" on="1"/>
        <pt x="632" y="488" on="0"/>
        <pt x="590" y="383" on="0"/>
        <pt x="555" y="342" on="0"/>
        <pt x="506" y="316" on="0"/>
        <pt x="477" y="310" on="0"/>
        <pt x="459" y="309" on="1"/>
        <pt x="566" y="0" on="1"/>
        <pt x="503" y="0" on="1"/>
        <pt x="401" y="304" on="1"/>
        <pt x="387" y="304" on="0"/>
        <pt x="184" y="316" on="0"/>
        <pt x="183" y="316" on="1"/>
        <pt x="132" y="0" on="1"/>
        <pt x="75" y="0" on="1"/>
        <pt x="191" y="732" on="1"/>
      </contour>
      <contour>
        <pt x="429" y="364" on="1"/>
        <pt x="552" y="364" on="0"/>
        <pt x="570" y="519" on="1"/>
        <pt x="573" y="569" on="0"/>
        <pt x="573" y="605" on="0"/>
        <pt x="561" y="638" on="0"/>
        <pt x="547" y="659" on="0"/>
        <pt x="535" y="664" on="1"/>
        <pt x="514" y="674" on="0"/>
        <pt x="482" y="674" on="1"/>
        <pt x="240" y="674" on="1"/>
        <pt x="191" y="364" on="1"/>
      </contour>
    </TTGlyph>
    <TTGlyph name="S" xMin="79" yMin="-9" xMax="606" yMax="739">
      <contour>
        <pt x="329" y="50" on="1"/>
        <pt x="472" y="50" on="0"/>
        <pt x="488" y="156" on="1"/>
        <pt x="499" y="224" on="1"/>
        <pt x="501" y="243" on="0"/>
        <pt x="501" y="271" on="0"/>
        <pt x="500" y="281" on="1"/>
        <pt x="493" y="330" on="0"/>
        <pt x="414" y="330" on="1"/>
        <pt x="284" y="330" on="1"/>
        <pt x="194" y="330" on="0"/>
        <pt x="160" y="366" on="1"/>
        <pt x="130" y="399" on="0"/>
        <pt x="130" y="441" on="1"/>
        <pt x="130" y="452" on="0"/>
        <pt x="134" y="495" on="1"/>
        <pt x="144" y="561" on="1"/>
        <pt x="162" y="672" on="0"/>
        <pt x="225" y="708" on="1"/>
        <pt x="277" y="738" on="0"/>
        <pt x="356" y="738" on="1"/>
        <pt x="416" y="738" on="0"/>
        <pt x="586" y="719" on="0"/>
        <pt x="605" y="716" on="1"/>
        <pt x="598" y="672" on="1"/>
        <pt x="359" y="681" on="1"/>
        <pt x="351" y="681" on="0"/>
        <pt x="344" y="681" on="1"/>
        <pt x="285" y="681" on="0"/>
        <pt x="213" y="634" on="0"/>
        <pt x="202" y="560" on="1"/>
        <pt x="191" y="494" on="1"/>
        <pt x="185" y="452" on="0"/>
        <pt x="195" y="422" on="0"/>
        <pt x="202" y="406" on="0"/>
        <pt x="220" y="396" on="0"/>
        <pt x="234" y="391" on="0"/>
        <pt x="247" y="389" on="1"/>
        <pt x="266" y="388" on="0"/>
        <pt x="293" y="388" on="1"/>
        <pt x="423" y="388" on="1"/>
        <pt x="469" y="388" on="0"/>
        <pt x="530" y="359" on="0"/>
        <pt x="542" y="336" on="1"/>
        <pt x="560" y="301" on="0"/>
        <pt x="560" y="241" on="0"/>
        <pt x="556" y="222" on="1"/>
        <pt x="545" y="154" on="1"/>
        <pt x="534" y="81" on="0"/>
        <pt x="496" y="46" on="1"/>
        <pt x="456" y="10" on="0"/>
        <pt x="421" y="3" on="1"/>
        <pt x="368" y="-8" on="0"/>
        <pt x="272" y="-8" on="0"/>
        <pt x="111" y="7" on="0"/>
        <pt x="79" y="13" on="1"/>
        <pt x="86" y="58" on="1"/>
        <pt x="156" y="50" on="0"/>
      </contour>
    </TTGlyph>
    <TTGlyph name="Sacute" xMin="70" yMin="-9" xMax="598" yMax="931">
      <contour>
        <pt x="381" y="798" on="1"/>
        <pt x="513" y="931" on="1"/>
        <pt x="586" y="931" on="1"/>
        <pt x="432" y="798" on="1"/>
      </contour>
      <contour>
        <pt x="321" y="50" on="1"/>
        <pt x="464" y="50" on="0"/>
        <pt x="480" y="156" on="1"/>
        <pt x="491" y="224" on="1"/>
        <pt x="493" y="243" on="0"/>
        <pt x="493" y="271" on="0"/>
        <pt x="492" y="281" on="1"/>
        <pt x="485" y="330" on="0"/>
        <pt x="406" y="330" on="1"/>
        <pt x="276" y="330" on="1"/>
        <pt x="186" y="330" on="0"/>
        <pt x="152" y="366" on="1"/>
        <pt x="122" y="399" on="0"/>
        <pt x="122" y="441" on="1"/>
        <pt x="122" y="452" on="0"/>
        <pt x="126" y="495" on="1"/>
        <pt x="136" y="561" on="1"/>
        <pt x="154" y="672" on="0"/>
        <pt x="217" y="708" on="1"/>
        <pt x="269" y="738" on="0"/>
        <pt x="348" y="738" on="1"/>
        <pt x="401" y="738" on="0"/>
        <pt x="571" y="720" on="0"/>
        <pt x="597" y="716" on="1"/>
        <pt x="590" y="672" on="1"/>
        <pt x="351" y="680" on="1"/>
        <pt x="342" y="681" on="0"/>
        <pt x="310" y="681" on="0"/>
        <pt x="268" y="674" on="0"/>
        <pt x="247" y="661" on="1"/>
        <pt x="206" y="636" on="0"/>
        <pt x="194" y="560" on="1"/>
        <pt x="183" y="494" on="1"/>
        <pt x="177" y="452" on="0"/>
        <pt x="187" y="422" on="0"/>
        <pt x="194" y="406" on="0"/>
        <pt x="212" y="396" on="0"/>
        <pt x="226" y="391" on="0"/>
        <pt x="239" y="389" on="1"/>
        <pt x="258" y="388" on="0"/>
        <pt x="285" y="388" on="1"/>
        <pt x="415" y="388" on="1"/>
        <pt x="461" y="388" on="0"/>
        <pt x="522" y="359" on="0"/>
        <pt x="534" y="336" on="1"/>
        <pt x="552" y="301" on="0"/>
        <pt x="552" y="241" on="0"/>
        <pt x="548" y="222" on="1"/>
        <pt x="537" y="154" on="1"/>
        <pt x="531" y="112" on="0"/>
        <pt x="495" y="49" on="0"/>
        <pt x="452" y="16" on="0"/>
        <pt x="422" y="6" on="1"/>
        <pt x="376" y="-8" on="0"/>
        <pt x="264" y="-8" on="0"/>
        <pt x="103" y="7" on="0"/>
        <pt x="71" y="13" on="1"/>
        <pt x="78" y="58" on="1"/>
        <pt x="148" y="50" on="0"/>
      </contour>
    </TTGlyph>
    <TTGlyph name="Scaron" xMin="79" yMin="-8" xMax="606" yMax="929">
      <contour>
        <pt x="298" y="928" on="1"/>
        <pt x="347" y="928" on="1"/>
        <pt x="417" y="835" on="1"/>
        <pt x="524" y="928" on="1"/>
        <pt x="584" y="928" on="1"/>
        <pt x="441" y="798" on="1"/>
        <pt x="386" y="798" on="1"/>
      </contour>
      <contour>
        <pt x="329" y="50" on="1"/>
        <pt x="472" y="50" on="0"/>
        <pt x="488" y="156" on="1"/>
        <pt x="499" y="224" on="1"/>
        <pt x="501" y="242" on="0"/>
        <pt x="501" y="287" on="0"/>
        <pt x="490" y="304" on="1"/>
        <pt x="473" y="330" on="0"/>
        <pt x="414" y="330" on="1"/>
        <pt x="284" y="330" on="1"/>
        <pt x="194" y="330" on="0"/>
        <pt x="160" y="366" on="1"/>
        <pt x="130" y="399" on="0"/>
        <pt x="130" y="441" on="1"/>
        <pt x="130" y="452" on="0"/>
        <pt x="134" y="495" on="1"/>
        <pt x="144" y="561" on="1"/>
        <pt x="162" y="672" on="0"/>
        <pt x="225" y="708" on="1"/>
        <pt x="277" y="738" on="0"/>
        <pt x="356" y="738" on="1"/>
        <pt x="395" y="738" on="0"/>
        <pt x="564" y="722" on="0"/>
        <pt x="605" y="716" on="1"/>
        <pt x="598" y="672" on="1"/>
        <pt x="359" y="680" on="1"/>
        <pt x="350" y="681" on="0"/>
        <pt x="318" y="681" on="0"/>
        <pt x="276" y="674" on="0"/>
        <pt x="255" y="661" on="1"/>
        <pt x="214" y="636" on="0"/>
        <pt x="202" y="560" on="1"/>
        <pt x="191" y="494" on="1"/>
        <pt x="185" y="452" on="0"/>
        <pt x="195" y="422" on="0"/>
        <pt x="202" y="406" on="0"/>
        <pt x="220" y="396" on="0"/>
        <pt x="234" y="391" on="0"/>
        <pt x="247" y="389" on="1"/>
        <pt x="266" y="388" on="0"/>
        <pt x="293" y="388" on="1"/>
        <pt x="423" y="388" on="1"/>
        <pt x="469" y="388" on="0"/>
        <pt x="530" y="359" on="0"/>
        <pt x="542" y="336" on="1"/>
        <pt x="560" y="301" on="0"/>
        <pt x="560" y="241" on="0"/>
        <pt x="556" y="222" on="1"/>
        <pt x="545" y="154" on="1"/>
        <pt x="539" y="112" on="0"/>
        <pt x="503" y="49" on="0"/>
        <pt x="460" y="16" on="0"/>
        <pt x="430" y="6" on="1"/>
        <pt x="384" y="-8" on="0"/>
        <pt x="272" y="-8" on="0"/>
        <pt x="111" y="7" on="0"/>
        <pt x="79" y="13" on="1"/>
        <pt x="86" y="58" on="1"/>
        <pt x="156" y="50" on="0"/>
      </contour>
    </TTGlyph>
    <TTGlyph name="Scedilla" xMin="79" yMin="-181" xMax="606" yMax="739">
      <contour>
        <pt x="214" y="-181" on="1"/>
        <pt x="169" y="-181" on="1"/>
        <pt x="174" y="-154" on="1"/>
        <pt x="222" y="-142" on="1"/>
        <pt x="259" y="-132" on="0"/>
        <pt x="274" y="-95" on="1"/>
        <pt x="282" y="-76" on="0"/>
        <pt x="286" y="-45" on="1"/>
        <pt x="337" y="-45" on="1"/>
        <pt x="328" y="-98" on="0"/>
        <pt x="302" y="-154" on="0"/>
        <pt x="255" y="-181" on="0"/>
      </contour>
      <contour>
        <pt x="329" y="50" on="1"/>
        <pt x="472" y="50" on="0"/>
        <pt x="488" y="156" on="1"/>
        <pt x="499" y="224" on="1"/>
        <pt x="501" y="242" on="0"/>
        <pt x="501" y="287" on="0"/>
        <pt x="490" y="304" on="1"/>
        <pt x="473" y="330" on="0"/>
        <pt x="414" y="330" on="1"/>
        <pt x="284" y="330" on="1"/>
        <pt x="194" y="330" on="0"/>
        <pt x="160" y="366" on="1"/>
        <pt x="130" y="399" on="0"/>
        <pt x="130" y="441" on="1"/>
        <pt x="130" y="452" on="0"/>
        <pt x="134" y="495" on="1"/>
        <pt x="144" y="561" on="1"/>
        <pt x="162" y="672" on="0"/>
        <pt x="225" y="708" on="1"/>
        <pt x="277" y="738" on="0"/>
        <pt x="356" y="738" on="1"/>
        <pt x="395" y="738" on="0"/>
        <pt x="564" y="722" on="0"/>
        <pt x="605" y="716" on="1"/>
        <pt x="598" y="672" on="1"/>
        <pt x="359" y="680" on="1"/>
        <pt x="350" y="681" on="0"/>
        <pt x="318" y="681" on="0"/>
        <pt x="276" y="674" on="0"/>
        <pt x="255" y="661" on="1"/>
        <pt x="214" y="636" on="0"/>
        <pt x="202" y="560" on="1"/>
        <pt x="191" y="494" on="1"/>
        <pt x="185" y="452" on="0"/>
        <pt x="195" y="422" on="0"/>
        <pt x="202" y="406" on="0"/>
        <pt x="220" y="396" on="0"/>
        <pt x="234" y="391" on="0"/>
        <pt x="247" y="389" on="1"/>
        <pt x="266" y="388" on="0"/>
        <pt x="293" y="388" on="1"/>
        <pt x="423" y="388" on="1"/>
        <pt x="469" y="388" on="0"/>
        <pt x="530" y="359" on="0"/>
        <pt x="542" y="336" on="1"/>
        <pt x="560" y="301" on="0"/>
        <pt x="560" y="241" on="0"/>
        <pt x="556" y="222" on="1"/>
        <pt x="545" y="154" on="1"/>
        <pt x="539" y="112" on="0"/>
        <pt x="503" y="49" on="0"/>
        <pt x="460" y="16" on="0"/>
        <pt x="430" y="6" on="1"/>
        <pt x="384" y="-8" on="0"/>
        <pt x="272" y="-8" on="0"/>
        <pt x="111" y="7" on="0"/>
        <pt x="79" y="13" on="1"/>
        <pt x="86" y="58" on="1"/>
        <pt x="156" y="50" on="0"/>
      </contour>
    </TTGlyph>
    <TTGlyph name="Scircumflex" xMin="79" yMin="-8" xMax="606" yMax="929">
      <contour>
        <pt x="257" y="798" on="1"/>
        <pt x="400" y="928" on="1"/>
        <pt x="454" y="928" on="1"/>
        <pt x="542" y="798" on="1"/>
        <pt x="493" y="798" on="1"/>
        <pt x="424" y="892" on="1"/>
        <pt x="316" y="798" on="1"/>
      </contour>
      <contour>
        <pt x="329" y="50" on="1"/>
        <pt x="472" y="50" on="0"/>
        <pt x="488" y="156" on="1"/>
        <pt x="499" y="224" on="1"/>
        <pt x="501" y="242" on="0"/>
        <pt x="501" y="287" on="0"/>
        <pt x="490" y="304" on="1"/>
        <pt x="473" y="330" on="0"/>
        <pt x="414" y="330" on="1"/>
        <pt x="284" y="330" on="1"/>
        <pt x="194" y="330" on="0"/>
        <pt x="160" y="366" on="1"/>
        <pt x="130" y="399" on="0"/>
        <pt x="130" y="441" on="1"/>
        <pt x="130" y="452" on="0"/>
        <pt x="134" y="495" on="1"/>
        <pt x="144" y="561" on="1"/>
        <pt x="162" y="672" on="0"/>
        <pt x="225" y="708" on="1"/>
        <pt x="277" y="738" on="0"/>
        <pt x="356" y="738" on="1"/>
        <pt x="395" y="738" on="0"/>
        <pt x="564" y="722" on="0"/>
        <pt x="605" y="716" on="1"/>
        <pt x="598" y="672" on="1"/>
        <pt x="359" y="680" on="1"/>
        <pt x="350" y="681" on="0"/>
        <pt x="318" y="681" on="0"/>
        <pt x="276" y="674" on="0"/>
        <pt x="255" y="661" on="1"/>
        <pt x="214" y="636" on="0"/>
        <pt x="202" y="560" on="1"/>
        <pt x="191" y="494" on="1"/>
        <pt x="185" y="452" on="0"/>
        <pt x="195" y="422" on="0"/>
        <pt x="202" y="406" on="0"/>
        <pt x="220" y="396" on="0"/>
        <pt x="234" y="391" on="0"/>
        <pt x="247" y="389" on="1"/>
        <pt x="266" y="388" on="0"/>
        <pt x="293" y="388" on="1"/>
        <pt x="423" y="388" on="1"/>
        <pt x="469" y="388" on="0"/>
        <pt x="530" y="359" on="0"/>
        <pt x="542" y="336" on="1"/>
        <pt x="560" y="301" on="0"/>
        <pt x="560" y="241" on="0"/>
        <pt x="556" y="222" on="1"/>
        <pt x="545" y="154" on="1"/>
        <pt x="539" y="112" on="0"/>
        <pt x="503" y="49" on="0"/>
        <pt x="460" y="16" on="0"/>
        <pt x="430" y="6" on="1"/>
        <pt x="384" y="-8" on="0"/>
        <pt x="272" y="-8" on="0"/>
        <pt x="111" y="7" on="0"/>
        <pt x="79" y="13" on="1"/>
        <pt x="86" y="58" on="1"/>
        <pt x="156" y="50" on="0"/>
      </contour>
    </TTGlyph>
    <TTGlyph name="T" xMin="139" yMin="0" xMax="667" yMax="732">
      <contour>
        <pt x="139" y="674" on="1"/>
        <pt x="148" y="732" on="1"/>
        <pt x="666" y="732" on="1"/>
        <pt x="657" y="674" on="1"/>
        <pt x="424" y="674" on="1"/>
        <pt x="317" y="0" on="1"/>
        <pt x="260" y="0" on="1"/>
        <pt x="366" y="674" on="1"/>
      </contour>
    </TTGlyph>
    <TTGlyph name="Tbar" xMin="139" yMin="0" xMax="654" yMax="732">
      <contour>
        <pt x="139" y="674" on="1"/>
        <pt x="148" y="732" on="1"/>
        <pt x="653" y="732" on="1"/>
        <pt x="644" y="674" on="1"/>
        <pt x="417" y="674" on="1"/>
        <pt x="379" y="437" on="1"/>
        <pt x="503" y="437" on="1"/>
        <pt x="497" y="397" on="1"/>
        <pt x="373" y="397" on="1"/>
        <pt x="310" y="0" on="1"/>
        <pt x="253" y="0" on="1"/>
        <pt x="316" y="397" on="1"/>
        <pt x="193" y="397" on="1"/>
        <pt x="199" y="437" on="1"/>
        <pt x="322" y="437" on="1"/>
        <pt x="360" y="674" on="1"/>
      </contour>
    </TTGlyph>
    <TTGlyph name="Tcaron" xMin="139" yMin="0" xMax="667" yMax="927">
      <contour>
        <pt x="296" y="927" on="1"/>
        <pt x="345" y="927" on="1"/>
        <pt x="414" y="833" on="1"/>
        <pt x="522" y="927" on="1"/>
        <pt x="581" y="927" on="1"/>
        <pt x="438" y="797" on="1"/>
        <pt x="384" y="797" on="1"/>
      </contour>
      <contour>
        <pt x="139" y="674" on="1"/>
        <pt x="148" y="732" on="1"/>
        <pt x="666" y="732" on="1"/>
        <pt x="657" y="674" on="1"/>
        <pt x="424" y="674" on="1"/>
        <pt x="317" y="0" on="1"/>
        <pt x="260" y="0" on="1"/>
        <pt x="366" y="674" on="1"/>
      </contour>
    </TTGlyph>
    <TTGlyph name="Tcommaaccent" xMin="125" yMin="-185" xMax="653" yMax="732">
      <contour>
        <pt x="170" y="-185" on="1"/>
        <pt x="126" y="-185" on="1"/>
        <pt x="130" y="-158" on="1"/>
        <pt x="178" y="-146" on="1"/>
        <pt x="207" y="-138" on="0"/>
        <pt x="236" y="-95" on="0"/>
        <pt x="242" y="-49" on="1"/>
        <pt x="293" y="-49" on="1"/>
        <pt x="281" y="-126" on="0"/>
        <pt x="230" y="-185" on="0"/>
      </contour>
      <contour>
        <pt x="125" y="674" on="1"/>
        <pt x="135" y="732" on="1"/>
        <pt x="653" y="732" on="1"/>
        <pt x="643" y="674" on="1"/>
        <pt x="410" y="674" on="1"/>
        <pt x="303" y="0" on="1"/>
        <pt x="246" y="0" on="1"/>
        <pt x="352" y="674" on="1"/>
      </contour>
    </TTGlyph>
    <TTGlyph name="Thorn" xMin="60" yMin="0" xMax="560" yMax="729">
      <contour>
        <pt x="60" y="0" on="1"/>
        <pt x="60" y="0" on="0"/>
        <pt x="175" y="729" on="1"/>
        <pt x="232" y="729" on="1"/>
        <pt x="210" y="588" on="1"/>
        <pt x="414" y="588" on="1"/>
        <pt x="452" y="588" on="0"/>
        <pt x="506" y="564" on="0"/>
        <pt x="519" y="548" on="1"/>
        <pt x="559" y="504" on="0"/>
        <pt x="559" y="430" on="1"/>
        <pt x="559" y="405" on="0"/>
        <pt x="549" y="314" on="0"/>
        <pt x="515" y="228" on="0"/>
        <pt x="477" y="183" on="0"/>
        <pt x="421" y="158" on="0"/>
        <pt x="378" y="152" on="0"/>
        <pt x="348" y="152" on="1"/>
        <pt x="196" y="154" on="0"/>
        <pt x="145" y="169" on="1"/>
        <pt x="118" y="0" on="1"/>
      </contour>
      <contour>
        <pt x="354" y="210" on="1"/>
        <pt x="410" y="210" on="0"/>
        <pt x="444" y="240" on="1"/>
        <pt x="481" y="275" on="0"/>
        <pt x="498" y="377" on="1"/>
        <pt x="502" y="399" on="0"/>
        <pt x="502" y="424" on="0"/>
        <pt x="499" y="453" on="0"/>
        <pt x="493" y="485" on="0"/>
        <pt x="474" y="508" on="0"/>
        <pt x="457" y="521" on="0"/>
        <pt x="445" y="524" on="1"/>
        <pt x="426" y="530" on="0"/>
        <pt x="405" y="530" on="1"/>
        <pt x="201" y="530" on="1"/>
        <pt x="151" y="210" on="1"/>
      </contour>
    </TTGlyph>
    <TTGlyph name="U" xMin="119" yMin="-5" xMax="710" yMax="733">
      <contour>
        <pt x="186" y="308" on="1"/>
        <pt x="177" y="245" on="0"/>
        <pt x="177" y="166" on="0"/>
        <pt x="191" y="113" on="0"/>
        <pt x="216" y="78" on="0"/>
        <pt x="239" y="68" on="1"/>
        <pt x="277" y="53" on="0"/>
        <pt x="394" y="53" on="0"/>
        <pt x="466" y="73" on="0"/>
        <pt x="498" y="100" on="1"/>
        <pt x="559" y="152" on="0"/>
        <pt x="584" y="308" on="1"/>
        <pt x="651" y="732" on="1"/>
        <pt x="709" y="732" on="1"/>
        <pt x="642" y="308" on="1"/>
        <pt x="629" y="228" on="0"/>
        <pt x="589" y="118" on="0"/>
        <pt x="555" y="76" on="1"/>
        <pt x="488" y="-5" on="0"/>
        <pt x="339" y="-5" on="1"/>
        <pt x="229" y="-5" on="0"/>
        <pt x="178" y="37" on="1"/>
        <pt x="119" y="87" on="0"/>
        <pt x="119" y="203" on="1"/>
        <pt x="119" y="250" on="0"/>
        <pt x="128" y="308" on="1"/>
        <pt x="195" y="732" on="1"/>
        <pt x="253" y="732" on="1"/>
      </contour>
    </TTGlyph>
    <TTGlyph name="Uacute" xMin="119" yMin="-5" xMax="710" yMax="930">
      <contour>
        <pt x="437" y="797" on="1"/>
        <pt x="570" y="930" on="1"/>
        <pt x="642" y="930" on="1"/>
        <pt x="488" y="797" on="1"/>
      </contour>
      <contour>
        <pt x="186" y="308" on="1"/>
        <pt x="177" y="245" on="0"/>
        <pt x="177" y="166" on="0"/>
        <pt x="191" y="113" on="0"/>
        <pt x="216" y="78" on="0"/>
        <pt x="239" y="68" on="1"/>
        <pt x="277" y="53" on="0"/>
        <pt x="394" y="52" on="0"/>
        <pt x="466" y="73" on="0"/>
        <pt x="498" y="100" on="1"/>
        <pt x="559" y="152" on="0"/>
        <pt x="584" y="308" on="1"/>
        <pt x="651" y="732" on="1"/>
        <pt x="709" y="732" on="1"/>
        <pt x="642" y="308" on="1"/>
        <pt x="629" y="228" on="0"/>
        <pt x="589" y="118" on="0"/>
        <pt x="555" y="76" on="1"/>
        <pt x="488" y="-5" on="0"/>
        <pt x="339" y="-5" on="1"/>
        <pt x="229" y="-5" on="0"/>
        <pt x="178" y="37" on="1"/>
        <pt x="119" y="87" on="0"/>
        <pt x="119" y="203" on="1"/>
        <pt x="119" y="250" on="0"/>
        <pt x="128" y="308" on="1"/>
        <pt x="195" y="732" on="1"/>
        <pt x="254" y="732" on="1"/>
      </contour>
    </TTGlyph>
    <TTGlyph name="Ubreve" xMin="119" yMin="-5" xMax="710" yMax="911">
      <contour>
        <pt x="401" y="897" on="1"/>
        <pt x="401" y="872" on="0"/>
        <pt x="435" y="832" on="0"/>
        <pt x="466" y="832" on="1"/>
        <pt x="466" y="832" on="0"/>
        <pt x="481" y="832" on="0"/>
        <pt x="507" y="838" on="0"/>
        <pt x="529" y="851" on="0"/>
        <pt x="537" y="860" on="1"/>
        <pt x="554" y="879" on="0"/>
        <pt x="559" y="911" on="1"/>
        <pt x="595" y="911" on="1"/>
        <pt x="587" y="854" on="0"/>
        <pt x="517" y="797" on="0"/>
        <pt x="423" y="797" on="0"/>
        <pt x="366" y="854" on="0"/>
        <pt x="366" y="896" on="1"/>
        <pt x="366" y="903" on="0"/>
        <pt x="367" y="911" on="1"/>
        <pt x="402" y="911" on="1"/>
        <pt x="401" y="904" on="0"/>
      </contour>
      <contour>
        <pt x="186" y="308" on="1"/>
        <pt x="177" y="245" on="0"/>
        <pt x="177" y="166" on="0"/>
        <pt x="191" y="113" on="0"/>
        <pt x="216" y="78" on="0"/>
        <pt x="239" y="68" on="1"/>
        <pt x="277" y="53" on="0"/>
        <pt x="394" y="52" on="0"/>
        <pt x="466" y="73" on="0"/>
        <pt x="498" y="100" on="1"/>
        <pt x="559" y="152" on="0"/>
        <pt x="584" y="308" on="1"/>
        <pt x="651" y="732" on="1"/>
        <pt x="709" y="732" on="1"/>
        <pt x="642" y="308" on="1"/>
        <pt x="629" y="228" on="0"/>
        <pt x="589" y="118" on="0"/>
        <pt x="555" y="76" on="1"/>
        <pt x="488" y="-5" on="0"/>
        <pt x="339" y="-5" on="1"/>
        <pt x="229" y="-5" on="0"/>
        <pt x="178" y="37" on="1"/>
        <pt x="119" y="87" on="0"/>
        <pt x="119" y="203" on="1"/>
        <pt x="119" y="250" on="0"/>
        <pt x="128" y="308" on="1"/>
        <pt x="195" y="732" on="1"/>
        <pt x="254" y="732" on="1"/>
      </contour>
    </TTGlyph>
    <TTGlyph name="Ucircumflex" xMin="119" yMin="-5" xMax="710" yMax="927">
      <contour>
        <pt x="320" y="797" on="1"/>
        <pt x="463" y="927" on="1"/>
        <pt x="517" y="927" on="1"/>
        <pt x="605" y="797" on="1"/>
        <pt x="556" y="797" on="1"/>
        <pt x="487" y="891" on="1"/>
        <pt x="379" y="797" on="1"/>
      </contour>
      <contour>
        <pt x="186" y="308" on="1"/>
        <pt x="177" y="245" on="0"/>
        <pt x="177" y="166" on="0"/>
        <pt x="191" y="113" on="0"/>
        <pt x="216" y="78" on="0"/>
        <pt x="239" y="68" on="1"/>
        <pt x="277" y="53" on="0"/>
        <pt x="394" y="52" on="0"/>
        <pt x="466" y="73" on="0"/>
        <pt x="498" y="100" on="1"/>
        <pt x="559" y="152" on="0"/>
        <pt x="584" y="308" on="1"/>
        <pt x="651" y="732" on="1"/>
        <pt x="709" y="732" on="1"/>
        <pt x="642" y="308" on="1"/>
        <pt x="629" y="228" on="0"/>
        <pt x="589" y="118" on="0"/>
        <pt x="555" y="76" on="1"/>
        <pt x="488" y="-5" on="0"/>
        <pt x="339" y="-5" on="1"/>
        <pt x="229" y="-5" on="0"/>
        <pt x="178" y="37" on="1"/>
        <pt x="119" y="87" on="0"/>
        <pt x="119" y="203" on="1"/>
        <pt x="119" y="250" on="0"/>
        <pt x="128" y="308" on="1"/>
        <pt x="195" y="732" on="1"/>
        <pt x="254" y="732" on="1"/>
      </contour>
    </TTGlyph>
    <TTGlyph name="Udieresis" xMin="119" yMin="-5" xMax="710" yMax="877">
      <contour>
        <pt x="304" y="854" on="0"/>
        <pt x="332" y="876" on="0"/>
        <pt x="359" y="876" on="0"/>
        <pt x="367" y="871" on="1"/>
        <pt x="385" y="860" on="0"/>
        <pt x="379" y="820" on="0"/>
        <pt x="352" y="797" on="0"/>
        <pt x="319" y="797" on="0"/>
        <pt x="299" y="821" on="0"/>
      </contour>
      <contour>
        <pt x="559" y="854" on="0"/>
        <pt x="587" y="876" on="0"/>
        <pt x="614" y="876" on="0"/>
        <pt x="622" y="871" on="1"/>
        <pt x="640" y="860" on="0"/>
        <pt x="634" y="820" on="0"/>
        <pt x="607" y="797" on="0"/>
        <pt x="574" y="797" on="0"/>
        <pt x="554" y="821" on="0"/>
      </contour>
      <contour>
        <pt x="186" y="308" on="1"/>
        <pt x="177" y="245" on="0"/>
        <pt x="177" y="166" on="0"/>
        <pt x="191" y="113" on="0"/>
        <pt x="216" y="78" on="0"/>
        <pt x="239" y="68" on="1"/>
        <pt x="277" y="53" on="0"/>
        <pt x="394" y="52" on="0"/>
        <pt x="466" y="73" on="0"/>
        <pt x="498" y="100" on="1"/>
        <pt x="559" y="152" on="0"/>
        <pt x="584" y="308" on="1"/>
        <pt x="651" y="732" on="1"/>
        <pt x="709" y="732" on="1"/>
        <pt x="642" y="308" on="1"/>
        <pt x="629" y="228" on="0"/>
        <pt x="589" y="118" on="0"/>
        <pt x="555" y="76" on="1"/>
        <pt x="488" y="-5" on="0"/>
        <pt x="339" y="-5" on="1"/>
        <pt x="229" y="-5" on="0"/>
        <pt x="178" y="37" on="1"/>
        <pt x="119" y="87" on="0"/>
        <pt x="119" y="203" on="1"/>
        <pt x="119" y="250" on="0"/>
        <pt x="128" y="308" on="1"/>
        <pt x="195" y="732" on="1"/>
        <pt x="254" y="732" on="1"/>
      </contour>
    </TTGlyph>
    <TTGlyph name="Ugrave" xMin="119" yMin="-5" xMax="710" yMax="930">
      <contour>
        <pt x="317" y="930" on="1"/>
        <pt x="384" y="930" on="1"/>
        <pt x="488" y="797" on="1"/>
        <pt x="437" y="797" on="1"/>
      </contour>
      <contour>
        <pt x="186" y="308" on="1"/>
        <pt x="177" y="245" on="0"/>
        <pt x="177" y="166" on="0"/>
        <pt x="191" y="113" on="0"/>
        <pt x="216" y="78" on="0"/>
        <pt x="239" y="68" on="1"/>
        <pt x="277" y="53" on="0"/>
        <pt x="394" y="52" on="0"/>
        <pt x="466" y="73" on="0"/>
        <pt x="498" y="100" on="1"/>
        <pt x="559" y="152" on="0"/>
        <pt x="584" y="308" on="1"/>
        <pt x="651" y="732" on="1"/>
        <pt x="709" y="732" on="1"/>
        <pt x="642" y="308" on="1"/>
        <pt x="629" y="228" on="0"/>
        <pt x="589" y="118" on="0"/>
        <pt x="555" y="76" on="1"/>
        <pt x="488" y="-5" on="0"/>
        <pt x="339" y="-5" on="1"/>
        <pt x="229" y="-5" on="0"/>
        <pt x="178" y="37" on="1"/>
        <pt x="119" y="87" on="0"/>
        <pt x="119" y="203" on="1"/>
        <pt x="119" y="250" on="0"/>
        <pt x="128" y="308" on="1"/>
        <pt x="195" y="732" on="1"/>
        <pt x="254" y="732" on="1"/>
      </contour>
    </TTGlyph>
    <TTGlyph name="Uhungarumlaut" xMin="119" yMin="-5" xMax="711" yMax="930">
      <contour>
        <pt x="369" y="797" on="1"/>
        <pt x="502" y="930" on="1"/>
        <pt x="574" y="930" on="1"/>
        <pt x="420" y="797" on="1"/>
      </contour>
      <contour>
        <pt x="505" y="797" on="1"/>
        <pt x="638" y="930" on="1"/>
        <pt x="710" y="930" on="1"/>
        <pt x="556" y="797" on="1"/>
      </contour>
      <contour>
        <pt x="186" y="308" on="1"/>
        <pt x="177" y="245" on="0"/>
        <pt x="177" y="166" on="0"/>
        <pt x="191" y="113" on="0"/>
        <pt x="216" y="78" on="0"/>
        <pt x="239" y="68" on="1"/>
        <pt x="277" y="53" on="0"/>
        <pt x="394" y="52" on="0"/>
        <pt x="466" y="73" on="0"/>
        <pt x="498" y="100" on="1"/>
        <pt x="559" y="152" on="0"/>
        <pt x="584" y="308" on="1"/>
        <pt x="651" y="732" on="1"/>
        <pt x="709" y="732" on="1"/>
        <pt x="642" y="308" on="1"/>
        <pt x="629" y="228" on="0"/>
        <pt x="589" y="118" on="0"/>
        <pt x="555" y="76" on="1"/>
        <pt x="488" y="-5" on="0"/>
        <pt x="339" y="-5" on="1"/>
        <pt x="229" y="-5" on="0"/>
        <pt x="178" y="37" on="1"/>
        <pt x="119" y="87" on="0"/>
        <pt x="119" y="203" on="1"/>
        <pt x="119" y="250" on="0"/>
        <pt x="128" y="308" on="1"/>
        <pt x="195" y="732" on="1"/>
        <pt x="254" y="732" on="1"/>
      </contour>
    </TTGlyph>
    <TTGlyph name="Umacron" xMin="119" yMin="-5" xMax="710" yMax="845">
      <contour>
        <pt x="323" y="797" on="1"/>
        <pt x="331" y="844" on="1"/>
        <pt x="609" y="844" on="1"/>
        <pt x="602" y="797" on="1"/>
      </contour>
      <contour>
        <pt x="186" y="308" on="1"/>
        <pt x="177" y="245" on="0"/>
        <pt x="177" y="166" on="0"/>
        <pt x="191" y="113" on="0"/>
        <pt x="216" y="78" on="0"/>
        <pt x="239" y="68" on="1"/>
        <pt x="277" y="53" on="0"/>
        <pt x="394" y="52" on="0"/>
        <pt x="466" y="73" on="0"/>
        <pt x="498" y="100" on="1"/>
        <pt x="559" y="152" on="0"/>
        <pt x="584" y="308" on="1"/>
        <pt x="651" y="732" on="1"/>
        <pt x="709" y="732" on="1"/>
        <pt x="642" y="308" on="1"/>
        <pt x="629" y="228" on="0"/>
        <pt x="589" y="118" on="0"/>
        <pt x="555" y="76" on="1"/>
        <pt x="488" y="-5" on="0"/>
        <pt x="339" y="-5" on="1"/>
        <pt x="229" y="-5" on="0"/>
        <pt x="178" y="37" on="1"/>
        <pt x="119" y="87" on="0"/>
        <pt x="119" y="203" on="1"/>
        <pt x="119" y="250" on="0"/>
        <pt x="128" y="308" on="1"/>
        <pt x="195" y="732" on="1"/>
        <pt x="254" y="732" on="1"/>
      </contour>
    </TTGlyph>
    <TTGlyph name="Uogonek" xMin="119" yMin="-184" xMax="710" yMax="732">
      <contour>
        <pt x="355" y="-1" on="1"/>
        <pt x="276" y="-48" on="0"/>
        <pt x="276" y="-97" on="1"/>
        <pt x="276" y="-137" on="0"/>
        <pt x="340" y="-137" on="1"/>
        <pt x="343" y="-137" on="0"/>
        <pt x="346" y="-137" on="1"/>
        <pt x="339" y="-182" on="1"/>
        <pt x="328" y="-183" on="0"/>
        <pt x="317" y="-183" on="1"/>
        <pt x="274" y="-183" on="0"/>
        <pt x="225" y="-137" on="0"/>
        <pt x="225" y="-110" on="1"/>
        <pt x="225" y="-41" on="0"/>
        <pt x="325" y="-1" on="1"/>
      </contour>
      <contour>
        <pt x="186" y="308" on="1"/>
        <pt x="177" y="245" on="0"/>
        <pt x="177" y="166" on="0"/>
        <pt x="191" y="113" on="0"/>
        <pt x="216" y="78" on="0"/>
        <pt x="239" y="68" on="1"/>
        <pt x="277" y="53" on="0"/>
        <pt x="394" y="52" on="0"/>
        <pt x="466" y="73" on="0"/>
        <pt x="498" y="100" on="1"/>
        <pt x="559" y="152" on="0"/>
        <pt x="584" y="308" on="1"/>
        <pt x="651" y="732" on="1"/>
        <pt x="709" y="732" on="1"/>
        <pt x="642" y="308" on="1"/>
        <pt x="629" y="228" on="0"/>
        <pt x="589" y="118" on="0"/>
        <pt x="555" y="76" on="1"/>
        <pt x="488" y="-5" on="0"/>
        <pt x="339" y="-5" on="1"/>
        <pt x="229" y="-5" on="0"/>
        <pt x="178" y="37" on="1"/>
        <pt x="119" y="87" on="0"/>
        <pt x="119" y="203" on="1"/>
        <pt x="119" y="250" on="0"/>
        <pt x="128" y="308" on="1"/>
        <pt x="195" y="732" on="1"/>
        <pt x="254" y="732" on="1"/>
      </contour>
    </TTGlyph>
    <TTGlyph name="Uring" xMin="119" yMin="-5" xMax="710" yMax="1002">
      <contour>
        <pt x="484" y="1002" on="1"/>
        <pt x="549" y="1002" on="0"/>
        <pt x="573" y="951" on="1"/>
        <pt x="581" y="932" on="0"/>
        <pt x="581" y="919" on="1"/>
        <pt x="581" y="861" on="0"/>
        <pt x="510" y="797" on="0"/>
        <pt x="426" y="797" on="0"/>
        <pt x="377" y="852" on="0"/>
        <pt x="377" y="886" on="1"/>
        <pt x="377" y="937" on="0"/>
        <pt x="449" y="1002" on="0"/>
      </contour>
      <contour>
        <pt x="413" y="869" on="0"/>
        <pt x="445" y="834" on="0"/>
        <pt x="499" y="834" on="0"/>
        <pt x="520" y="853" on="1"/>
        <pt x="545" y="875" on="0"/>
        <pt x="545" y="929" on="0"/>
        <pt x="514" y="965" on="0"/>
        <pt x="474" y="965" on="0"/>
        <pt x="448" y="954" on="0"/>
        <pt x="439" y="945" on="1"/>
        <pt x="413" y="923" on="0"/>
      </contour>
      <contour>
        <pt x="186" y="308" on="1"/>
        <pt x="177" y="245" on="0"/>
        <pt x="177" y="166" on="0"/>
        <pt x="191" y="113" on="0"/>
        <pt x="216" y="78" on="0"/>
        <pt x="239" y="68" on="1"/>
        <pt x="277" y="53" on="0"/>
        <pt x="394" y="52" on="0"/>
        <pt x="466" y="73" on="0"/>
        <pt x="498" y="100" on="1"/>
        <pt x="559" y="152" on="0"/>
        <pt x="584" y="308" on="1"/>
        <pt x="651" y="732" on="1"/>
        <pt x="709" y="732" on="1"/>
        <pt x="642" y="308" on="1"/>
        <pt x="629" y="228" on="0"/>
        <pt x="589" y="118" on="0"/>
        <pt x="555" y="76" on="1"/>
        <pt x="488" y="-5" on="0"/>
        <pt x="339" y="-5" on="1"/>
        <pt x="229" y="-5" on="0"/>
        <pt x="178" y="37" on="1"/>
        <pt x="119" y="87" on="0"/>
        <pt x="119" y="203" on="1"/>
        <pt x="119" y="250" on="0"/>
        <pt x="128" y="308" on="1"/>
        <pt x="195" y="732" on="1"/>
        <pt x="254" y="732" on="1"/>
      </contour>
    </TTGlyph>
    <TTGlyph name="Utilde" xMin="119" yMin="-5" xMax="710" yMax="897">
      <contour>
        <pt x="548" y="850" on="0"/>
        <pt x="616" y="880" on="0"/>
        <pt x="630" y="890" on="1"/>
        <pt x="642" y="860" on="1"/>
        <pt x="636" y="855" on="0"/>
        <pt x="601" y="830" on="0"/>
        <pt x="584" y="819" on="0"/>
        <pt x="570" y="811" on="1"/>
        <pt x="521" y="784" on="0"/>
        <pt x="479" y="810" on="1"/>
        <pt x="459" y="822" on="0"/>
        <pt x="428" y="845" on="0"/>
        <pt x="414" y="845" on="0"/>
        <pt x="399" y="844" on="0"/>
        <pt x="369" y="836" on="0"/>
        <pt x="351" y="827" on="0"/>
        <pt x="317" y="808" on="0"/>
        <pt x="310" y="805" on="1"/>
        <pt x="299" y="835" on="1"/>
        <pt x="351" y="874" on="0"/>
        <pt x="404" y="897" on="0"/>
        <pt x="448" y="896" on="0"/>
        <pt x="482" y="873" on="1"/>
        <pt x="516" y="850" on="0"/>
      </contour>
      <contour>
        <pt x="186" y="308" on="1"/>
        <pt x="177" y="245" on="0"/>
        <pt x="177" y="166" on="0"/>
        <pt x="191" y="113" on="0"/>
        <pt x="216" y="78" on="0"/>
        <pt x="239" y="68" on="1"/>
        <pt x="277" y="53" on="0"/>
        <pt x="394" y="52" on="0"/>
        <pt x="466" y="73" on="0"/>
        <pt x="498" y="100" on="1"/>
        <pt x="559" y="152" on="0"/>
        <pt x="584" y="308" on="1"/>
        <pt x="651" y="732" on="1"/>
        <pt x="709" y="732" on="1"/>
        <pt x="642" y="308" on="1"/>
        <pt x="629" y="228" on="0"/>
        <pt x="589" y="118" on="0"/>
        <pt x="555" y="76" on="1"/>
        <pt x="488" y="-5" on="0"/>
        <pt x="339" y="-5" on="1"/>
        <pt x="229" y="-5" on="0"/>
        <pt x="178" y="37" on="1"/>
        <pt x="119" y="87" on="0"/>
        <pt x="119" y="203" on="1"/>
        <pt x="119" y="250" on="0"/>
        <pt x="128" y="308" on="1"/>
        <pt x="195" y="732" on="1"/>
        <pt x="254" y="732" on="1"/>
      </contour>
    </TTGlyph>
    <TTGlyph name="V" xMin="150" yMin="0" xMax="741" yMax="732">
      <contour>
        <pt x="150" y="732" on="1"/>
        <pt x="211" y="732" on="1"/>
        <pt x="335" y="88" on="1"/>
        <pt x="674" y="732" on="1"/>
        <pt x="740" y="732" on="1"/>
        <pt x="353" y="0" on="1"/>
        <pt x="293" y="0" on="1"/>
      </contour>
    </TTGlyph>
    <TTGlyph name="W" xMin="150" yMin="0" xMax="1066" yMax="732">
      <contour>
        <pt x="150" y="732" on="1"/>
        <pt x="208" y="732" on="1"/>
        <pt x="333" y="89" on="1"/>
        <pt x="668" y="732" on="1"/>
        <pt x="733" y="732" on="1"/>
        <pt x="596" y="464" on="1"/>
        <pt x="668" y="85" on="1"/>
        <pt x="1003" y="732" on="1"/>
        <pt x="1066" y="732" on="1"/>
        <pt x="685" y="0" on="1"/>
        <pt x="625" y="0" on="1"/>
        <pt x="552" y="381" on="1"/>
        <pt x="353" y="0" on="1"/>
        <pt x="293" y="0" on="1"/>
      </contour>
    </TTGlyph>
    <TTGlyph name="Wacute" xMin="150" yMin="0" xMax="1066" yMax="930">
      <contour>
        <pt x="593" y="797" on="1"/>
        <pt x="725" y="930" on="1"/>
        <pt x="798" y="930" on="1"/>
        <pt x="644" y="797" on="1"/>
      </contour>
      <contour>
        <pt x="150" y="732" on="1"/>
        <pt x="208" y="732" on="1"/>
        <pt x="333" y="89" on="1"/>
        <pt x="668" y="732" on="1"/>
        <pt x="733" y="732" on="1"/>
        <pt x="596" y="464" on="1"/>
        <pt x="668" y="85" on="1"/>
        <pt x="1003" y="732" on="1"/>
        <pt x="1066" y="732" on="1"/>
        <pt x="685" y="0" on="1"/>
        <pt x="625" y="0" on="1"/>
        <pt x="552" y="381" on="1"/>
        <pt x="353" y="0" on="1"/>
        <pt x="293" y="0" on="1"/>
      </contour>
    </TTGlyph>
    <TTGlyph name="Wcircumflex" xMin="150" yMin="0" xMax="1066" yMax="927">
      <contour>
        <pt x="476" y="797" on="1"/>
        <pt x="618" y="927" on="1"/>
        <pt x="673" y="927" on="1"/>
        <pt x="761" y="797" on="1"/>
        <pt x="712" y="797" on="1"/>
        <pt x="643" y="891" on="1"/>
        <pt x="535" y="797" on="1"/>
      </contour>
      <contour>
        <pt x="150" y="732" on="1"/>
        <pt x="208" y="732" on="1"/>
        <pt x="333" y="89" on="1"/>
        <pt x="668" y="732" on="1"/>
        <pt x="733" y="732" on="1"/>
        <pt x="596" y="464" on="1"/>
        <pt x="668" y="85" on="1"/>
        <pt x="1003" y="732" on="1"/>
        <pt x="1066" y="732" on="1"/>
        <pt x="685" y="0" on="1"/>
        <pt x="625" y="0" on="1"/>
        <pt x="552" y="381" on="1"/>
        <pt x="353" y="0" on="1"/>
        <pt x="293" y="0" on="1"/>
      </contour>
    </TTGlyph>
    <TTGlyph name="Wdieresis" xMin="150" yMin="0" xMax="1066" yMax="877">
      <contour>
        <pt x="487" y="876" on="0"/>
        <pt x="520" y="876" on="0"/>
        <pt x="539" y="854" on="0"/>
        <pt x="534" y="820" on="0"/>
        <pt x="508" y="797" on="0"/>
        <pt x="475" y="797" on="0"/>
        <pt x="455" y="821" on="0"/>
        <pt x="460" y="854" on="0"/>
      </contour>
      <contour>
        <pt x="742" y="876" on="0"/>
        <pt x="775" y="876" on="0"/>
        <pt x="794" y="854" on="0"/>
        <pt x="789" y="820" on="0"/>
        <pt x="763" y="797" on="0"/>
        <pt x="730" y="797" on="0"/>
        <pt x="710" y="821" on="0"/>
        <pt x="715" y="854" on="0"/>
      </contour>
      <contour>
        <pt x="150" y="732" on="1"/>
        <pt x="208" y="732" on="1"/>
        <pt x="333" y="89" on="1"/>
        <pt x="668" y="732" on="1"/>
        <pt x="733" y="732" on="1"/>
        <pt x="596" y="464" on="1"/>
        <pt x="668" y="85" on="1"/>
        <pt x="1003" y="732" on="1"/>
        <pt x="1066" y="732" on="1"/>
        <pt x="685" y="0" on="1"/>
        <pt x="625" y="0" on="1"/>
        <pt x="552" y="381" on="1"/>
        <pt x="353" y="0" on="1"/>
        <pt x="293" y="0" on="1"/>
      </contour>
    </TTGlyph>
    <TTGlyph name="Wgrave" xMin="150" yMin="0" xMax="1066" yMax="930">
      <contour>
        <pt x="473" y="930" on="1"/>
        <pt x="540" y="930" on="1"/>
        <pt x="644" y="797" on="1"/>
        <pt x="593" y="797" on="1"/>
      </contour>
      <contour>
        <pt x="150" y="732" on="1"/>
        <pt x="208" y="732" on="1"/>
        <pt x="333" y="89" on="1"/>
        <pt x="668" y="732" on="1"/>
        <pt x="733" y="732" on="1"/>
        <pt x="596" y="464" on="1"/>
        <pt x="668" y="85" on="1"/>
        <pt x="1003" y="732" on="1"/>
        <pt x="1066" y="732" on="1"/>
        <pt x="685" y="0" on="1"/>
        <pt x="625" y="0" on="1"/>
        <pt x="552" y="381" on="1"/>
        <pt x="353" y="0" on="1"/>
        <pt x="293" y="0" on="1"/>
      </contour>
    </TTGlyph>
    <TTGlyph name="X" xMin="38" yMin="0" xMax="664" yMax="732">
      <contour>
        <pt x="38" y="0" on="1"/>
        <pt x="314" y="364" on="1"/>
        <pt x="151" y="732" on="1"/>
        <pt x="212" y="732" on="1"/>
        <pt x="352" y="415" on="1"/>
        <pt x="593" y="732" on="1"/>
        <pt x="663" y="732" on="1"/>
        <pt x="379" y="358" on="1"/>
        <pt x="537" y="0" on="1"/>
        <pt x="476" y="0" on="1"/>
        <pt x="340" y="306" on="1"/>
        <pt x="108" y="0" on="1"/>
      </contour>
    </TTGlyph>
    <TTGlyph name="X.salt" xMin="20" yMin="0" xMax="702" yMax="732">
      <contour>
        <pt x="257" y="302" on="1"/>
        <pt x="292" y="346" on="0"/>
        <pt x="292" y="423" on="0"/>
        <pt x="269" y="463" on="1"/>
        <pt x="136" y="732" on="1"/>
        <pt x="198" y="732" on="1"/>
        <pt x="320" y="486" on="1"/>
        <pt x="350" y="427" on="0"/>
        <pt x="350" y="325" on="0"/>
        <pt x="316" y="283" on="1"/>
        <pt x="90" y="0" on="1"/>
        <pt x="20" y="0" on="1"/>
      </contour>
      <contour>
        <pt x="387" y="285" on="1"/>
        <pt x="373" y="318" on="0"/>
        <pt x="373" y="343" on="1"/>
        <pt x="373" y="417" on="0"/>
        <pt x="432" y="488" on="1"/>
        <pt x="631" y="732" on="1"/>
        <pt x="701" y="732" on="1"/>
        <pt x="483" y="463" on="1"/>
        <pt x="430" y="400" on="0"/>
        <pt x="430" y="355" on="1"/>
        <pt x="430" y="330" on="0"/>
        <pt x="444" y="302" on="1"/>
        <pt x="585" y="0" on="1"/>
        <pt x="523" y="0" on="1"/>
      </contour>
    </TTGlyph>
    <TTGlyph name="Y" xMin="150" yMin="0" xMax="701" yMax="732">
      <contour>
        <pt x="150" y="732" on="1"/>
        <pt x="211" y="732" on="1"/>
        <pt x="348" y="332" on="1"/>
        <pt x="632" y="732" on="1"/>
        <pt x="700" y="732" on="1"/>
        <pt x="369" y="260" on="1"/>
        <pt x="328" y="0" on="1"/>
        <pt x="270" y="0" on="1"/>
        <pt x="311" y="260" on="1"/>
      </contour>
    </TTGlyph>
    <TTGlyph name="Yacute" xMin="150" yMin="0" xMax="701" yMax="930">
      <contour>
        <pt x="410" y="797" on="1"/>
        <pt x="543" y="930" on="1"/>
        <pt x="615" y="930" on="1"/>
        <pt x="461" y="797" on="1"/>
      </contour>
      <contour>
        <pt x="150" y="732" on="1"/>
        <pt x="211" y="732" on="1"/>
        <pt x="348" y="332" on="1"/>
        <pt x="632" y="732" on="1"/>
        <pt x="700" y="732" on="1"/>
        <pt x="369" y="260" on="1"/>
        <pt x="328" y="0" on="1"/>
        <pt x="270" y="0" on="1"/>
        <pt x="311" y="260" on="1"/>
      </contour>
    </TTGlyph>
    <TTGlyph name="Ycircumflex" xMin="150" yMin="0" xMax="701" yMax="927">
      <contour>
        <pt x="293" y="797" on="1"/>
        <pt x="436" y="927" on="1"/>
        <pt x="490" y="927" on="1"/>
        <pt x="578" y="797" on="1"/>
        <pt x="529" y="797" on="1"/>
        <pt x="460" y="891" on="1"/>
        <pt x="352" y="797" on="1"/>
      </contour>
      <contour>
        <pt x="150" y="732" on="1"/>
        <pt x="211" y="732" on="1"/>
        <pt x="348" y="332" on="1"/>
        <pt x="632" y="732" on="1"/>
        <pt x="700" y="732" on="1"/>
        <pt x="369" y="260" on="1"/>
        <pt x="328" y="0" on="1"/>
        <pt x="270" y="0" on="1"/>
        <pt x="311" y="260" on="1"/>
      </contour>
    </TTGlyph>
    <TTGlyph name="Ydieresis" xMin="121" yMin="0" xMax="672" yMax="873">
      <contour>
        <pt x="261" y="863" on="0"/>
        <pt x="281" y="873" on="0"/>
        <pt x="309" y="873" on="0"/>
        <pt x="327" y="850" on="0"/>
        <pt x="322" y="817" on="0"/>
        <pt x="296" y="794" on="0"/>
        <pt x="263" y="794" on="0"/>
        <pt x="243" y="817" on="0"/>
        <pt x="247" y="845" on="0"/>
      </contour>
      <contour>
        <pt x="516" y="863" on="0"/>
        <pt x="536" y="873" on="0"/>
        <pt x="564" y="873" on="0"/>
        <pt x="582" y="850" on="0"/>
        <pt x="577" y="817" on="0"/>
        <pt x="551" y="794" on="0"/>
        <pt x="518" y="794" on="0"/>
        <pt x="498" y="817" on="0"/>
        <pt x="502" y="845" on="0"/>
      </contour>
      <contour>
        <pt x="121" y="732" on="1"/>
        <pt x="182" y="732" on="1"/>
        <pt x="320" y="332" on="1"/>
        <pt x="603" y="732" on="1"/>
        <pt x="671" y="732" on="1"/>
        <pt x="340" y="260" on="1"/>
        <pt x="299" y="0" on="1"/>
        <pt x="241" y="0" on="1"/>
        <pt x="282" y="260" on="1"/>
      </contour>
    </TTGlyph>
    <TTGlyph name="Ygrave" xMin="150" yMin="0" xMax="701" yMax="930">
      <contour>
        <pt x="290" y="930" on="1"/>
        <pt x="357" y="930" on="1"/>
        <pt x="461" y="797" on="1"/>
        <pt x="410" y="797" on="1"/>
      </contour>
      <contour>
        <pt x="150" y="732" on="1"/>
        <pt x="211" y="732" on="1"/>
        <pt x="348" y="332" on="1"/>
        <pt x="632" y="732" on="1"/>
        <pt x="700" y="732" on="1"/>
        <pt x="369" y="260" on="1"/>
        <pt x="328" y="0" on="1"/>
        <pt x="270" y="0" on="1"/>
        <pt x="311" y="260" on="1"/>
      </contour>
    </TTGlyph>
    <TTGlyph name="Z" xMin="35" yMin="0" xMax="635" yMax="732">
      <contour>
        <pt x="35" y="0" on="1"/>
        <pt x="44" y="58" on="1"/>
        <pt x="549" y="674" on="1"/>
        <pt x="142" y="674" on="1"/>
        <pt x="151" y="732" on="1"/>
        <pt x="634" y="732" on="1"/>
        <pt x="625" y="674" on="1"/>
        <pt x="120" y="58" on="1"/>
        <pt x="527" y="58" on="1"/>
        <pt x="518" y="0" on="1"/>
      </contour>
    </TTGlyph>
    <TTGlyph name="Zacute" xMin="104" yMin="0" xMax="704" yMax="927">
      <contour>
        <pt x="446" y="794" on="1"/>
        <pt x="579" y="927" on="1"/>
        <pt x="651" y="927" on="1"/>
        <pt x="497" y="794" on="1"/>
      </contour>
      <contour>
        <pt x="105" y="0" on="1"/>
        <pt x="114" y="58" on="1"/>
        <pt x="619" y="674" on="1"/>
        <pt x="211" y="674" on="1"/>
        <pt x="221" y="732" on="1"/>
        <pt x="704" y="732" on="1"/>
        <pt x="694" y="674" on="1"/>
        <pt x="190" y="58" on="1"/>
        <pt x="597" y="58" on="1"/>
        <pt x="588" y="0" on="1"/>
      </contour>
    </TTGlyph>
    <TTGlyph name="Zcaron" xMin="35" yMin="0" xMax="635" yMax="927">
      <contour>
        <pt x="281" y="927" on="1"/>
        <pt x="330" y="927" on="1"/>
        <pt x="399" y="833" on="1"/>
        <pt x="507" y="927" on="1"/>
        <pt x="566" y="927" on="1"/>
        <pt x="423" y="797" on="1"/>
        <pt x="369" y="797" on="1"/>
      </contour>
      <contour>
        <pt x="35" y="0" on="1"/>
        <pt x="44" y="58" on="1"/>
        <pt x="549" y="674" on="1"/>
        <pt x="142" y="674" on="1"/>
        <pt x="151" y="732" on="1"/>
        <pt x="634" y="732" on="1"/>
        <pt x="625" y="674" on="1"/>
        <pt x="120" y="58" on="1"/>
        <pt x="527" y="58" on="1"/>
        <pt x="518" y="0" on="1"/>
      </contour>
    </TTGlyph>
    <TTGlyph name="Zdotaccent" xMin="35" yMin="0" xMax="635" yMax="888">
      <contour>
        <pt x="390" y="887" on="1"/>
        <pt x="427" y="887" on="1"/>
        <pt x="446" y="887" on="0"/>
        <pt x="443" y="867" on="1"/>
        <pt x="434" y="810" on="1"/>
        <pt x="431" y="791" on="0"/>
        <pt x="412" y="791" on="1"/>
        <pt x="374" y="791" on="1"/>
        <pt x="366" y="791" on="0"/>
        <pt x="356" y="801" on="0"/>
        <pt x="357" y="810" on="1"/>
        <pt x="366" y="867" on="1"/>
        <pt x="369" y="887" on="0"/>
      </contour>
      <contour>
        <pt x="35" y="0" on="1"/>
        <pt x="44" y="58" on="1"/>
        <pt x="549" y="674" on="1"/>
        <pt x="142" y="674" on="1"/>
        <pt x="151" y="732" on="1"/>
        <pt x="634" y="732" on="1"/>
        <pt x="625" y="674" on="1"/>
        <pt x="120" y="58" on="1"/>
        <pt x="527" y="58" on="1"/>
        <pt x="518" y="0" on="1"/>
      </contour>
    </TTGlyph>
    <TTGlyph name="a" xMin="79" yMin="-7" xMax="555" yMax="544">
      <contour>
        <pt x="234" y="525" on="0"/>
        <pt x="278" y="537" on="0"/>
        <pt x="324" y="543" on="0"/>
        <pt x="387" y="543" on="0"/>
        <pt x="518" y="514" on="0"/>
        <pt x="554" y="479" on="1"/>
        <pt x="484" y="0" on="1"/>
        <pt x="444" y="0" on="1"/>
        <pt x="437" y="60" on="1"/>
        <pt x="403" y="38" on="0"/>
        <pt x="294" y="-7" on="0"/>
        <pt x="214" y="-7" on="0"/>
        <pt x="166" y="2" on="0"/>
        <pt x="145" y="14" on="1"/>
        <pt x="104" y="35" on="0"/>
        <pt x="87" y="98" on="1"/>
        <pt x="79" y="126" on="0"/>
        <pt x="79" y="170" on="0"/>
        <pt x="80" y="220" on="0"/>
        <pt x="101" y="342" on="0"/>
        <pt x="138" y="437" on="0"/>
        <pt x="179" y="490" on="0"/>
      </contour>
      <contour>
        <pt x="187" y="410" on="0"/>
        <pt x="155" y="319" on="0"/>
        <pt x="137" y="206" on="0"/>
        <pt x="137" y="165" on="1"/>
        <pt x="137" y="50" on="0"/>
        <pt x="241" y="50" on="1"/>
        <pt x="311" y="50" on="0"/>
        <pt x="374" y="74" on="1"/>
        <pt x="395" y="82" on="0"/>
        <pt x="440" y="102" on="1"/>
        <pt x="494" y="460" on="1"/>
        <pt x="413" y="487" on="0"/>
        <pt x="351" y="487" on="1"/>
        <pt x="297" y="487" on="0"/>
        <pt x="232" y="458" on="0"/>
      </contour>
    </TTGlyph>
    <TTGlyph name="a.salt" xMin="81" yMin="-9" xMax="555" yMax="535">
      <contour>
        <pt x="109" y="410" on="0"/>
        <pt x="220" y="534" on="0"/>
        <pt x="440" y="534" on="0"/>
        <pt x="554" y="487" on="1"/>
        <pt x="489" y="7" on="1"/>
        <pt x="476" y="5" on="0"/>
        <pt x="266" y="-9" on="0"/>
        <pt x="241" y="-9" on="1"/>
        <pt x="149" y="-9" on="0"/>
        <pt x="108" y="56" on="1"/>
        <pt x="82" y="98" on="0"/>
        <pt x="82" y="174" on="1"/>
        <pt x="82" y="216" on="0"/>
        <pt x="90" y="268" on="1"/>
      </contour>
      <contour>
        <pt x="147" y="260" on="1"/>
        <pt x="141" y="215" on="0"/>
        <pt x="141" y="172" on="1"/>
        <pt x="141" y="50" on="0"/>
        <pt x="243" y="50" on="1"/>
        <pt x="438" y="54" on="1"/>
        <pt x="496" y="455" on="1"/>
        <pt x="386" y="480" on="0"/>
        <pt x="329" y="480" on="1"/>
        <pt x="246" y="480" on="0"/>
        <pt x="164" y="382" on="0"/>
      </contour>
    </TTGlyph>
    <TTGlyph name="a.smcp" xMin="38" yMin="0" xMax="550" yMax="570">
      <contour>
        <pt x="38" y="0" on="1"/>
        <pt x="364" y="570" on="1"/>
        <pt x="421" y="570" on="1"/>
        <pt x="549" y="0" on="1"/>
        <pt x="490" y="0" on="1"/>
        <pt x="452" y="162" on="1"/>
        <pt x="196" y="162" on="1"/>
        <pt x="106" y="0" on="1"/>
      </contour>
      <contour>
        <pt x="228" y="219" on="1"/>
        <pt x="441" y="219" on="1"/>
        <pt x="382" y="493" on="1"/>
      </contour>
    </TTGlyph>
    <TTGlyph name="a.superior" xMin="43" yMin="364" xMax="386" yMax="736">
      <contour>
        <pt x="196" y="735" on="1"/>
        <pt x="204" y="736" on="0"/>
        <pt x="251" y="736" on="0"/>
        <pt x="362" y="714" on="0"/>
        <pt x="385" y="691" on="1"/>
        <pt x="336" y="369" on="1"/>
        <pt x="308" y="369" on="1"/>
        <pt x="299" y="423" on="1"/>
        <pt x="279" y="404" on="0"/>
        <pt x="192" y="364" on="0"/>
        <pt x="121" y="364" on="0"/>
        <pt x="79" y="380" on="0"/>
        <pt x="63" y="401" on="1"/>
        <pt x="44" y="426" on="0"/>
        <pt x="44" y="510" on="0"/>
        <pt x="49" y="553" on="1"/>
        <pt x="75" y="726" on="0"/>
      </contour>
      <contour>
        <pt x="94" y="549" on="1"/>
        <pt x="89" y="516" on="0"/>
        <pt x="89" y="477" on="0"/>
        <pt x="92" y="456" on="1"/>
        <pt x="101" y="411" on="0"/>
        <pt x="152" y="411" on="1"/>
        <pt x="217" y="411" on="0"/>
        <pt x="303" y="459" on="1"/>
        <pt x="337" y="673" on="1"/>
        <pt x="282" y="690" on="0"/>
        <pt x="224" y="690" on="1"/>
        <pt x="214" y="690" on="0"/>
        <pt x="204" y="690" on="1"/>
        <pt x="115" y="686" on="0"/>
      </contour>
    </TTGlyph>
    <TTGlyph name="aacute" xMin="79" yMin="-7" xMax="555" yMax="736">
      <contour>
        <pt x="339" y="603" on="1"/>
        <pt x="472" y="736" on="1"/>
        <pt x="544" y="736" on="1"/>
        <pt x="390" y="603" on="1"/>
      </contour>
      <contour>
        <pt x="234" y="525" on="0"/>
        <pt x="278" y="537" on="0"/>
        <pt x="324" y="543" on="0"/>
        <pt x="387" y="543" on="0"/>
        <pt x="518" y="514" on="0"/>
        <pt x="554" y="479" on="1"/>
        <pt x="484" y="0" on="1"/>
        <pt x="444" y="0" on="1"/>
        <pt x="437" y="60" on="1"/>
        <pt x="403" y="38" on="0"/>
        <pt x="294" y="-7" on="0"/>
        <pt x="214" y="-7" on="0"/>
        <pt x="166" y="2" on="0"/>
        <pt x="145" y="14" on="1"/>
        <pt x="104" y="35" on="0"/>
        <pt x="87" y="98" on="1"/>
        <pt x="79" y="126" on="0"/>
        <pt x="79" y="170" on="0"/>
        <pt x="80" y="220" on="0"/>
        <pt x="101" y="342" on="0"/>
        <pt x="138" y="437" on="0"/>
        <pt x="179" y="490" on="0"/>
      </contour>
      <contour>
        <pt x="187" y="410" on="0"/>
        <pt x="155" y="319" on="0"/>
        <pt x="137" y="206" on="0"/>
        <pt x="137" y="165" on="1"/>
        <pt x="137" y="50" on="0"/>
        <pt x="241" y="50" on="1"/>
        <pt x="299" y="50" on="0"/>
        <pt x="337" y="63" on="1"/>
        <pt x="384" y="78" on="0"/>
        <pt x="440" y="102" on="1"/>
        <pt x="494" y="460" on="1"/>
        <pt x="413" y="487" on="0"/>
        <pt x="351" y="487" on="1"/>
        <pt x="297" y="487" on="0"/>
        <pt x="232" y="458" on="0"/>
      </contour>
    </TTGlyph>
    <TTGlyph name="aacute.salt" xMin="81" yMin="-9" xMax="555" yMax="733">
      <contour>
        <pt x="335" y="599" on="1"/>
        <pt x="468" y="732" on="1"/>
        <pt x="540" y="732" on="1"/>
        <pt x="386" y="599" on="1"/>
      </contour>
      <contour>
        <pt x="109" y="410" on="0"/>
        <pt x="220" y="534" on="0"/>
        <pt x="440" y="534" on="0"/>
        <pt x="554" y="487" on="1"/>
        <pt x="489" y="7" on="1"/>
        <pt x="476" y="5" on="0"/>
        <pt x="266" y="-9" on="0"/>
        <pt x="241" y="-9" on="1"/>
        <pt x="149" y="-9" on="0"/>
        <pt x="108" y="56" on="1"/>
        <pt x="82" y="98" on="0"/>
        <pt x="82" y="174" on="1"/>
        <pt x="82" y="216" on="0"/>
        <pt x="90" y="268" on="1"/>
      </contour>
      <contour>
        <pt x="147" y="260" on="1"/>
        <pt x="141" y="215" on="0"/>
        <pt x="141" y="186" on="1"/>
        <pt x="141" y="102" on="0"/>
        <pt x="174" y="71" on="1"/>
        <pt x="198" y="50" on="0"/>
        <pt x="243" y="50" on="1"/>
        <pt x="438" y="54" on="1"/>
        <pt x="496" y="455" on="1"/>
        <pt x="386" y="480" on="0"/>
        <pt x="329" y="480" on="1"/>
        <pt x="246" y="480" on="0"/>
        <pt x="164" y="382" on="0"/>
      </contour>
    </TTGlyph>
    <TTGlyph name="aacute.smcp" xMin="38" yMin="0" xMax="582" yMax="763">
      <contour>
        <pt x="377" y="630" on="1"/>
        <pt x="510" y="763" on="1"/>
        <pt x="582" y="763" on="1"/>
        <pt x="428" y="630" on="1"/>
      </contour>
      <contour>
        <pt x="38" y="0" on="1"/>
        <pt x="364" y="570" on="1"/>
        <pt x="421" y="570" on="1"/>
        <pt x="549" y="0" on="1"/>
        <pt x="490" y="0" on="1"/>
        <pt x="452" y="162" on="1"/>
        <pt x="196" y="162" on="1"/>
        <pt x="106" y="0" on="1"/>
      </contour>
      <contour>
        <pt x="228" y="219" on="1"/>
        <pt x="441" y="219" on="1"/>
        <pt x="382" y="493" on="1"/>
      </contour>
    </TTGlyph>
    <TTGlyph name="abreve" xMin="79" yMin="-7" xMax="555" yMax="717">
      <contour>
        <pt x="305" y="717" on="1"/>
        <pt x="304" y="710" on="0"/>
        <pt x="304" y="688" on="0"/>
        <pt x="318" y="657" on="0"/>
        <pt x="350" y="638" on="0"/>
        <pt x="370" y="638" on="0"/>
        <pt x="371" y="638" on="0"/>
        <pt x="395" y="638" on="0"/>
        <pt x="414" y="647" on="1"/>
        <pt x="454" y="665" on="0"/>
        <pt x="463" y="717" on="1"/>
        <pt x="498" y="717" on="1"/>
        <pt x="490" y="660" on="0"/>
        <pt x="421" y="603" on="0"/>
        <pt x="326" y="603" on="0"/>
        <pt x="269" y="660" on="0"/>
        <pt x="269" y="702" on="1"/>
        <pt x="269" y="709" on="0"/>
        <pt x="270" y="717" on="1"/>
      </contour>
      <contour>
        <pt x="234" y="525" on="0"/>
        <pt x="278" y="537" on="0"/>
        <pt x="324" y="543" on="0"/>
        <pt x="387" y="543" on="0"/>
        <pt x="518" y="514" on="0"/>
        <pt x="554" y="479" on="1"/>
        <pt x="484" y="0" on="1"/>
        <pt x="444" y="0" on="1"/>
        <pt x="437" y="60" on="1"/>
        <pt x="403" y="38" on="0"/>
        <pt x="294" y="-7" on="0"/>
        <pt x="214" y="-7" on="0"/>
        <pt x="166" y="2" on="0"/>
        <pt x="145" y="14" on="1"/>
        <pt x="104" y="35" on="0"/>
        <pt x="87" y="98" on="1"/>
        <pt x="79" y="126" on="0"/>
        <pt x="79" y="170" on="0"/>
        <pt x="80" y="220" on="0"/>
        <pt x="101" y="342" on="0"/>
        <pt x="138" y="437" on="0"/>
        <pt x="179" y="490" on="0"/>
      </contour>
      <contour>
        <pt x="187" y="410" on="0"/>
        <pt x="155" y="319" on="0"/>
        <pt x="137" y="206" on="0"/>
        <pt x="137" y="165" on="1"/>
        <pt x="137" y="50" on="0"/>
        <pt x="241" y="50" on="1"/>
        <pt x="299" y="50" on="0"/>
        <pt x="337" y="63" on="1"/>
        <pt x="384" y="78" on="0"/>
        <pt x="440" y="102" on="1"/>
        <pt x="494" y="460" on="1"/>
        <pt x="413" y="487" on="0"/>
        <pt x="351" y="487" on="1"/>
        <pt x="297" y="487" on="0"/>
        <pt x="232" y="458" on="0"/>
      </contour>
    </TTGlyph>
    <TTGlyph name="abreve.salt" xMin="81" yMin="-9" xMax="555" yMax="710">
      <contour>
        <pt x="294" y="696" on="1"/>
        <pt x="294" y="671" on="0"/>
        <pt x="328" y="631" on="0"/>
        <pt x="359" y="631" on="1"/>
        <pt x="359" y="631" on="0"/>
        <pt x="360" y="631" on="0"/>
        <pt x="384" y="631" on="0"/>
        <pt x="403" y="640" on="1"/>
        <pt x="444" y="658" on="0"/>
        <pt x="452" y="710" on="1"/>
        <pt x="488" y="710" on="1"/>
        <pt x="479" y="653" on="0"/>
        <pt x="410" y="596" on="0"/>
        <pt x="316" y="596" on="0"/>
        <pt x="259" y="653" on="0"/>
        <pt x="259" y="695" on="1"/>
        <pt x="259" y="702" on="0"/>
        <pt x="260" y="710" on="1"/>
        <pt x="295" y="710" on="1"/>
        <pt x="294" y="703" on="0"/>
      </contour>
      <contour>
        <pt x="109" y="410" on="0"/>
        <pt x="220" y="534" on="0"/>
        <pt x="440" y="534" on="0"/>
        <pt x="554" y="487" on="1"/>
        <pt x="489" y="7" on="1"/>
        <pt x="476" y="5" on="0"/>
        <pt x="266" y="-9" on="0"/>
        <pt x="241" y="-9" on="1"/>
        <pt x="149" y="-9" on="0"/>
        <pt x="108" y="56" on="1"/>
        <pt x="82" y="98" on="0"/>
        <pt x="82" y="174" on="1"/>
        <pt x="82" y="216" on="0"/>
        <pt x="90" y="268" on="1"/>
      </contour>
      <contour>
        <pt x="147" y="260" on="1"/>
        <pt x="141" y="215" on="0"/>
        <pt x="141" y="186" on="1"/>
        <pt x="141" y="102" on="0"/>
        <pt x="174" y="71" on="1"/>
        <pt x="198" y="50" on="0"/>
        <pt x="243" y="50" on="1"/>
        <pt x="438" y="54" on="1"/>
        <pt x="496" y="455" on="1"/>
        <pt x="386" y="480" on="0"/>
        <pt x="329" y="480" on="1"/>
        <pt x="246" y="480" on="0"/>
        <pt x="164" y="382" on="0"/>
      </contour>
    </TTGlyph>
    <TTGlyph name="abreve.smcp" xMin="38" yMin="0" xMax="550" yMax="744">
      <contour>
        <pt x="335" y="744" on="1"/>
        <pt x="334" y="737" on="0"/>
        <pt x="334" y="716" on="0"/>
        <pt x="348" y="684" on="0"/>
        <pt x="379" y="665" on="0"/>
        <pt x="399" y="665" on="0"/>
        <pt x="400" y="665" on="0"/>
        <pt x="401" y="665" on="1"/>
        <pt x="437" y="665" on="0"/>
        <pt x="486" y="705" on="0"/>
        <pt x="492" y="744" on="1"/>
        <pt x="528" y="744" on="1"/>
        <pt x="520" y="687" on="0"/>
        <pt x="450" y="630" on="0"/>
        <pt x="356" y="630" on="0"/>
        <pt x="299" y="687" on="0"/>
        <pt x="299" y="729" on="1"/>
        <pt x="299" y="736" on="0"/>
        <pt x="300" y="744" on="1"/>
      </contour>
      <contour>
        <pt x="38" y="0" on="1"/>
        <pt x="364" y="570" on="1"/>
        <pt x="421" y="570" on="1"/>
        <pt x="549" y="0" on="1"/>
        <pt x="490" y="0" on="1"/>
        <pt x="452" y="162" on="1"/>
        <pt x="196" y="162" on="1"/>
        <pt x="106" y="0" on="1"/>
      </contour>
      <contour>
        <pt x="228" y="219" on="1"/>
        <pt x="441" y="219" on="1"/>
        <pt x="382" y="493" on="1"/>
      </contour>
    </TTGlyph>
    <TTGlyph name="acircumflex" xMin="79" yMin="-7" xMax="555" yMax="733">
      <contour>
        <pt x="215" y="603" on="1"/>
        <pt x="358" y="733" on="1"/>
        <pt x="412" y="733" on="1"/>
        <pt x="500" y="603" on="1"/>
        <pt x="451" y="603" on="1"/>
        <pt x="382" y="697" on="1"/>
        <pt x="274" y="603" on="1"/>
      </contour>
      <contour>
        <pt x="234" y="525" on="0"/>
        <pt x="278" y="537" on="0"/>
        <pt x="324" y="543" on="0"/>
        <pt x="387" y="543" on="0"/>
        <pt x="518" y="514" on="0"/>
        <pt x="554" y="479" on="1"/>
        <pt x="484" y="0" on="1"/>
        <pt x="444" y="0" on="1"/>
        <pt x="437" y="60" on="1"/>
        <pt x="403" y="38" on="0"/>
        <pt x="294" y="-7" on="0"/>
        <pt x="214" y="-7" on="0"/>
        <pt x="166" y="2" on="0"/>
        <pt x="145" y="14" on="1"/>
        <pt x="104" y="35" on="0"/>
        <pt x="87" y="98" on="1"/>
        <pt x="79" y="126" on="0"/>
        <pt x="79" y="170" on="0"/>
        <pt x="80" y="220" on="0"/>
        <pt x="101" y="342" on="0"/>
        <pt x="138" y="437" on="0"/>
        <pt x="179" y="490" on="0"/>
      </contour>
      <contour>
        <pt x="187" y="410" on="0"/>
        <pt x="155" y="319" on="0"/>
        <pt x="137" y="206" on="0"/>
        <pt x="137" y="165" on="1"/>
        <pt x="137" y="50" on="0"/>
        <pt x="241" y="50" on="1"/>
        <pt x="299" y="50" on="0"/>
        <pt x="337" y="63" on="1"/>
        <pt x="384" y="78" on="0"/>
        <pt x="440" y="102" on="1"/>
        <pt x="494" y="460" on="1"/>
        <pt x="413" y="487" on="0"/>
        <pt x="351" y="487" on="1"/>
        <pt x="297" y="487" on="0"/>
        <pt x="232" y="458" on="0"/>
      </contour>
    </TTGlyph>
    <TTGlyph name="acircumflex.salt" xMin="81" yMin="-9" xMax="555" yMax="726">
      <contour>
        <pt x="219" y="596" on="1"/>
        <pt x="362" y="726" on="1"/>
        <pt x="416" y="726" on="1"/>
        <pt x="504" y="596" on="1"/>
        <pt x="455" y="596" on="1"/>
        <pt x="386" y="690" on="1"/>
        <pt x="278" y="596" on="1"/>
      </contour>
      <contour>
        <pt x="109" y="410" on="0"/>
        <pt x="220" y="534" on="0"/>
        <pt x="440" y="534" on="0"/>
        <pt x="554" y="487" on="1"/>
        <pt x="489" y="7" on="1"/>
        <pt x="476" y="5" on="0"/>
        <pt x="266" y="-9" on="0"/>
        <pt x="241" y="-9" on="1"/>
        <pt x="149" y="-9" on="0"/>
        <pt x="108" y="56" on="1"/>
        <pt x="82" y="98" on="0"/>
        <pt x="82" y="174" on="1"/>
        <pt x="82" y="216" on="0"/>
        <pt x="90" y="268" on="1"/>
      </contour>
      <contour>
        <pt x="147" y="260" on="1"/>
        <pt x="141" y="215" on="0"/>
        <pt x="141" y="186" on="1"/>
        <pt x="141" y="102" on="0"/>
        <pt x="174" y="71" on="1"/>
        <pt x="198" y="50" on="0"/>
        <pt x="243" y="50" on="1"/>
        <pt x="438" y="54" on="1"/>
        <pt x="496" y="455" on="1"/>
        <pt x="386" y="480" on="0"/>
        <pt x="329" y="480" on="1"/>
        <pt x="246" y="480" on="0"/>
        <pt x="164" y="382" on="0"/>
      </contour>
    </TTGlyph>
    <TTGlyph name="acircumflex.smcp" xMin="38" yMin="0" xMax="550" yMax="760">
      <contour>
        <pt x="260" y="630" on="1"/>
        <pt x="403" y="760" on="1"/>
        <pt x="457" y="760" on="1"/>
        <pt x="545" y="630" on="1"/>
        <pt x="496" y="630" on="1"/>
        <pt x="427" y="724" on="1"/>
        <pt x="319" y="630" on="1"/>
      </contour>
      <contour>
        <pt x="38" y="0" on="1"/>
        <pt x="364" y="570" on="1"/>
        <pt x="421" y="570" on="1"/>
        <pt x="549" y="0" on="1"/>
        <pt x="490" y="0" on="1"/>
        <pt x="452" y="162" on="1"/>
        <pt x="196" y="162" on="1"/>
        <pt x="106" y="0" on="1"/>
      </contour>
      <contour>
        <pt x="228" y="219" on="1"/>
        <pt x="441" y="219" on="1"/>
        <pt x="382" y="493" on="1"/>
      </contour>
    </TTGlyph>
    <TTGlyph name="acute" xMin="104" yMin="531" xMax="309" yMax="664">
      <contour>
        <pt x="104" y="531" on="1"/>
        <pt x="237" y="664" on="1"/>
        <pt x="309" y="664" on="1"/>
        <pt x="155" y="531" on="1"/>
      </contour>
    </TTGlyph>
</ttFont>
